<svg xmlns="http://www.w3.org/2000/svg" xlink="http://www.w3.org/1999/xlink" width="0" height="0" style="display:none;"><symbol id="mozresticons-chevron-down">
    <g id="Artboard1" transform="matrix(0.75,0,0,0.75,0,0)">
        
        <g transform="matrix(-7.64235e-16,-12.4809,-12.4809,7.64235e-16,199.847,164.232)">
            <path d="M3.414,8L9.707,14.293L8.293,15.707L0.586,8L8.293,0.293L9.707,1.707L3.414,8Z"/>
        </g>
    </g>
</symbol><symbol id="mozresticons-chevron-left">
    <g id="Artboard1" transform="matrix(0.75,0,0,0.75,0,0)">
        
        <g transform="matrix(12.4809,0,0,12.4809,35.7677,0.152782)">
            <path d="M3.414,8L9.707,14.293L8.293,15.707L0.586,8L8.293,0.293L9.707,1.707L3.414,8Z"/>
        </g>
    </g>
</symbol><symbol id="mozresticons-chevron-right">
    <g id="Artboard1" transform="matrix(0.75,0,0,0.75,0,0)">
        
        <g transform="matrix(-12.4809,0,0,12.4809,164.232,0.152782)">
            <path d="M3.414,8L9.707,14.293L8.293,15.707L0.586,8L8.293,0.293L9.707,1.707L3.414,8Z"/>
        </g>
    </g>
</symbol><symbol id="mozresticons-clock">
    <g id="Artboard1" transform="matrix(0.75,0,0,0.75,0,0)">
        
        <g transform="matrix(3.636,0,0,3.636,-171.955,-157.479)">
            <path d="M74.795,97.128C60.295,97.128 48.5,85.324 48.5,70.814C48.5,56.303 60.295,44.5 74.795,44.5C89.294,44.5 101.09,56.303 101.09,70.814C101.09,85.324 89.289,97.128 74.795,97.128ZM74.795,47.061C61.704,47.061 51.058,57.714 51.058,70.814C51.058,83.913 61.704,94.567 74.795,94.567C87.886,94.567 98.532,83.913 98.532,70.814C98.532,57.714 87.881,47.061 74.795,47.061ZM77.223,67.761L83.748,63.04C84.459,62.529 85.446,62.689 85.956,63.395C86.467,64.101 86.307,65.094 85.601,65.605L75.776,72.715C75.502,72.91 75.179,73.011 74.851,73.011C74.608,73.011 74.361,72.954 74.132,72.839C73.607,72.57 73.272,72.023 73.272,71.431L73.272,55.663C73.272,54.788 73.977,54.082 74.851,54.082C75.724,54.082 76.43,54.788 76.43,55.663L76.43,68.335L77.223,67.761Z" style="fill-rule:nonzero;"/>
        </g>
    </g>
</symbol><symbol id="mozresticons-connect">
    <g id="Artboard1" transform="matrix(0.75,0,0,0.75,0,0)">
        
        <g transform="matrix(3.27512,0,0,3.27512,-145.634,-134.171)">
            <path d="M74.135,61.506L74.135,57.353L74.049,57.34C70.83,56.876 68.341,54.094 68.341,50.754C68.341,47.091 71.334,44.1 75,44.1C78.666,44.1 81.659,47.091 81.659,50.754C81.659,54.096 79.17,56.876 75.951,57.34L75.866,57.353L75.866,61.506L75.957,61.514C80.331,61.912 83.943,64.997 85.115,69.102L85.14,69.188L85.228,69.173L89.505,68.461L89.591,68.447L89.589,68.36C89.588,68.332 89.587,68.305 89.586,68.278C89.584,68.226 89.583,68.176 89.583,68.123C89.583,64.459 92.575,61.468 96.241,61.468C99.907,61.468 102.9,64.459 102.9,68.123C102.9,71.786 99.907,74.777 96.241,74.777C93.312,74.777 90.814,72.867 89.927,70.229L89.9,70.148L89.816,70.162L85.554,70.871L85.462,70.886L85.471,70.979C85.504,71.31 85.521,71.644 85.521,71.983C85.521,74.448 84.664,76.719 83.231,78.514L83.174,78.586L83.24,78.649L92.003,87.009L92.066,87.069L92.134,87.015C93.268,86.125 94.693,85.591 96.239,85.591C99.905,85.591 102.898,88.582 102.898,92.246C102.898,95.909 99.905,98.9 96.239,98.9C92.574,98.9 89.581,95.909 89.581,92.246C89.581,90.81 90.043,89.48 90.821,88.39L90.872,88.32L90.809,88.26L82.046,79.9L81.98,79.837L81.911,79.897C80.061,81.514 77.643,82.497 75,82.497C72.169,82.497 69.597,81.371 67.703,79.543L67.637,79.48L67.568,79.539L59.382,86.604L59.316,86.661L59.363,86.734C60.029,87.77 60.417,88.998 60.417,90.316C60.417,93.979 57.425,96.97 53.759,96.97C50.093,96.97 47.1,93.979 47.1,90.316C47.1,86.652 50.093,83.661 53.759,83.661C55.423,83.661 56.949,84.279 58.119,85.297L58.184,85.353L58.25,85.297L66.436,78.232L66.505,78.172L66.451,78.098C65.212,76.373 64.479,74.261 64.479,71.983C64.479,70.249 64.904,68.614 65.652,67.169L65.694,67.088L65.617,67.039L58.932,62.787L58.859,62.741L58.802,62.807C57.578,64.227 55.771,65.128 53.759,65.128C50.093,65.128 47.1,62.137 47.1,58.474C47.1,54.81 50.093,51.819 53.759,51.819C57.425,51.819 60.417,54.81 60.417,58.474C60.417,59.447 60.204,60.371 59.826,61.206L59.79,61.285L59.863,61.331L66.548,65.583L66.625,65.632L66.681,65.56C68.424,63.311 71.056,61.786 74.044,61.514L74.135,61.506ZM79.928,50.754C79.928,48.022 77.734,45.83 75,45.83C72.266,45.83 70.072,48.022 70.072,50.754C70.072,53.486 72.266,55.679 75,55.679C77.734,55.679 79.928,53.486 79.928,50.754ZM58.686,58.474C58.686,55.742 56.492,53.549 53.759,53.549C51.025,53.549 48.831,55.742 48.831,58.474C48.831,61.206 51.025,63.398 53.759,63.398C56.492,63.398 58.686,61.206 58.686,58.474ZM83.79,71.983C83.79,67.12 79.865,63.198 75,63.198C70.135,63.198 66.21,67.12 66.21,71.983C66.21,76.845 70.135,80.767 75,80.767C79.865,80.767 83.79,76.845 83.79,71.983ZM101.169,68.123C101.169,65.391 98.975,63.198 96.241,63.198C93.508,63.198 91.314,65.391 91.314,68.123C91.314,70.855 93.508,73.047 96.241,73.047C98.975,73.047 101.169,70.855 101.169,68.123ZM58.686,90.316C58.686,87.584 56.492,85.391 53.759,85.391C51.025,85.391 48.831,87.584 48.831,90.316C48.831,93.048 51.025,95.24 53.759,95.24C56.492,95.24 58.686,93.048 58.686,90.316ZM101.169,92.246C101.169,89.514 98.975,87.321 96.241,87.321C93.508,87.321 91.314,89.514 91.314,92.246C91.314,94.978 93.508,97.17 96.241,97.17C98.975,97.17 101.169,94.978 101.169,92.246Z" style="fill-rule:nonzero;"/>
        </g>
    </g>
</symbol><symbol id="mozresticons-cook">
    <g id="Artboard1" transform="matrix(0.75,0,0,0.75,0,0)">
        
        <g transform="matrix(2.46934,0,0,2.46934,34.9947,4.16034)">
            <path d="M42.04,59.31C41.79,59.27 41.55,59.34 41.35,59.49C37.63,62.28 32.15,63.88 26.32,63.88C20.84,63.88 15.58,62.44 11.89,59.92C11.68,59.78 11.44,59.73 11.19,59.77C10.94,59.82 10.73,59.96 10.59,60.16C10.3,60.58 10.41,61.17 10.84,61.46C13.29,63.13 16.36,64.38 19.7,65.08L20.88,65.33L19.83,65.92C15.91,68.11 13.39,72.07 13.1,76.52C13.07,76.98 13.39,77.4 13.84,77.5C16.28,78 19.67,76.96 22.59,74.83C23.88,73.89 25.03,72.78 25.9,71.62L26.26,71.15L26.62,71.62C27.5,72.78 28.64,73.89 29.93,74.83C32.8,76.92 36.1,77.95 38.53,77.52C39,77.44 39.33,77.02 39.3,76.54C39.02,72.1 36.52,68.15 32.62,65.95L31.57,65.36L32.75,65.12C36.53,64.35 39.89,62.93 42.47,61C42.88,60.69 42.97,60.11 42.66,59.69C42.5,59.47 42.28,59.34 42.04,59.31ZM37.23,75.17L37.35,75.76L36.75,75.7C34.98,75.53 32.89,74.65 31.02,73.29C29.24,72 27.85,70.41 27.09,68.83C26.78,68.19 25.72,68.19 25.41,68.83C24.66,70.41 23.26,71.99 21.48,73.29C19.55,74.7 17.41,75.58 15.61,75.71L15.02,75.75L15.13,75.17C16.17,69.91 20.82,66.1 26.18,66.1C31.54,66.11 36.19,69.92 37.23,75.17ZM42.03,42.18C41.52,42.18 41.1,42.6 41.1,43.11C41.1,51.3 34.44,57.96 26.25,57.96C18.06,57.96 11.4,51.3 11.4,43.11C11.4,42.6 10.98,42.18 10.47,42.18C9.96,42.18 9.54,42.6 9.54,43.11C9.54,52.32 17.04,59.82 26.25,59.82C35.46,59.82 42.96,52.32 42.96,43.11C42.96,42.6 42.54,42.18 42.03,42.18ZM43.25,27.21C48.52,26.72 52.65,22.19 52.65,16.89C52.65,11.18 48,6.53 42.29,6.53C41.91,6.53 41.53,6.55 41.16,6.59L40.92,6.62L40.77,6.44C37.34,2.35 32.3,0 26.96,0C21.51,0 16.42,2.41 12.98,6.62L12.79,6.85L12.51,6.77C11.76,6.61 11.06,6.54 10.36,6.54C4.65,6.54 0,11.19 0,16.9C0,22.1 3.88,26.51 9.04,27.18L9.43,27.23L9.43,36.29L9.1,36.38C8.27,36.62 7.44,36.87 6.64,37.14C6.4,37.22 6.21,37.39 6.1,37.61C5.99,37.83 5.97,38.09 6.05,38.32C6.13,38.56 6.3,38.75 6.52,38.86C6.74,38.97 7,38.99 7.23,38.91C12.97,36.97 19.55,35.95 26.26,35.95C33.07,35.95 39.73,37 45.52,38.99C46,39.16 46.54,38.89 46.71,38.41C46.79,38.17 46.78,37.92 46.67,37.7C46.56,37.48 46.37,37.31 46.13,37.23C45.21,36.91 44.22,36.61 43.18,36.32L42.85,36.23L42.85,27.27L43.25,27.21ZM41.9,20.24C41.39,20.24 40.97,20.66 40.97,21.17L40.97,35.73L40.42,35.61C35.89,34.59 31.12,34.07 26.25,34.07C21.29,34.07 16.44,34.61 11.83,35.67L11.28,35.8L11.28,27.23L11.67,27.18C13.48,26.95 15.14,26.27 16.61,25.15C17.02,24.84 17.1,24.25 16.79,23.84C16.48,23.43 15.89,23.35 15.48,23.66C13.99,24.79 12.22,25.39 10.34,25.39C5.65,25.39 1.84,21.58 1.84,16.89C1.84,12.2 5.65,8.39 10.34,8.39C10.53,8.39 10.71,8.4 10.9,8.41L11.62,8.46L11.26,9.09C10.45,10.52 9.83,12.06 9.43,13.67C9.37,13.91 9.41,14.16 9.54,14.38C9.67,14.59 9.87,14.74 10.12,14.8C10.62,14.92 11.13,14.61 11.25,14.12C13.04,6.91 19.49,1.86 26.94,1.86C31.28,1.86 35.35,3.55 38.39,6.61L38.86,7.08L38.25,7.34C35.75,8.39 33.79,10.35 32.73,12.86C32.63,13.09 32.63,13.34 32.73,13.57C32.83,13.8 33,13.98 33.23,14.08C33.71,14.28 34.25,14.06 34.45,13.58C35.78,10.43 38.86,8.39 42.28,8.39C46.97,8.39 50.78,12.2 50.78,16.89C50.78,21.16 47.58,24.79 43.34,25.32L42.83,25.38L42.83,21.16C42.84,20.66 42.42,20.24 41.9,20.24Z" style="fill-rule:nonzero;"/>
        </g>
    </g>
</symbol><symbol id="mozresticons-down-percent">
    <g id="Artboard1" transform="matrix(0.75,0,0,0.75,0,0)">
        
        <g transform="matrix(2.77641,0,0,2.77641,29.2019,5.6012)">
            <path d="M47.983,47.454L29.016,66.541C28.082,67.481 26.838,68.001 25.514,68.001C24.19,68.001 22.945,67.481 22.01,66.539L2.953,47.364C1.538,45.938 0.761,43.965 0.827,41.95C0.892,39.907 1.77,38.036 3.301,36.684C4.605,35.531 6.291,34.896 8.046,34.896C10.012,34.896 11.938,35.701 13.331,37.103L18.239,42.042L18.239,5.35C18.239,4.848 18.644,4.441 19.143,4.441C19.641,4.441 20.047,4.848 20.047,5.35L20.047,7.413C20.049,7.435 20.05,7.458 20.054,7.482L20.052,46.445L12.049,38.393C10.993,37.329 9.534,36.719 8.046,36.719C6.731,36.719 5.47,37.194 4.498,38.054C3.349,39.07 2.687,40.475 2.638,42.01C2.59,43.522 3.172,45.005 4.235,46.075L23.232,65.189C23.813,65.774 24.551,66.121 25.311,66.169C26.215,66.225 27.098,65.891 27.734,65.25L46.701,46.164C48.783,44.071 48.93,40.733 47.038,38.567C45.566,36.882 43.248,36.264 41.133,36.995C40.357,37.265 39.638,37.728 38.995,38.375L30.975,46.445L30.975,34.899C30.975,34.395 31.382,33.986 31.881,33.986C32.381,33.986 32.788,34.395 32.788,34.899L32.788,42.042L37.787,37.011C39.16,35.629 40.986,34.868 42.93,34.868C43.975,34.868 44.997,35.096 45.93,35.521C46.864,35.946 47.709,36.57 48.401,37.363C50.921,40.25 50.739,44.684 47.983,47.454ZM43.395,16.992C39.851,16.992 36.968,19.894 36.968,23.46C36.968,27.028 39.851,29.928 43.395,29.928C46.941,29.928 49.823,27.028 49.823,23.46C49.823,19.894 46.941,16.992 43.395,16.992ZM43.395,28.104C40.851,28.104 38.782,26.022 38.782,23.46C38.782,20.9 40.851,18.818 43.395,18.818C45.941,18.818 48.01,20.9 48.01,23.46C48.01,26.022 45.941,28.104 43.395,28.104ZM47.878,5.319C47.878,5.562 47.784,5.792 47.613,5.963L28.444,25.252C28.273,25.424 28.045,25.52 27.803,25.52C27.561,25.52 27.334,25.424 27.162,25.252C26.991,25.079 26.897,24.851 26.897,24.608C26.897,24.364 26.991,24.134 27.162,23.963L46.332,4.674C46.509,4.496 46.74,4.407 46.972,4.407C47.204,4.407 47.436,4.496 47.613,4.674C47.784,4.845 47.878,5.075 47.878,5.319ZM31.381,0C27.835,0 24.953,2.9 24.953,6.468C24.953,10.034 27.835,12.935 31.381,12.935C34.924,12.935 37.808,10.034 37.808,6.468C37.808,2.9 34.924,0 31.381,0ZM31.381,11.11C28.835,11.11 26.765,9.028 26.765,6.468C26.765,3.906 28.835,1.824 31.381,1.824C33.925,1.824 35.994,3.906 35.994,6.468C35.994,9.028 33.925,11.11 31.381,11.11Z" style="fill-rule:nonzero;"/>
        </g>
    </g>
</symbol><symbol id="mozresticons-facebook">
    <g id="Artboard1" transform="matrix(0.75,0,0,0.75,0,0)">
        
        <g transform="matrix(12.6064,0,0,12.6064,38.8436,3.72756)">
            <path d="M6.005,15.074L6.005,8.292L8.284,8.292L8.626,5.653L6.005,5.653L6.005,3.964C6.005,3.198 6.217,2.681 7.315,2.681L8.709,2.681L8.709,0.309C8.035,0.245 7.352,0.208 6.669,0.208C4.916,0.079 3.393,1.398 3.264,3.152C3.255,3.336 3.255,3.521 3.273,3.696L3.273,5.653L0.994,5.653L0.994,8.292L3.273,8.292L3.273,15.074L6.005,15.074Z" style="fill-rule:nonzero;"/>
        </g>
    </g>
</symbol><symbol id="mozresticons-flag">
    <g id="Artboard1" transform="matrix(0.75,0,0,0.75,0,0)">
        
        <g transform="matrix(2.86021,0,0,2.86021,38.5055,2.75289)">
            <path d="M42.874,37.262L42.893,37.217C43.077,36.844 43.02,36.402 42.748,36.087L31.108,23.562L42.77,11.092C43.004,10.861 43.055,10.514 42.901,10.226L42.884,10.189C42.75,9.887 42.425,9.709 42.096,9.756L42.018,9.761L4.979,9.761L4.979,7.808L5.317,7.67C6.847,7.048 7.875,5.59 7.937,3.956C7.932,1.773 6.137,0 3.932,0C1.763,0 0,1.745 0,3.89L0,3.948C0.091,5.593 1.148,7.053 2.693,7.669L3.035,7.805L3.035,67.038C3.035,67.569 3.471,68 4.007,68C4.543,68 4.979,67.569 4.979,67.038L4.979,37.966L41.984,37.966C42.388,37.907 42.728,37.64 42.874,37.262ZM3.932,6.008C2.794,6.008 1.868,5.092 1.868,3.966C1.868,2.839 2.794,1.923 3.932,1.923C5.07,1.923 5.995,2.839 5.995,3.966C5.994,5.091 5.069,6.008 3.932,6.008ZM4.979,36.044L4.979,11.685L39.863,11.685L29.14,23.031C28.792,23.416 28.792,24.011 29.148,24.405L39.839,36.044L4.979,36.044Z" style="fill-rule:nonzero;"/>
        </g>
    </g>
</symbol><symbol id="mozresticons-food">
    <g id="Artboard1" transform="matrix(0.75,0,0,0.75,0,0)">
        
        <g transform="matrix(4.22648,0,0,4.22648,7.01734,7.01607)">
            <path d="M41.379,23.375L42.711,23.375C43.423,23.375 44,23.952 44,24.664C44,25.376 43.423,25.953 42.711,25.953L1.289,25.953C0.577,25.953 0,25.376 0,24.664C0,23.952 0.577,23.375 1.289,23.375L2.622,23.375C3.22,14.358 10.057,7.05 18.572,5.478C18.346,4.987 18.219,4.442 18.219,3.867C18.219,1.735 19.954,0 22.086,0C24.218,0 25.953,1.735 25.953,3.867C25.953,4.443 25.826,4.989 25.6,5.48C34.116,7.063 40.794,14.391 41.379,23.375ZM23.375,3.867C23.375,3.156 22.797,2.578 22.086,2.578C21.375,2.578 20.797,3.156 20.797,3.867C20.797,4.578 21.375,5.156 22.086,5.156C22.797,5.156 23.375,4.578 23.375,3.867ZM22.086,7.717C13.342,7.717 5.891,14.773 5.207,23.375L38.795,23.375C38.142,14.64 30.897,7.717 22.086,7.717ZM34.82,29.665C36.328,28.157 38.781,28.157 40.289,29.665C41.797,31.172 41.797,33.626 40.289,35.133L32.555,42.868C31.824,43.598 30.853,44.001 29.82,44.001L3.867,44.001C3.155,44.001 2.578,43.423 2.578,42.712L2.578,32.399C2.578,31.687 3.155,31.11 3.867,31.11L8.828,31.11C10.356,29.361 12.432,28.282 14.739,28.051C17.225,27.802 19.727,28.606 21.602,30.256C21.686,30.33 21.764,30.401 21.837,30.467C22.283,30.87 22.549,31.11 23.059,31.11L27.242,31.11C28.898,31.11 30.313,32.156 30.864,33.622L34.82,29.665ZM5.156,41.423L7.906,41.423L7.906,33.688L5.156,33.688L5.156,41.423ZM30.732,41.045L38.466,33.31C38.969,32.808 38.969,31.99 38.466,31.488C37.963,30.985 37.146,30.985 36.643,31.488L29.664,38.467C29.423,38.709 29.095,38.844 28.753,38.844L21.976,38.844C21.564,38.844 21.173,39.044 20.932,39.378C20.514,39.955 19.708,40.084 19.132,39.667C18.555,39.25 18.425,38.444 18.843,37.867C19.568,36.865 20.739,36.266 21.976,36.266L27.242,36.266C27.953,36.266 28.531,35.688 28.531,34.977C28.531,34.266 27.953,33.688 27.242,33.688L23.059,33.688C21.561,33.688 20.71,32.922 20.077,32.35C20.015,32.295 19.956,32.242 19.899,32.191C18.56,31.013 16.772,30.439 14.996,30.617C13.202,30.796 11.602,31.698 10.484,33.156L10.484,41.423L29.82,41.423C30.159,41.423 30.492,41.285 30.732,41.045Z"/>
        </g>
    </g>
</symbol><symbol id="mozresticons-fork">
    <g id="Artboard1" transform="matrix(0.75,0,0,0.75,0,0)">
        
        <g transform="matrix(3.17831,0,0,3.17831,-135.194,-126.476)">
            <path d="M68.567,71.161L68.736,71.312L68.565,71.461C63.146,76.169 51.334,85.82 47.32,89.09C45.971,90.19 45.2,91.806 45.2,93.523C45.2,96.711 47.863,99.313 51.148,99.313C52.915,99.313 54.576,98.559 55.703,97.246L55.703,97.246C59.073,93.319 69.039,81.738 73.852,76.486L73.999,76.325L74.146,76.486C78.81,81.573 88.256,92.538 92.293,97.241L92.293,97.241C93.421,98.557 95.083,99.313 96.852,99.313C100.136,99.313 102.799,96.711 102.799,93.523C102.799,91.804 102.027,90.188 100.677,89.088C95.979,85.261 85.056,76.328 79.696,71.686L79.492,71.509L79.721,71.365C81.056,70.526 82.374,69.863 83.489,69.408C84.596,68.958 85.528,68.702 86.083,68.702C86.249,68.702 86.49,68.631 86.816,68.459C87.138,68.288 87.524,68.03 87.975,67.679C88.877,66.978 90.023,65.923 91.411,64.512C94.186,61.691 97.914,57.466 102.577,51.854L102.577,51.854C102.899,51.467 102.869,50.905 102.506,50.552L102.506,50.552L95.256,43.488C94.891,43.132 94.305,43.103 93.906,43.419L93.905,43.419C88.145,47.962 83.809,51.595 80.914,54.299C79.467,55.651 78.384,56.767 77.664,57.647C77.304,58.086 77.039,58.462 76.865,58.775C76.688,59.093 76.616,59.325 76.616,59.483C76.616,59.961 76.413,60.719 76.055,61.619C75.693,62.527 75.165,63.602 74.494,64.722L74.254,65.124L74.13,64.672C73.833,63.589 73.8,62.636 73.8,61.838C73.8,61.72 73.749,61.549 73.624,61.321C73.5,61.096 73.315,60.834 73.072,60.538C72.585,59.945 71.88,59.235 71.014,58.444C69.282,56.862 66.923,54.974 64.421,53.082C59.417,49.298 53.859,45.515 51.64,44.174L51.64,44.174C50.322,43.376 48.728,43.339 47.371,44.074C46.009,44.812 45.2,46.158 45.2,47.677C45.2,48.891 45.741,50.032 46.688,50.81L46.688,50.81C48.652,52.425 52.976,56.529 57.543,60.864C61.536,64.653 65.638,68.545 68.567,71.161ZM71.75,61.935L71.783,61.985L71.783,62.044C71.786,63.245 71.893,64.936 72.866,66.925L72.92,67.037L72.844,67.135C72.244,67.914 71.594,68.683 70.868,69.39C70.744,69.511 70.575,69.667 70.409,69.82L70.362,69.863L70.229,69.986L70.094,69.865C67.18,67.272 63.009,63.317 58.954,59.467C54.348,55.096 50.008,50.977 47.993,49.319C47.499,48.914 47.217,48.315 47.217,47.677C47.217,46.876 47.645,46.165 48.356,45.779L48.356,45.779C49.059,45.399 49.889,45.422 50.572,45.832L50.573,45.832C54.265,48.064 59.232,51.596 63.434,54.81C65.535,56.417 67.447,57.947 68.913,59.196C69.647,59.821 70.27,60.377 70.751,60.838C71.228,61.296 71.578,61.672 71.75,61.935ZM77.691,72.783L77.821,72.682L77.946,72.79C83.17,77.343 94.55,86.649 99.379,90.585C100.27,91.31 100.783,92.381 100.783,93.523C100.783,95.643 99.015,97.358 96.852,97.358C95.687,97.358 94.589,96.862 93.843,95.991C89.748,91.222 80.12,80.045 75.491,75.01L75.362,74.871L75.495,74.735C75.525,74.704 75.557,74.672 75.588,74.639C75.707,74.517 75.828,74.393 75.923,74.3C76.483,73.754 77.083,73.256 77.691,72.783ZM54.153,95.995L54.153,95.995C53.408,96.863 52.312,97.359 51.148,97.359C48.984,97.359 47.216,95.643 47.216,93.523C47.216,92.382 47.728,91.313 48.617,90.587L48.618,90.587C54.755,85.587 69.326,73.663 72.298,70.768C74.111,69.001 75.698,66.775 76.832,64.685C77.97,62.585 78.633,60.657 78.633,59.483L78.633,59.441L78.65,59.403C78.73,59.22 78.929,58.963 79.202,58.658C79.481,58.346 79.858,57.961 80.315,57.518C81.229,56.632 82.474,55.504 83.932,54.23C86.849,51.682 90.626,48.548 94.333,45.604L94.471,45.494L94.597,45.617L95.389,46.389L95.536,46.532L95.389,46.675L84.16,57.616C83.768,57.998 83.768,58.613 84.16,58.995C84.357,59.186 84.615,59.283 84.875,59.283C85.134,59.283 85.393,59.186 85.589,58.995L96.818,48.054L96.958,47.918L97.097,48.054L97.805,48.743L97.952,48.887L97.805,49.03L86.576,59.971C86.185,60.352 86.185,60.968 86.576,61.349C86.773,61.541 87.031,61.638 87.291,61.638C87.551,61.638 87.809,61.541 88.006,61.349L99.235,50.408L99.375,50.272L99.514,50.408L100.306,51.18L100.439,51.309L100.32,51.451C97.298,55.063 94.08,58.744 91.438,61.591C90.117,63.014 88.939,64.23 88,65.125C87.531,65.573 87.12,65.942 86.779,66.217C86.445,66.488 86.161,66.683 85.95,66.763L85.915,66.776L85.879,66.776C85.868,66.776 85.858,66.775 85.853,66.775L85.842,66.775C85.29,66.775 84.532,66.933 83.638,67.235C82.748,67.535 81.736,67.974 80.68,68.524C78.569,69.624 76.297,71.164 74.493,72.922C71.522,75.817 59.285,90.016 54.153,95.995Z" style="fill-rule:nonzero;"/>
        </g>
    </g>
</symbol><symbol id="mozresticons-group">
    <g id="Artboard1" transform="matrix(0.75,0,0,0.75,0,0)">
        
        <g transform="matrix(2.22346,0,0,2.32036,6.61421,18.7873)">
            <path d="M49.449,48.008C49.177,47.932 48.889,47.978 48.652,48.135C46.675,49.452 44.372,50.145 41.997,50.145C39.621,50.145 37.321,49.449 35.342,48.135C35.18,48.029 34.994,47.972 34.806,47.972C34.719,47.972 34.631,47.983 34.544,48.008C31.662,48.815 29.233,50.549 27.52,53.022C25.85,55.431 24.967,58.378 24.967,61.548L24.967,69.022C24.967,69.561 25.403,70 25.939,70L58.06,70C58.596,70 59.03,69.561 59.03,69.022L59.03,61.548C59.03,58.378 58.146,55.431 56.474,53.022C54.763,50.551 52.334,48.818 49.449,48.008ZM57.088,68.047L26.909,68.047L26.909,61.548C26.909,56.138 29.89,51.63 34.504,50.064L34.657,50.012L34.798,50.096C36.968,51.405 39.46,52.098 41.997,52.098C44.534,52.098 47.025,51.405 49.196,50.096L49.336,50.012L49.49,50.064C54.103,51.63 57.085,56.138 57.085,61.548L57.085,68.047L57.088,68.047Z" style="fill-rule:nonzero;"/>
            <path d="M28.665,46.602C29.209,46.23 29.786,45.886 30.381,45.578C28.792,43.852 26.761,42.606 24.483,41.966C24.213,41.89 23.922,41.937 23.685,42.091C21.706,43.405 19.406,44.101 17.033,44.101C14.657,44.101 12.357,43.405 10.377,42.088C10.216,41.983 10.03,41.926 9.844,41.926C9.755,41.926 9.669,41.937 9.583,41.961C6.701,42.771 4.272,44.505 2.556,46.975C0.883,49.392 0,52.339 0,55.506L0,62.981C0,63.52 0.436,63.959 0.972,63.959L21.183,63.959L21.183,62.005L1.942,62.005L1.942,55.509C1.942,50.096 4.923,45.588 9.537,44.025L9.691,43.974L9.831,44.058C12.004,45.369 14.493,46.06 17.03,46.06C19.567,46.06 22.056,45.369 24.229,44.058L24.369,43.974L24.523,44.025C26.101,44.556 27.491,45.423 28.665,46.602ZM84.001,62.981L84.001,55.506C84.001,52.339 83.117,49.389 81.445,46.981C79.732,44.51 77.3,42.776 74.418,41.966C74.146,41.891 73.857,41.934 73.62,42.091C71.644,43.408 69.341,44.104 66.965,44.104C64.59,44.104 62.289,43.408 60.31,42.094C60.073,41.939 59.785,41.893 59.513,41.969C57.234,42.608 55.203,43.852 53.614,45.578C54.207,45.884 54.781,46.228 55.33,46.602C56.504,45.426 57.894,44.559 59.47,44.023L59.623,43.971L59.763,44.055C61.937,45.364 64.425,46.057 66.963,46.057C69.5,46.057 71.991,45.364 74.162,44.055L74.302,43.971L74.455,44.023C79.069,45.588 82.051,50.096 82.051,55.506L82.051,62.003L62.812,62.003L62.812,63.956L83.02,63.956C83.564,63.959 84.001,63.52 84.001,62.981ZM42,26.712C36.201,26.712 31.482,31.455 31.482,37.288C31.482,43.121 36.201,47.867 42,47.867C47.799,47.867 52.517,43.121 52.517,37.288C52.517,31.458 47.799,26.712 42,26.712ZM42,45.914C37.27,45.914 33.424,42.045 33.424,37.288C33.424,32.533 37.27,28.665 42,28.665C46.729,28.665 50.576,32.533 50.576,37.288C50.576,42.045 46.727,45.914 42,45.914ZM66.968,20.67C61.169,20.67 56.45,25.414 56.45,31.247C56.45,37.079 61.169,41.826 66.968,41.826C72.766,41.826 77.485,37.079 77.485,31.247C77.485,25.417 72.766,20.67 66.968,20.67ZM17.032,20.67C11.233,20.67 6.515,25.414 6.515,31.247C6.515,37.079 11.233,41.826 17.032,41.826C22.831,41.826 27.55,37.079 27.55,31.247C27.55,25.417 22.831,20.67 17.032,20.67ZM66.968,39.872C62.241,39.872 58.392,36.004 58.392,31.249C58.392,26.495 62.238,22.626 66.968,22.626C71.697,22.626 75.543,26.495 75.543,31.249C75.543,36.004 71.695,39.872 66.968,39.872ZM17.032,39.872C12.303,39.872 8.457,36.004 8.457,31.249C8.457,26.495 12.303,22.626 17.032,22.626C21.759,22.626 25.608,26.495 25.608,31.249C25.605,36.004 21.759,39.872 17.032,39.872ZM30.044,0C24.242,0 19.523,4.746 19.523,10.579C19.523,16.412 24.242,21.158 30.041,21.158C35.84,21.158 40.558,16.412 40.558,10.579C40.558,4.746 35.842,0 30.044,0ZM53.956,0C48.157,0 43.439,4.746 43.439,10.579C43.439,16.412 48.157,21.158 53.956,21.158C59.755,21.158 64.474,16.412 64.474,10.579C64.474,4.746 59.755,0 53.956,0ZM30.044,19.202C25.317,19.202 21.468,15.333 21.468,10.576C21.468,5.822 25.314,1.953 30.044,1.953C34.771,1.953 38.619,5.822 38.619,10.576C38.617,15.333 34.771,19.202 30.044,19.202ZM53.956,19.202C49.229,19.202 45.38,15.333 45.38,10.576C45.38,5.822 49.227,1.953 53.956,1.953C58.685,1.953 62.532,5.822 62.532,10.576C62.532,15.333 58.683,19.202 53.956,19.202Z" style="fill-rule:nonzero;"/>
        </g>
    </g>
</symbol><symbol id="mozresticons-grow">
    <g id="Artboard1" transform="matrix(0.75,0,0,0.75,0,0)">
        
        <g transform="matrix(3.30352,0,0,3.30352,-147.76,-124.642)">
            <path d="M93.221,47.799C93.221,48.438 93.349,49.048 93.582,49.606L85.533,55.072C84.661,54.28 83.494,53.794 82.215,53.794C80.329,53.794 78.69,54.847 77.874,56.386L72.181,54.907C72.184,54.843 72.185,54.78 72.185,54.716C72.185,52.071 69.992,49.918 67.297,49.918C64.601,49.918 62.408,52.071 62.408,54.716C62.408,55.328 62.525,55.913 62.739,56.452L55.262,61.363C54.384,60.541 53.195,60.035 51.889,60.035C49.193,60.035 47,62.187 47,64.832C47,67.477 49.193,69.63 51.889,69.63C54.585,69.63 56.778,67.477 56.777,64.832C56.777,64.22 56.66,63.634 56.446,63.095L63.923,58.184C64.801,59.007 65.99,59.513 67.297,59.513C69.181,59.513 70.821,58.46 71.636,56.923L77.33,58.402C77.327,58.465 77.326,58.528 77.326,58.592C77.326,61.237 79.519,63.389 82.215,63.389C84.91,63.389 87.103,61.237 87.103,58.592C87.103,57.954 86.975,57.344 86.744,56.787L94.793,51.32C95.665,52.112 96.831,52.596 98.11,52.596C100.807,52.596 102.998,50.443 102.998,47.797C102.998,45.152 100.805,43 98.11,43C95.415,43 93.221,45.154 93.221,47.799ZM95.347,47.797C95.347,46.302 96.586,45.086 98.11,45.086C99.634,45.086 100.874,46.302 100.873,47.797C100.873,49.293 99.634,50.509 98.11,50.509C96.586,50.509 95.347,49.293 95.347,47.797ZM64.533,54.714C64.533,53.219 65.773,52.003 67.297,52.003C68.82,52.003 70.06,53.219 70.06,54.714C70.06,56.21 68.82,57.426 67.297,57.426C65.773,57.426 64.533,56.21 64.533,54.714ZM49.125,64.831C49.125,63.336 50.365,62.119 51.889,62.119C53.412,62.119 54.653,63.336 54.652,64.831C54.652,66.326 53.412,67.543 51.889,67.543C50.365,67.543 49.125,66.326 49.125,64.831ZM82.215,55.879C80.691,55.879 79.452,57.095 79.452,58.59C79.452,60.086 80.691,61.302 82.215,61.302C83.738,61.302 84.978,60.086 84.978,58.59C84.978,57.096 83.738,55.879 82.215,55.879ZM50.826,80.647L52.952,80.647L52.952,93.001L50.826,93.001L50.826,80.647ZM60.656,75.447L58.531,75.447L58.531,93L60.656,93L60.656,75.447ZM66.234,66.01L68.359,66.01L68.359,93L66.234,93L66.234,66.01ZM76.063,70.389L73.938,70.389L73.938,93.002L76.063,93.002L76.063,70.389ZM81.641,76.291L83.766,76.291L83.766,93L81.641,93L81.641,76.291ZM91.47,68.587L89.344,68.587L89.344,93.002L91.47,93.002L91.47,68.587ZM97.047,59.689L99.173,59.689L99.173,93.002L97.047,93.002L97.047,59.689Z"/>
        </g>
    </g>
</symbol><symbol id="mozresticons-hands">
    <g id="Artboard1" transform="matrix(0.75,0,0,0.75,0,0)">
        
        <g transform="matrix(1.96901,0,0,1.96901,3.51871,45.8523)">
            <path d="M97.939,30.317L86.094,0.534C85.963,0.203 85.642,0 85.304,0C85.203,0 85.101,0.018 85.001,0.057L72.354,4.952C72.145,5.034 71.974,5.199 71.883,5.405C71.792,5.613 71.788,5.845 71.87,6.058L72.912,8.72L66.259,10.517L57.607,7.596C53.988,6.376 50.024,6.498 46.444,7.944L46.098,8.084L45.801,7.857C45.072,7.299 44.197,6.942 43.199,6.791C41.597,6.549 39.86,6.901 38.306,7.783L30.762,12.059L26.827,10.117L28.248,7.274C28.348,7.072 28.365,6.835 28.292,6.622C28.22,6.405 28.068,6.231 27.864,6.129L15.71,0.12C15.296,-0.084 14.789,0.084 14.58,0.499L0.092,29.099C-0.12,29.517 0.047,30.03 0.462,30.243L12.698,36.492C12.896,36.593 13.134,36.612 13.348,36.542C13.563,36.471 13.737,36.319 13.84,36.114L15.088,33.615L20.221,36.824L20.098,37.294C19.965,37.798 19.939,38.308 20.016,38.81C20.167,39.774 20.68,40.625 21.46,41.212L22.568,42.015C23.2,42.473 23.945,42.718 24.726,42.725C24.743,42.724 24.759,42.724 24.776,42.724L25.397,42.724L25.432,43.346C25.446,43.605 25.46,43.817 25.502,44.015C25.732,45.08 26.349,45.979 27.238,46.549C27.868,46.953 28.604,47.167 29.365,47.167C29.386,47.165 29.411,47.159 29.436,47.155C29.493,47.144 29.566,47.132 29.648,47.126L30.3,47.081L30.349,47.735C30.353,47.795 30.354,47.854 30.354,47.913C30.354,47.942 30.354,47.983 30.355,47.996C30.5,49.045 31.035,49.967 31.861,50.59C32.533,51.097 33.342,51.366 34.202,51.366C34.575,51.366 34.992,51.289 35.472,51.135L36.049,50.949L36.281,51.509C36.574,52.219 37.045,52.834 37.645,53.286C38.383,53.843 39.279,54.15 40.169,54.15C41.281,54.15 42.276,53.681 42.898,52.863L44.106,51.277L44.632,51.711C46.121,52.939 49.048,55 51.929,55C52.298,55 52.658,54.966 52.999,54.898C54.66,54.575 55.99,53.496 56.951,51.694L57.184,51.26L57.665,51.36C58.116,51.455 58.486,51.499 58.829,51.499L58.85,51.499C61.039,51.491 63.009,50.143 64.704,47.491L64.953,47.102L65.402,47.205C65.912,47.321 66.325,47.375 66.702,47.375C66.803,47.375 66.915,47.371 67.033,47.365C69.216,47.227 71.056,45.735 72.497,42.931L72.722,42.494L73.203,42.585C73.433,42.629 73.692,42.677 73.918,42.687C73.978,42.689 74.035,42.689 74.09,42.689C75.325,42.689 76.413,42.162 77.24,41.164C78.61,39.507 79.232,37.881 79.086,36.329C79.055,35.993 78.985,35.655 78.878,35.327L78.672,34.687L82.607,33.497L83.614,36.071C83.696,36.281 83.86,36.452 84.066,36.541C84.274,36.632 84.509,36.634 84.718,36.55L97.468,31.421C97.901,31.247 98.113,30.752 97.939,30.317ZM12.707,34.587L1.988,29.112L15.711,2.018L26.349,7.277L12.707,34.587ZM26.417,40.191C26.019,40.736 25.396,41.024 24.764,41.024C24.346,41.024 23.924,40.899 23.562,40.635L22.504,39.869C22.065,39.551 21.776,39.081 21.692,38.546C21.608,38.013 21.738,37.481 22.057,37.044C22.441,36.522 23.058,36.209 23.709,36.209C24.145,36.209 24.562,36.344 24.914,36.6L25.97,37.365C26.411,37.684 26.698,38.155 26.782,38.689C26.866,39.222 26.736,39.755 26.417,40.191ZM31.688,44.148C31.141,44.994 30.246,45.468 29.374,45.468C28.945,45.468 28.525,45.354 28.15,45.115C27.827,44.908 27.604,44.654 27.449,44.395C27.294,44.136 27.207,43.875 27.16,43.658C27.007,42.947 27.16,42.171 27.576,41.527L28.429,40.211C28.955,39.394 29.84,38.887 30.739,38.887C31.179,38.887 31.603,39.01 31.965,39.242C32.613,39.658 32.861,40.265 32.956,40.7C33.108,41.411 32.957,42.187 32.539,42.83L31.688,44.148ZM36.245,48.627C35.73,49.304 34.96,49.667 34.207,49.667C33.737,49.667 33.271,49.525 32.88,49.23C32.417,48.88 32.116,48.361 32.035,47.764C31.944,47.098 32.128,46.421 32.555,45.861L35.416,42.105C35.911,41.453 36.674,41.064 37.452,41.064C37.94,41.064 38.4,41.217 38.781,41.505C39.244,41.853 39.544,42.374 39.625,42.969C39.717,43.635 39.532,44.312 39.106,44.873L36.245,48.627ZM43.822,48.849L41.551,51.83C41.235,52.246 40.729,52.457 40.178,52.457C39.675,52.457 39.135,52.281 38.663,51.926L38.663,51.925C38.127,51.52 37.772,50.945 37.691,50.35C37.629,49.903 37.731,49.478 37.98,49.152L40.251,46.172C40.553,45.774 41.052,45.545 41.621,45.545C42.147,45.545 42.686,45.733 43.138,46.074C43.675,46.481 44.03,47.054 44.111,47.651C44.173,48.103 44.073,48.518 43.822,48.849ZM75.935,40.076C75.434,40.683 74.82,40.989 74.111,40.989C74.065,40.989 74.019,40.987 73.972,40.985C70.236,40.844 64.401,33.725 62.469,30.995C62.338,30.808 62.143,30.686 61.92,30.648C61.697,30.609 61.472,30.662 61.288,30.793C60.907,31.065 60.816,31.597 61.087,31.979C61.582,32.682 66.062,38.914 70.608,41.55L71.162,41.87L70.856,42.436C69.745,44.483 68.423,45.57 66.927,45.665C66.849,45.671 66.772,45.672 66.693,45.672C62.037,45.673 56.757,37.216 56.703,37.129C56.583,36.934 56.397,36.799 56.177,36.748C55.957,36.695 55.729,36.733 55.536,36.852C55.139,37.1 55.016,37.625 55.262,38.023C55.612,38.594 58.811,43.672 62.774,46.099L63.372,46.466L62.97,47.041C61.697,48.863 60.31,49.791 58.846,49.797L58.829,49.797C54.823,49.797 51.059,43.383 51.021,43.317C50.907,43.121 50.723,42.98 50.503,42.921C50.285,42.863 50.059,42.895 49.865,43.009C49.667,43.123 49.527,43.307 49.469,43.526C49.411,43.746 49.441,43.974 49.554,44.171C49.794,44.585 51.978,48.273 55.084,50.26L55.62,50.604L55.296,51.153C54.603,52.325 53.724,53.023 52.681,53.227C52.435,53.276 52.182,53.298 51.928,53.298C49.487,53.298 46.73,51.239 45.583,50.281L45.168,49.936L45.424,49.461C45.762,48.835 45.888,48.13 45.791,47.419C45.648,46.375 45.052,45.39 44.156,44.714C43.504,44.222 42.733,43.931 41.927,43.87L41.331,43.826L41.32,43.225C41.319,43.172 41.319,43.118 41.319,43.064C41.318,42.944 41.318,42.832 41.304,42.737C41.161,41.688 40.626,40.767 39.8,40.143C38.525,39.182 36.77,39.108 35.328,39.955L34.676,40.337L34.388,39.637C34.076,38.873 33.553,38.241 32.879,37.808C31.722,37.067 30.248,36.99 28.933,37.601L28.362,37.866L28.073,37.306C27.794,36.762 27.421,36.318 26.962,35.986L25.906,35.219C24.629,34.294 22.889,34.286 21.577,35.198L21.221,35.444L15.852,32.087L26.068,11.638L30.415,13.784C30.663,13.907 30.964,13.899 31.206,13.762L39.139,9.266C40.371,8.568 41.724,8.287 42.947,8.473L42.977,8.478L44.542,8.741L43.227,9.667C40.852,11.339 39.082,13.557 38.107,16.084C36.354,20.63 38.378,23.029 39.693,23.664C41.194,24.367 42.609,24.459 43.895,23.936C45.927,23.108 47.109,20.945 47.744,19.276C48.023,18.536 48.581,17.949 49.313,17.622C50.129,17.255 51.058,17.272 51.863,17.669L61.013,22.186C64.764,24.037 68.145,26.499 71.062,29.504C72.547,31.032 74.166,32.525 75.874,33.94C76.798,34.707 77.311,35.564 77.399,36.489C77.5,37.573 77.007,38.781 75.935,40.076ZM77.583,33.239L77.307,32.976C77.249,32.922 77.194,32.865 77.14,32.808C77.073,32.739 77.014,32.678 76.953,32.628C75.294,31.252 73.719,29.801 72.276,28.315C69.224,25.172 65.686,22.597 61.762,20.659L52.611,16.142C51.353,15.522 49.9,15.495 48.621,16.067C47.475,16.58 46.602,17.504 46.159,18.669C45.645,20.023 44.725,21.76 43.259,22.358C42.425,22.697 41.482,22.623 40.454,22.143L40.415,22.123C40.177,21.991 38.138,20.721 39.688,16.698C40.664,14.169 42.6,11.952 45.139,10.455C48.748,8.324 53.094,7.87 57.066,9.209L65.961,12.212C66.12,12.266 66.289,12.271 66.451,12.228L73.535,10.314L81.985,31.907L77.583,33.239ZM84.88,34.651L73.761,6.233L84.83,1.947L96.051,30.158L84.88,34.651Z" style="fill-rule:nonzero;"/>
        </g>
    </g>
</symbol><symbol id="mozresticons-instagram">
    <g id="Artboard1" transform="matrix(0.75,0,0,0.75,0,0)">
        
        <g transform="matrix(9.22374,0,0,9.22374,2.22969,-0.00208056)">
            <path d="M14.863,0.691L6.346,0.691C3.088,0.691 0.449,3.33 0.449,6.588L0.449,15.096C0.449,18.353 3.088,20.993 6.346,20.993L14.854,20.993C18.112,20.993 20.751,18.353 20.751,15.096L20.751,6.588C20.76,3.33 18.121,0.691 14.863,0.691ZM19.173,15.105C19.173,17.486 17.244,19.415 14.863,19.415L6.346,19.415C3.965,19.415 2.036,17.486 2.036,15.105L2.036,6.588C2.036,4.207 3.965,2.278 6.346,2.278L14.854,2.278C17.235,2.278 19.164,4.207 19.164,6.588L19.164,15.105L19.173,15.105ZM10.603,5.373C7.585,5.373 5.131,7.828 5.131,10.845C5.131,13.872 7.585,16.317 10.603,16.317C13.63,16.317 16.075,13.863 16.075,10.845C16.075,7.828 13.63,5.373 10.603,5.373ZM10.603,14.74C8.453,14.74 6.718,12.995 6.718,10.855C6.718,8.704 8.462,6.97 10.603,6.97C12.753,6.97 14.488,8.714 14.488,10.855C14.488,12.995 12.753,14.73 10.603,14.74ZM16.405,5.831C16.766,5.831 17.06,5.538 17.06,5.176C17.06,4.814 16.766,4.521 16.405,4.521C16.043,4.521 15.749,4.814 15.749,5.176C15.749,5.538 16.043,5.831 16.405,5.831Z" style="fill-rule:nonzero;"/>
        </g>
    </g>
</symbol><symbol id="mozresticons-linked-in">
    <g id="Artboard1" transform="matrix(0.75,0,0,0.75,0,0)">
        
        <g transform="matrix(11.4402,0,0,11.4402,1.52186,8.39949)">
            <path d="M0.865,5.323L4.185,5.323L4.185,16.014L0.865,16.014L0.865,5.323ZM16.611,16.013L16.615,16.012L16.615,10.139C16.615,7.266 15.996,5.053 12.637,5.053C11.023,5.053 9.939,5.939 9.497,6.779L9.45,6.779L9.45,5.321L6.266,5.321L6.266,16.012L9.582,16.012L9.582,10.718C9.582,9.325 9.846,7.977 11.572,7.977C13.273,7.977 13.298,9.568 13.298,10.808L13.298,16.013L16.611,16.013ZM2.524,0C1.463,0 0.602,0.861 0.602,1.923C0.602,2.984 1.463,3.864 2.524,3.864C3.586,3.864 4.447,2.984 4.447,1.923C4.447,0.861 3.585,0 2.524,0Z" style="fill-rule:nonzero;"/>
        </g>
    </g>
</symbol><symbol id="mozresticons-location-o">
    <g id="Artboard1" transform="matrix(0.75,0,0,0.75,0,0)">
        
        <g transform="matrix(3.12525,0,0,3.12525,-131.269,-121.697)">
            <path d="M72.841,101.534L72.756,101.534L72.459,101.212C72.032,100.748 66.66,94.875 61.401,87.205C58.761,83.354 56.164,79.072 54.23,74.809C52.248,70.442 51,66.164 51,62.411C51,50.087 61.286,40 74,40C86.715,40 97,50.087 97.001,62.411C97.001,66.164 95.753,70.442 93.771,74.809C91.836,79.072 89.24,83.354 86.6,87.205C81.341,94.875 75.969,100.748 75.541,101.212L75.244,101.534L75.159,101.534C74.465,101.988 73.536,101.989 72.841,101.534ZM74.084,99.841C74.595,99.287 79.827,93.546 84.95,86.074C87.526,82.317 90.062,78.142 91.95,73.983C93.801,69.903 95.001,65.917 95.001,62.411C95,51.173 85.595,42 74,42C62.405,42 53,51.173 53,62.411C53,65.917 54.2,69.903 56.051,73.983C57.938,78.142 60.474,82.317 63.051,86.074C68.169,93.539 73.395,99.275 73.915,99.84L73.93,99.856C73.967,99.897 74.034,99.896 74.071,99.856L74.084,99.841ZM60.428,62.411C60.428,69.751 66.536,75.686 74,75.686C81.465,75.686 87.572,69.752 87.572,62.411C87.572,55.07 81.465,49.135 74,49.135C66.536,49.135 60.428,55.07 60.428,62.411ZM62.428,62.411C62.428,56.164 67.648,51.135 74,51.135C80.353,51.135 85.572,56.164 85.572,62.411C85.572,68.658 80.353,73.686 74,73.686C67.648,73.686 62.428,68.658 62.428,62.411Z"/>
        </g>
    </g>
</symbol><symbol id="mozresticons-location">
    <g id="Artboard1" transform="matrix(0.75,0,0,0.75,0,0)">
        
        <g transform="matrix(3.12525,0,0,3.12525,-131.269,-121.707)">
            <path d="M73.195,100.534L73.195,100.534C72.771,100.074 67.442,94.247 62.226,86.64C59.618,82.836 57.051,78.607 55.14,74.396C53.224,70.172 52,66.04 52,62.411C52,50.63 61.846,41 74,41C86.155,41 96,50.63 96.001,62.411C96.001,66.04 94.777,70.172 92.86,74.396C90.949,78.607 88.383,82.836 85.775,86.64C80.558,94.247 75.23,100.074 74.806,100.534L74.806,100.534C74.38,100.996 73.621,100.997 73.195,100.534ZM61.428,62.411C61.428,69.205 67.092,74.686 74,74.686C80.909,74.686 86.572,69.205 86.572,62.411C86.572,55.617 80.909,50.135 74,50.135C67.092,50.135 61.428,55.617 61.428,62.411Z" style="fill-rule:nonzero;"/>
        </g>
    </g>
</symbol><symbol id="mozresticons-long-arrow-left">
    <g id="Artboard1" transform="matrix(0.75,0,0,0.75,0,0)">
        
        <g transform="matrix(13.2358,0,0,13.2358,6.16076,45.381)">
            <path d="M0.162,4.493C0.163,4.494 0.163,4.494 0.163,4.494L3.057,7.189C3.274,7.391 3.625,7.39 3.84,7.187C4.056,6.984 4.055,6.656 3.839,6.454L1.895,4.645L13.626,4.645C13.932,4.645 14.18,4.413 14.18,4.127C14.18,3.84 13.932,3.608 13.626,3.608L1.895,3.608L3.839,1.799C4.055,1.597 4.056,1.269 3.84,1.066C3.625,0.863 3.274,0.862 3.057,1.064L0.163,3.759C0.163,3.759 0.163,3.76 0.162,3.76C-0.055,3.962 -0.054,4.292 0.162,4.493Z" style="fill-rule:nonzero;"/>
        </g>
    </g>
</symbol><symbol id="mozresticons-long-arrow-right">
    <g id="Artboard1" transform="matrix(0.75,0,0,0.75,0,0)">
        
        <g transform="matrix(-13.2358,0,0,13.2358,193.839,45.381)">
            <path d="M0.162,4.493C0.163,4.494 0.163,4.494 0.163,4.494L3.057,7.189C3.274,7.391 3.625,7.39 3.84,7.187C4.056,6.984 4.055,6.656 3.839,6.454L1.895,4.645L13.626,4.645C13.932,4.645 14.18,4.413 14.18,4.127C14.18,3.84 13.932,3.608 13.626,3.608L1.895,3.608L3.839,1.799C4.055,1.597 4.056,1.269 3.84,1.066C3.625,0.863 3.274,0.862 3.057,1.064L0.163,3.759C0.163,3.759 0.163,3.76 0.162,3.76C-0.055,3.962 -0.054,4.292 0.162,4.493Z" style="fill-rule:nonzero;"/>
        </g>
    </g>
</symbol><symbol id="mozresticons-magnet">
    <g id="Artboard1" transform="matrix(0.75,0,0,0.75,0,0)">
        
        <g transform="matrix(2.77656,0,0,2.77656,29.1978,4.20874)">
            <path d="M0.889,16.396C0.399,16.396 0,16.795 0,17.284L0,43.518C0,57.569 11.439,69 25.5,69C39.561,69 51,57.569 51,43.518L51,17.284C51,16.795 50.601,16.396 50.111,16.396L36.438,16.396C35.949,16.396 35.55,16.795 35.55,17.284L35.55,43.518C35.55,49.056 31.042,53.56 25.5,53.56C19.958,53.56 15.45,49.056 15.45,43.518L15.45,17.284C15.45,16.795 15.051,16.396 14.562,16.396L0.889,16.396ZM25.5,55.337C32.022,55.337 37.327,50.035 37.327,43.518L37.327,30.743L49.222,30.743L49.222,43.518C49.222,56.59 38.581,67.224 25.5,67.224C12.419,67.224 1.777,56.59 1.777,43.518L1.777,30.743L13.673,30.743L13.673,43.518C13.673,50.035 18.978,55.337 25.5,55.337ZM1.777,18.172L13.673,18.172L13.673,28.966L1.777,28.966L1.777,18.172ZM37.327,18.172L49.222,18.172L49.222,28.966L37.327,28.966L37.327,18.172ZM5.96,12.614C6.173,12.721 6.414,12.737 6.64,12.662C6.865,12.587 7.047,12.428 7.152,12.216L9.887,6.751C10.025,6.474 10.011,6.151 9.849,5.888C9.686,5.624 9.403,5.465 9.092,5.465L5.062,5.465L7.154,1.286C7.372,0.847 7.195,0.313 6.756,0.094C6.63,0.031 6.495,0 6.359,0C6.265,0 6.169,0.015 6.078,0.046C5.852,0.122 5.67,0.28 5.563,0.492L2.829,5.957C2.691,6.235 2.704,6.557 2.867,6.821C3.03,7.084 3.313,7.242 3.623,7.242L7.654,7.242L5.563,11.423C5.457,11.634 5.44,11.876 5.516,12.1C5.589,12.326 5.748,12.507 5.96,12.614ZM42.877,12.614C43.09,12.721 43.331,12.737 43.556,12.662C43.782,12.587 43.964,12.428 44.069,12.216L46.804,6.751C46.942,6.474 46.928,6.151 46.765,5.888C46.603,5.624 46.32,5.467 46.009,5.467L41.979,5.467L44.071,1.287C44.289,0.848 44.112,0.314 43.673,0.096C43.547,0.031 43.411,0 43.275,0C43.18,0 43.085,0.015 42.993,0.046C42.768,0.122 42.586,0.28 42.479,0.492L39.744,5.957C39.606,6.235 39.62,6.557 39.783,6.821C39.945,7.084 40.228,7.242 40.539,7.242L44.57,7.242L42.478,11.421C42.371,11.633 42.355,11.875 42.43,12.099C42.506,12.326 42.665,12.507 42.877,12.614Z" style="fill-rule:nonzero;"/>
        </g>
    </g>
</symbol><symbol id="mozresticons-mobile">
    <g id="Artboard1" transform="matrix(0.75,0,0,0.75,0,0)">
        
        <g transform="matrix(2.4947,0,0,2.4947,-97.0584,-65.8663)">
            <path d="M59.097,38.718L89.438,38.718C91.695,38.718 93.533,40.509 93.533,42.71L93.533,100.984C93.533,103.184 91.695,104.975 89.436,104.975L59.097,104.975C56.838,104.975 55,103.184 55,100.983L55,42.71C55,40.509 56.838,38.718 59.097,38.718ZM57.267,93.932L57.267,100.984C57.267,101.966 58.087,102.767 59.097,102.767L89.438,102.767C90.446,102.767 91.267,101.966 91.267,100.983L91.266,93.932L57.267,93.932ZM72.86,95.237L75.674,95.237C77.291,95.237 78.6,96.519 78.6,98.083L78.6,98.617C78.6,100.181 77.292,101.462 75.673,101.462L72.859,101.462C71.242,101.462 69.933,100.181 69.933,98.617L69.933,98.083C69.933,96.519 71.242,95.237 72.86,95.237ZM75.674,99.653C76.254,99.653 76.733,99.193 76.733,98.617L76.733,98.083C76.733,97.505 76.254,97.045 75.673,97.045L72.86,97.045C72.28,97.045 71.8,97.505 71.8,98.083L71.8,98.617C71.8,99.194 72.28,99.653 72.86,99.653L75.674,99.653ZM57.267,91.724L57.267,47.552L91.267,47.552L91.267,91.724L57.267,91.724ZM91.266,45.344L57.267,45.344L57.267,42.71C57.267,41.727 58.087,40.927 59.097,40.927L89.436,40.927C90.446,40.927 91.266,41.727 91.266,42.71L91.266,45.344ZM68.6,42.232L79.933,42.232C80.453,42.232 80.867,42.642 80.867,43.136C80.867,43.63 80.453,44.04 79.933,44.04L68.6,44.04C68.08,44.04 67.667,43.63 67.667,43.136C67.667,42.642 68.08,42.232 68.6,42.232ZM86.734,42.232L87.867,42.232C88.387,42.232 88.801,42.642 88.801,43.136C88.801,43.63 88.387,44.04 87.867,44.04L86.734,44.04C86.214,44.04 85.801,43.63 85.801,43.136C85.801,42.642 86.214,42.232 86.734,42.232ZM89.68,34.719C91.283,34.982 92.739,35.721 93.902,36.854C95.064,37.986 95.817,39.405 96.092,40.967C96.159,41.361 96.508,41.635 96.906,41.635C96.955,41.635 96.998,41.629 97.047,41.623C97.499,41.551 97.799,41.134 97.726,40.693C97.395,38.803 96.478,37.08 95.076,35.715C93.675,34.35 91.907,33.455 89.968,33.134C89.515,33.062 89.093,33.354 89.013,33.789C88.933,34.225 89.227,34.648 89.68,34.719ZM102.969,40.46C102.425,37.348 100.92,34.517 98.607,32.263C96.294,30.009 93.388,28.543 90.194,28.012C89.747,27.935 89.325,28.233 89.245,28.668C89.172,29.109 89.472,29.521 89.925,29.598C92.776,30.069 95.376,31.387 97.444,33.396C99.512,35.411 100.858,37.944 101.342,40.723C101.409,41.116 101.758,41.39 102.156,41.39C102.204,41.39 102.247,41.384 102.296,41.378C102.743,41.313 103.049,40.895 102.969,40.46Z"/>
        </g>
    </g>
</symbol><symbol id="mozresticons-net">
    <g transform="matrix(1,0,0,1,-6.4681,-7.69627)">
        <g transform="matrix(0.75,0,0,0.75,0,0)">
            <g transform="matrix(3.27512,0,0,3.27512,-145.634,-134.171)">
                <path d="M74.135,61.506L74.135,57.353L74.049,57.34C70.83,56.876 68.341,54.094 68.341,50.754C68.341,47.091 71.334,44.1 75,44.1C78.666,44.1 81.659,47.091 81.659,50.754C81.659,54.096 79.17,56.876 75.951,57.34L75.866,57.353L75.866,61.506L75.957,61.514C80.331,61.912 83.943,64.997 85.115,69.102L85.14,69.188L85.228,69.173L89.505,68.461L89.591,68.447L89.589,68.36C89.588,68.332 89.587,68.305 89.586,68.278C89.584,68.226 89.583,68.176 89.583,68.123C89.583,64.459 92.575,61.468 96.241,61.468C99.907,61.468 102.9,64.459 102.9,68.123C102.9,71.786 99.907,74.777 96.241,74.777C93.312,74.777 90.814,72.867 89.927,70.229L89.9,70.148L89.816,70.162L85.554,70.871L85.462,70.886L85.471,70.979C85.504,71.31 85.521,71.644 85.521,71.983C85.521,74.448 84.664,76.719 83.231,78.514L83.174,78.586L83.24,78.649L92.003,87.009L92.066,87.069L92.134,87.015C93.268,86.125 94.693,85.591 96.239,85.591C99.905,85.591 102.898,88.582 102.898,92.246C102.898,95.909 99.905,98.9 96.239,98.9C92.574,98.9 89.581,95.909 89.581,92.246C89.581,90.81 90.043,89.48 90.821,88.39L90.872,88.32L90.809,88.26L82.046,79.9L81.98,79.837L81.911,79.897C80.061,81.514 77.643,82.497 75,82.497C72.169,82.497 69.597,81.371 67.703,79.543L67.637,79.48L67.568,79.539L59.382,86.604L59.316,86.661L59.363,86.734C60.029,87.77 60.417,88.998 60.417,90.316C60.417,93.979 57.425,96.97 53.759,96.97C50.093,96.97 47.1,93.979 47.1,90.316C47.1,86.652 50.093,83.661 53.759,83.661C55.423,83.661 56.949,84.279 58.119,85.297L58.184,85.353L58.25,85.297L66.436,78.232L66.505,78.172L66.451,78.098C65.212,76.373 64.479,74.261 64.479,71.983C64.479,70.249 64.904,68.614 65.652,67.169L65.694,67.088L65.617,67.039L58.932,62.787L58.859,62.741L58.802,62.807C57.578,64.227 55.771,65.128 53.759,65.128C50.093,65.128 47.1,62.137 47.1,58.474C47.1,54.81 50.093,51.819 53.759,51.819C57.425,51.819 60.417,54.81 60.417,58.474C60.417,59.447 60.204,60.371 59.826,61.206L59.79,61.285L59.863,61.331L66.548,65.583L66.625,65.632L66.681,65.56C68.424,63.311 71.056,61.786 74.044,61.514L74.135,61.506ZM79.928,50.754C79.928,48.022 77.734,45.83 75,45.83C72.266,45.83 70.072,48.022 70.072,50.754C70.072,53.486 72.266,55.679 75,55.679C77.734,55.679 79.928,53.486 79.928,50.754ZM58.686,58.474C58.686,55.742 56.492,53.549 53.759,53.549C51.025,53.549 48.831,55.742 48.831,58.474C48.831,61.206 51.025,63.398 53.759,63.398C56.492,63.398 58.686,61.206 58.686,58.474ZM83.79,71.983C83.79,67.12 79.865,63.198 75,63.198C70.135,63.198 66.21,67.12 66.21,71.983C66.21,76.845 70.135,80.767 75,80.767C79.865,80.767 83.79,76.845 83.79,71.983ZM101.169,68.123C101.169,65.391 98.975,63.198 96.241,63.198C93.508,63.198 91.314,65.391 91.314,68.123C91.314,70.855 93.508,73.047 96.241,73.047C98.975,73.047 101.169,70.855 101.169,68.123ZM58.686,90.316C58.686,87.584 56.492,85.391 53.759,85.391C51.025,85.391 48.831,87.584 48.831,90.316C48.831,93.048 51.025,95.24 53.759,95.24C56.492,95.24 58.686,93.048 58.686,90.316ZM101.169,92.246C101.169,89.514 98.975,87.321 96.241,87.321C93.508,87.321 91.314,89.514 91.314,92.246C91.314,94.978 93.508,97.17 96.241,97.17C98.975,97.17 101.169,94.978 101.169,92.246Z" style="fill-rule:nonzero;"/>
            </g>
        </g>
    </g>
</symbol><symbol id="mozresticons-ok-circle">
    <g id="Artboard1" transform="matrix(0.75,0,0,0.75,0,0)">
        
        <g transform="matrix(8.43182,0,0,8.43182,7.24993,7.24993)">
            <path d="M11,0C4.929,0 0,4.929 0,11C0,17.071 4.929,22 11,22C17.071,22 22,17.071 22,11C22,4.929 17.071,0 11,0ZM11,2C15.967,2 20,6.033 20,11C20,15.967 15.967,20 11,20C6.033,20 2,15.967 2,11C2,6.033 6.033,2 11,2ZM9.5,13.086L15.293,7.293L16.707,8.707L9.5,15.914L5.293,11.707L6.707,10.293L9.5,13.086Z"/>
        </g>
    </g>
</symbol><symbol id="mozresticons-ok-loading">
    <g id="Artboard1" transform="matrix(0.75,0,0,0.75,0,0)">
        
        <g transform="matrix(2.82754,0,0,2.82754,4.07048,8.34669)">
            <path d="M34.813,1.054L34.813,11.357C34.813,11.825 34.407,12.22 33.927,12.22C33.446,12.22 33.041,11.825 33.041,11.357L33.041,1.054C33.041,0.586 33.446,0.19 33.927,0.19C34.407,0.19 34.813,0.586 34.813,1.054Z"/>
            <g opacity="0.95">
                <g opacity="0.95">
                    <path d="M23.972,14.401C23.937,14.53 23.837,14.772 23.563,14.925C23.147,15.161 22.592,15.015 22.353,14.609L17.065,5.687C16.908,5.42 16.944,5.163 16.979,5.031C17.015,4.903 17.114,4.66 17.388,4.508C17.805,4.272 18.36,4.418 18.602,4.823L23.887,13.746C24.047,14.013 24.008,14.27 23.972,14.401Z" style="fill-opacity:0.95;"/>
                </g>
            </g>
            <g opacity="0.9">
                <g opacity="0.9">
                    <path d="M15.979,22.318C15.737,22.724 15.182,22.866 14.765,22.634L5.608,17.481C5.192,17.248 5.042,16.707 5.284,16.302C5.523,15.896 6.078,15.75 6.494,15.986L15.652,21.136C16.068,21.371 16.218,21.912 15.979,22.318Z" style="fill-opacity:0.9;"/>
                </g>
            </g>
            <g opacity="0.85">
                <g opacity="0.85">
                    <path d="M13.2,32.416C13.2,32.884 12.794,33.279 12.313,33.279L1.74,33.279C1.259,33.279 0.854,32.884 0.854,32.416C0.854,31.944 1.259,31.549 1.74,31.549L12.313,31.549C12.794,31.549 13.2,31.944 13.2,32.416Z" style="fill-opacity:0.85;"/>
                </g>
            </g>
            <g opacity="0.8">
                <g opacity="0.8">
                    <path d="M15.652,43.693L6.494,48.843C6.22,48.999 5.957,48.961 5.825,48.926C5.69,48.891 5.441,48.794 5.284,48.527C5.042,48.122 5.192,47.581 5.608,47.348L14.765,42.195C15.182,41.963 15.737,42.105 15.976,42.511C16.218,42.916 16.068,43.457 15.652,43.693Z" style="fill-opacity:0.8;"/>
                </g>
            </g>
            <g opacity="0.75">
                <g opacity="0.75">
                    <path d="M23.887,51.083L18.602,60.005C18.36,60.411 17.805,60.557 17.388,60.321C17.114,60.168 17.015,59.925 16.979,59.797C16.944,59.665 16.908,59.409 17.065,59.142L22.353,50.219C22.592,49.814 23.147,49.668 23.563,49.904C23.98,50.136 24.129,50.677 23.887,51.083Z" style="fill-opacity:0.75;"/>
                </g>
            </g>
            <g opacity="0.7">
                <g opacity="0.7">
                    <path d="M34.813,53.472L34.813,63.775C34.813,64.243 34.407,64.638 33.927,64.638C33.446,64.638 33.041,64.243 33.041,63.775L33.041,53.472C33.041,53.004 33.446,52.609 33.927,52.609C34.407,52.609 34.813,53.004 34.813,53.472Z" style="fill-opacity:0.7;"/>
                </g>
            </g>
            <g opacity="0.65">
                <g opacity="0.65">
                    <path d="M50.903,59.565C50.903,59.867 50.743,60.165 50.462,60.321C50.045,60.557 49.49,60.411 49.252,60.005L43.963,51.083C43.725,50.677 43.874,50.136 44.291,49.904C44.426,49.828 44.575,49.79 44.725,49.79C45.034,49.79 45.34,49.946 45.501,50.219L50.786,59.142C50.864,59.274 50.903,59.419 50.903,59.565Z" style="fill-opacity:0.65;"/>
                </g>
            </g>
            <g opacity="0.6">
                <g opacity="0.6">
                    <path d="M62.683,48.105C62.683,48.25 62.648,48.396 62.569,48.528C62.409,48.795 62.164,48.892 62.028,48.926C61.897,48.961 61.63,48.999 61.356,48.843L52.198,43.694C51.782,43.458 51.636,42.917 51.875,42.511C52.038,42.237 52.344,42.085 52.654,42.085C52.8,42.085 52.953,42.119 53.088,42.195L62.242,47.349C62.523,47.505 62.683,47.803 62.683,48.105Z" style="fill-opacity:0.6;"/>
                </g>
            </g>
            <g opacity="0.55">
                <g opacity="0.55">
                    <path d="M67,32.416C67,32.884 66.594,33.279 66.11,33.279L55.54,33.279C55.056,33.279 54.651,32.884 54.651,32.416C54.651,31.944 55.056,31.549 55.54,31.549L66.11,31.549C66.594,31.549 67,31.944 67,32.416Z" style="fill-opacity:0.55;"/>
                </g>
            </g>
            <g opacity="0.5">
                <g opacity="0.5">
                    <path d="M62.242,17.48L53.088,22.634C52.672,22.866 52.117,22.724 51.875,22.318C51.636,21.912 51.782,21.371 52.198,21.135L61.356,15.986C61.491,15.909 61.64,15.875 61.79,15.875C62.099,15.875 62.406,16.027 62.569,16.301C62.808,16.707 62.658,17.248 62.242,17.48Z" style="fill-opacity:0.5;"/>
                </g>
            </g>
            <g opacity="0.55">
                <g opacity="0.55">
                    <path d="M50.786,5.687L45.501,14.61C45.262,15.015 44.707,15.161 44.291,14.925C44.017,14.773 43.913,14.53 43.878,14.402C43.842,14.27 43.807,14.013 43.963,13.746L49.252,4.824C49.412,4.55 49.718,4.394 50.028,4.394C50.177,4.394 50.327,4.432 50.462,4.508C50.878,4.74 51.028,5.281 50.786,5.687Z" style="fill-opacity:0.55;"/>
                </g>
            </g>
            <path d="M45.664,28.494L32.389,41.432C32.197,41.616 31.941,41.727 31.674,41.713C31.407,41.709 31.154,41.609 30.969,41.422L22.424,32.943C22.033,32.558 22.04,31.937 22.435,31.559C22.624,31.376 22.876,31.278 23.14,31.278L23.15,31.278C23.417,31.278 23.67,31.382 23.855,31.57L31.692,39.341L44.234,27.114C44.629,26.732 45.266,26.732 45.657,27.11C46.049,27.492 46.052,28.112 45.664,28.494Z"/>
        </g>
    </g>
</symbol><symbol id="mozresticons-ok-shield">
    <g id="Artboard1" transform="matrix(0.75,0,0,0.75,0,0)">
        
        <g transform="matrix(5.33291,0,0,5.33291,25.3536,5.80553)">
            <path d="M13.997,35.326C13.832,35.326 13.666,35.289 13.514,35.214C6.531,31.813 0.75,28.144 0.75,17.663L0.75,5.519C0.75,5.055 1.04,4.641 1.477,4.482L13.62,0.066C13.864,-0.022 14.131,-0.022 14.375,0.066L26.518,4.482C26.955,4.641 27.245,5.055 27.245,5.519L27.245,17.663C27.245,28.144 21.464,31.813 14.48,35.214C14.328,35.289 14.162,35.326 13.997,35.326ZM2.958,6.292L2.958,17.663C2.958,25.898 6.675,29.358 13.997,32.991C21.32,29.358 25.037,25.898 25.037,17.663L25.037,6.292L13.997,2.279L2.958,6.292ZM13.217,22.078L8.021,16.882L9.582,15.321L13.217,18.956L20.164,12.009L21.725,13.57L13.217,22.078Z" style="fill-rule:nonzero;"/>
        </g>
    </g>
</symbol><symbol id="mozresticons-ok">
    <g id="Artboard1" transform="matrix(0.75,0,0,0.75,0,0)">
        
        <g transform="matrix(10.1818,0,0,10.1818,8.36352,30.5545)">
            <path d="M6.164,10.231L16.301,-0L18,1.693L6.164,13.641L-0,7.401L1.676,5.696L6.164,10.231Z" style="fill-rule:nonzero;"/>
        </g>
    </g>
</symbol><symbol id="mozresticons-pc">
    <g id="Artboard1" transform="matrix(0.75,0,0,0.75,0,0)">
        
        <g transform="matrix(2.40469,0,0,2.40469,7.17905,16.5814)">
            <path d="M73.91,0L3.29,0C1.48,0 0,1.48 0,3.29L0,49.85C0,51.66 1.47,53.14 3.29,53.14L27.66,53.14L27.66,67.5L13.6,67.5C13.08,67.5 12.66,67.92 12.66,68.44C12.66,68.96 13.08,69.38 13.6,69.38L63.6,69.38C64.12,69.38 64.54,68.96 64.54,68.44C64.54,67.92 64.12,67.5 63.6,67.5L49.54,67.5L49.54,53.14L73.91,53.14C75.72,53.14 77.2,51.67 77.2,49.85L77.2,3.29C77.2,1.48 75.72,0 73.91,0ZM47.65,67.5L29.54,67.5L29.54,53.14L47.65,53.14L47.65,67.5ZM74.33,51.19L74.12,51.25L3.41,51.25C2.56,51.25 1.87,50.56 1.87,49.71L1.87,48.19L75.3,48.19L75.3,48.84C75.32,50.2 75.32,50.88 74.33,51.19ZM1.88,3.31C1.88,2.53 2.52,1.89 3.3,1.89L73.59,1.89C74.54,1.89 75.3,2.66 75.3,3.6L75.31,46.29L1.88,46.29L1.88,3.31ZM38.6,4.69C29.92,4.69 22.86,11.75 22.86,20.43L22.86,20.88C22.86,25.29 25.43,30.48 30.5,36.3C34.24,40.59 37.88,43.54 38.03,43.67L38.6,44.13L39.17,43.67C39.56,43.36 43.08,40.46 46.7,36.3C51.77,30.48 54.34,25.29 54.34,20.88L54.34,20.43C54.34,11.76 47.28,4.69 38.6,4.69ZM52.53,20.89C52.53,28.74 43.11,37.84 39.06,41.39L38.6,41.79L38.14,41.39C34.09,37.84 24.67,28.73 24.67,20.89L24.67,20.44C24.67,12.76 30.92,6.51 38.6,6.51C46.28,6.51 52.53,12.76 52.53,20.44L52.53,20.89ZM34.15,24.85L30.68,28.32C30.45,28.54 30.39,28.87 30.51,29.16C30.63,29.45 30.91,29.64 31.22,29.64C31.43,29.64 31.63,29.56 31.77,29.41L35.25,25.93C35.59,25.56 35.5,25.11 35.24,24.84C34.98,24.59 34.52,24.5 34.15,24.85ZM33.21,13.85C32.67,13.26 31.74,13.18 31.1,13.67C30.8,13.89 30.59,14.21 30.5,14.56C30.4,14.95 30.47,15.37 30.68,15.74L31.32,16.84C33.4,20.4 35.76,24.44 37.47,26.16C37.61,26.3 37.8,26.38 38.01,26.39C38.03,26.39 39.97,26.43 41.94,25.72L42,25.7L45.39,29.39C45.67,29.69 46.18,29.71 46.49,29.43C46.8,29.14 46.82,28.65 46.53,28.34L33.21,13.85ZM40.69,24.49C39.74,24.74 38.85,24.81 38.4,24.83L38.35,24.83L38.32,24.79C36.75,23.05 34.49,19.18 32.67,16.07L31.85,14.66L40.85,24.44L40.69,24.49ZM42.01,21.14C42.85,21.14 43.63,20.82 44.22,20.23C45,19.45 46.12,18.17 46.56,17.66C46.84,17.34 46.8,16.85 46.48,16.57C46.16,16.29 45.67,16.33 45.39,16.65C45.38,16.66 43.99,18.27 43.12,19.14C42.83,19.43 42.44,19.59 42.02,19.6L41.98,19.6C41.59,19.6 41.22,19.44 40.94,19.16C40.65,18.87 40.49,18.48 40.5,18.08C40.5,17.67 40.67,17.28 40.96,16.98C41.69,16.25 42.94,15.15 43.45,14.71C43.61,14.57 43.7,14.39 43.72,14.18C43.74,13.97 43.67,13.77 43.53,13.62C43.4,13.46 43.21,13.37 43,13.35L42.94,13.35C42.75,13.35 42.57,13.42 42.43,13.54C42.41,13.55 40.78,14.96 39.86,15.88C39.28,16.43 38.95,17.24 38.95,18.09C38.95,18.92 39.27,19.71 39.83,20.25C40.42,20.83 41.19,21.14 42.01,21.14ZM41.19,17.97C41.19,18.23 41.29,18.47 41.48,18.66C41.66,18.84 41.91,18.94 42.16,18.94C42.42,18.94 42.67,18.84 42.85,18.65L45.16,16.31C45.54,15.93 45.53,15.31 45.15,14.93C44.77,14.55 44.15,14.56 43.77,14.94L41.46,17.28C41.29,17.46 41.19,17.71 41.19,17.97Z" style="fill-rule:nonzero;"/>
        </g>
    </g>
</symbol><symbol id="mozresticons-review">
    <g id="Artboard1" transform="matrix(0.75,0,0,0.75,0,0)">
        
        <g transform="matrix(2.74281,0,0,2.74281,5.37808,8.61209)">
            <path d="M34.5,66.448C33.639,66.448 32.773,66.134 32.103,65.506L25.262,59.114L8.589,59.114C3.853,59.114 0,55.364 0,50.756L0,8.548C0,3.94 3.853,0.19 8.589,0.19L60.407,0.19C65.143,0.19 68.996,3.94 68.996,8.548L68.996,50.756C68.996,55.364 65.143,59.114 60.407,59.114L43.734,59.114L36.894,65.506C36.227,66.134 35.362,66.448 34.5,66.448ZM8.589,2.331C5.066,2.331 2.2,5.12 2.2,8.548L2.2,50.756C2.2,54.184 5.066,56.973 8.589,56.973L26.145,56.973L33.624,63.961C34.115,64.418 34.881,64.418 35.373,63.961L42.851,56.973L60.407,56.973C63.93,56.973 66.797,54.184 66.797,50.756L66.797,8.548C66.797,5.12 63.93,2.331 60.407,2.331L8.589,2.331ZM26.355,41.797C26.182,41.797 26.01,41.745 25.866,41.643C25.61,41.461 25.48,41.153 25.535,40.85L27.016,32.446L20.74,26.491C20.512,26.274 20.432,25.953 20.529,25.658C20.626,25.363 20.887,25.15 21.201,25.107L29.875,23.879L33.753,16.232C33.894,15.956 34.183,15.78 34.5,15.78C34.817,15.78 35.106,15.956 35.247,16.232L39.126,23.879L47.799,25.107C48.113,25.15 48.374,25.366 48.471,25.658C48.568,25.953 48.488,26.274 48.26,26.491L41.984,32.443L43.465,40.848C43.518,41.151 43.39,41.459 43.134,41.64C42.879,41.821 42.537,41.845 42.256,41.702L34.5,37.734L26.744,41.702C26.621,41.767 26.488,41.797 26.355,41.797ZM23.113,26.477L28.491,31.581C28.688,31.767 28.777,32.035 28.73,32.3L27.46,39.504L34.111,36.103C34.356,35.979 34.645,35.979 34.886,36.103L41.537,39.504L40.267,32.3C40.22,32.038 40.312,31.767 40.506,31.581L45.887,26.477L38.453,25.426C38.181,25.388 37.948,25.22 37.825,24.982L34.5,18.427L31.175,24.982C31.052,25.22 30.819,25.388 30.547,25.426L23.113,26.477Z" style="fill-rule:nonzero;"/>
        </g>
    </g>
</symbol><symbol id="mozresticons-search">
    <g id="Artboard1" transform="matrix(0.75,0,0,0.75,0,0)">
        
        <g transform="matrix(8.78114,0,0,8.78114,7.79777,7.79019)">
            <path d="M20.743,19.507L14.772,13.535C15.928,12.107 16.625,10.291 16.625,8.313C16.625,3.73 12.896,0.001 8.312,0.001C3.729,0.001 0,3.73 0,8.313C0,12.897 3.729,16.626 8.312,16.626C10.29,16.626 12.105,15.929 13.534,14.773L19.506,20.744C19.677,20.915 19.901,21.001 20.125,21.001C20.349,21.001 20.573,20.915 20.743,20.744C21.086,20.402 21.086,19.849 20.743,19.507ZM8.312,14.876C4.693,14.876 1.75,11.932 1.75,8.313C1.75,4.694 4.693,1.751 8.312,1.751C11.931,1.751 14.875,4.694 14.875,8.313C14.875,11.932 11.931,14.876 8.312,14.876Z" style="fill-rule:nonzero;"/>
        </g>
    </g>
</symbol><symbol id="mozresticons-star-o">
    <g id="Artboard1" transform="matrix(0.75,0,0,0.75,0,0)">
        
        <g transform="matrix(8.95038,0,0,8.95038,0.635998,5.81303)">
            <path d="M10.151,1.122C10.45,0.201 11.753,0.201 12.053,1.122L13.86,6.684C13.994,7.096 14.378,7.375 14.811,7.375L20.659,7.375C21.628,7.375 22.031,8.615 21.247,9.184L16.516,12.622C16.165,12.876 16.019,13.328 16.152,13.74L17.959,19.302C18.259,20.223 17.204,20.989 16.421,20.42L11.69,16.982C11.339,16.728 10.864,16.728 10.514,16.982L5.783,20.42C4.999,20.989 3.944,20.223 4.244,19.302L6.051,13.74C6.185,13.328 6.038,12.876 5.688,12.622L0.957,9.184C0.173,8.615 0.576,7.375 1.544,7.375L7.392,7.375C7.826,7.375 8.21,7.096 8.343,6.684L10.151,1.122ZM11.102,1.584L9.339,7.008C9.065,7.851 8.279,8.422 7.392,8.422L1.69,8.422L6.303,11.774C7.021,12.296 7.321,13.22 7.047,14.063L5.285,19.487L9.898,16.135C10.616,15.614 11.587,15.614 12.305,16.135L16.919,19.487L15.156,14.063C14.882,13.22 15.183,12.296 15.9,11.774L20.514,8.422L14.811,8.422C13.924,8.422 13.138,7.851 12.864,7.008L11.102,1.584Z"/>
        </g>
    </g>
</symbol><symbol id="mozresticons-star">
    <g id="Artboard1" transform="matrix(0.75,0,0,0.75,0,0)">
        
        <g transform="matrix(8.95038,0,0,8.95038,0.635998,5.81303)">
            <path d="M10.151,1.122C10.45,0.201 11.753,0.201 12.053,1.122L13.86,6.684C13.994,7.096 14.378,7.375 14.811,7.375L20.659,7.375C21.628,7.375 22.031,8.615 21.247,9.184L16.516,12.622C16.165,12.876 16.019,13.328 16.152,13.74L17.959,19.302C18.259,20.223 17.204,20.989 16.421,20.42L11.69,16.982C11.339,16.728 10.864,16.728 10.514,16.982L5.783,20.42C4.999,20.989 3.944,20.223 4.244,19.302L6.051,13.74C6.185,13.328 6.038,12.876 5.688,12.622L0.957,9.184C0.173,8.615 0.576,7.375 1.544,7.375L7.392,7.375C7.826,7.375 8.21,7.096 8.343,6.684L10.151,1.122Z" style="fill-rule:nonzero;"/>
        </g>
    </g>
</symbol><symbol id="mozresticons-store">
    <g id="Artboard1" transform="matrix(0.75,0,0,0.75,0,0)">
        
        <g transform="matrix(3.81062,0,0,3.81062,6.63971,28.539)">
            <path d="M48.436,36.389L43.241,36.389L43.241,17.799L43.379,17.72C44.822,16.887 45.719,15.347 45.719,13.699C45.719,13.677 45.718,13.654 45.715,13.632L44.24,1.175C44.162,0.505 43.588,0 42.908,0L6.091,0C5.412,0 4.838,0.505 4.759,1.174L4.308,4.983L4.267,5.041C4.197,5.136 4.161,5.248 4.161,5.365C4.161,5.437 4.175,5.508 4.203,5.575L4.231,5.642L3.285,13.634C3.282,13.654 3.281,13.676 3.281,13.699C3.281,15.347 4.178,16.886 5.621,17.72L5.759,17.799L5.759,36.389L0.564,36.389C0.253,36.389 0,36.64 0,36.948C0,37.255 0.253,37.506 0.564,37.506L48.436,37.506C48.747,37.506 49,37.255 49,36.948C49,36.64 48.747,36.389 48.436,36.389ZM5.901,1.117L43.098,1.117L43.535,4.806L5.465,4.806L5.901,1.117ZM21.595,36.389L11.448,36.389L11.448,22.424L21.595,22.424L21.595,36.389ZM42.113,18.558L42.113,36.389L22.723,36.389L22.723,21.866C22.723,21.558 22.47,21.307 22.159,21.307L10.884,21.307C10.573,21.307 10.32,21.558 10.32,21.866L10.32,36.389L6.887,36.389L6.887,18.234L7.211,18.286C7.257,18.294 7.305,18.3 7.352,18.307C7.382,18.311 7.411,18.315 7.439,18.318C7.475,18.322 7.51,18.326 7.546,18.329C7.59,18.333 7.633,18.336 7.677,18.339L7.703,18.341C7.721,18.342 7.739,18.342 7.757,18.343C7.83,18.347 7.903,18.349 7.975,18.349C9.541,18.349 10.999,17.578 11.876,16.285L12.107,15.946L12.338,16.285C13.214,17.578 14.673,18.349 16.238,18.349C17.803,18.349 19.261,17.578 20.138,16.285L20.369,15.946L20.6,16.285C21.477,17.578 22.935,18.349 24.5,18.349C26.065,18.349 27.523,17.578 28.4,16.285L28.631,15.946L28.862,16.285C29.739,17.578 31.197,18.349 32.763,18.349C34.327,18.349 35.786,17.578 36.662,16.285L36.893,15.946L37.124,16.285C38.001,17.578 39.459,18.349 41.025,18.349C41.097,18.349 41.17,18.347 41.243,18.343L41.295,18.341L41.322,18.339C41.367,18.336 41.41,18.333 41.455,18.329C41.489,18.326 41.525,18.322 41.559,18.319C41.59,18.315 41.622,18.31 41.654,18.306C41.697,18.3 41.741,18.295 41.784,18.287L41.794,18.286L42.12,18.229L42.113,18.558ZM42.474,16.925C42.466,16.929 42.458,16.931 42.449,16.934C41.994,17.132 41.514,17.232 41.025,17.232C39.057,17.232 37.457,15.647 37.457,13.699C37.457,13.392 37.204,13.141 36.893,13.141C36.582,13.141 36.329,13.392 36.329,13.699C36.329,15.647 34.729,17.232 32.763,17.232C30.795,17.232 29.195,15.647 29.195,13.699C29.195,13.392 28.942,13.141 28.631,13.141C28.32,13.141 28.067,13.392 28.067,13.699C28.067,15.647 26.467,17.232 24.5,17.232C22.533,17.232 20.933,15.647 20.933,13.699C20.933,13.392 20.68,13.141 20.369,13.141C20.057,13.141 19.805,13.392 19.805,13.699C19.805,15.647 18.205,17.232 16.238,17.232C14.271,17.232 12.671,15.647 12.671,13.699C12.671,13.392 12.418,13.141 12.107,13.141C11.796,13.141 11.543,13.392 11.543,13.699C11.543,15.647 9.943,17.232 7.975,17.232C7.487,17.232 7.006,17.132 6.55,16.933C6.543,16.931 6.534,16.929 6.526,16.925L6.513,16.919C5.254,16.357 4.428,15.112 4.41,13.749L4.409,13.732L5.333,5.924L43.667,5.924L44.591,13.732L44.59,13.749C44.572,15.111 43.747,16.355 42.489,16.919L42.474,16.925Z" style="fill-rule:nonzero;"/>
        </g>
    </g>
</symbol><symbol id="mozresticons-tablet">
    <g id="Artboard1" transform="matrix(0.75,0,0,0.75,0,0)">
        
        <g transform="matrix(4.04889,0,0,4.04889,5.50351,1.14484)">
            <path d="M45.377,37.826C45.372,37.814 45.365,37.802 45.359,37.784C45.353,37.76 45.342,37.73 45.33,37.706C45.27,37.556 43.849,34.008 43.1,32.594C43.04,32.462 42.962,32.336 42.848,32.162L42.812,32.108C42.291,31.311 41.23,31.167 40.493,31.443C40.235,31.539 40.007,31.677 39.822,31.862C39.222,31.287 38.347,31.089 37.526,31.407C37.142,31.557 36.813,31.808 36.567,32.138C36.106,31.796 35.53,31.653 34.955,31.731L34.955,5.149C34.955,2.746 33.001,0.792 30.598,0.792L5.035,0.792C2.632,0.792 0.678,2.746 0.678,5.149L0.678,40.205C0.678,42.609 2.632,44.563 5.035,44.563L31.592,44.563C31.616,44.563 31.634,44.551 31.658,44.551C31.682,44.575 31.706,44.605 31.724,44.629C32.587,45.558 33.355,46.241 33.984,46.636C35.278,47.571 36.711,48.039 38.233,48.039C39.222,48.039 40.247,47.841 41.29,47.44C44.658,46.139 47.235,42.669 45.377,37.826ZM40.906,46.439C39.312,47.05 36.921,47.434 34.583,45.749C34.014,45.39 33.295,44.754 32.509,43.903C32.09,43.454 30.574,41.392 29.782,40.241C29.591,39.96 29.369,39.672 29.147,39.378C28.644,38.719 27.96,37.814 28.032,37.406C28.038,37.376 28.05,37.316 28.176,37.233C28.29,37.161 28.446,37.119 28.62,37.119C29.165,37.119 29.95,37.478 30.645,38.251C30.933,38.575 31.329,39.031 31.766,39.558C31.934,39.762 32.222,39.81 32.444,39.678C32.671,39.546 32.767,39.27 32.671,39.025L28.967,29.375C28.829,29.021 28.817,28.65 28.931,28.332C29.033,28.045 29.219,27.835 29.471,27.739C29.716,27.643 29.998,27.673 30.268,27.823C30.568,27.985 30.801,28.272 30.939,28.62L33.055,34.128C33.145,34.368 33.396,34.506 33.648,34.464C33.9,34.416 34.086,34.194 34.086,33.936C34.086,33.445 34.373,33.025 34.841,32.845C35.386,32.636 35.956,32.833 36.267,33.337C36.381,33.517 36.591,33.613 36.795,33.583C37.005,33.553 37.178,33.403 37.232,33.199C37.292,32.977 37.466,32.576 37.922,32.402C38.503,32.18 39.102,32.438 39.372,33.025C39.462,33.223 39.654,33.355 39.881,33.337C40.097,33.331 40.289,33.187 40.361,32.983C40.463,32.701 40.613,32.54 40.876,32.444C41.218,32.318 41.727,32.384 41.931,32.695L41.967,32.749C42.039,32.863 42.099,32.941 42.153,33.061C42.89,34.458 44.335,38.066 44.347,38.096L44.371,38.173C44.383,38.21 44.395,38.245 44.419,38.281C46.055,42.675 43.555,45.42 40.906,46.439ZM5.035,43.496C3.219,43.496 1.745,42.021 1.745,40.205L1.745,38.761L27.409,38.761C27.655,39.168 27.966,39.588 28.296,40.02C28.506,40.295 28.715,40.571 28.895,40.841C29.363,41.524 30.166,42.633 30.819,43.496L5.035,43.496ZM19.138,40.487L16.501,40.487C16.207,40.487 15.967,40.727 15.967,41.02C15.967,41.314 16.207,41.554 16.501,41.554L19.138,41.554C19.432,41.554 19.671,41.314 19.671,41.02C19.671,40.727 19.432,40.487 19.138,40.487ZM1.745,8.17L33.888,8.17L33.888,32.168C33.768,32.258 33.648,32.36 33.546,32.474L31.922,28.236C31.694,27.649 31.287,27.169 30.771,26.882C30.226,26.582 29.627,26.528 29.075,26.738C28.53,26.948 28.116,27.385 27.912,27.979C27.721,28.536 27.739,29.165 27.96,29.753L30.681,36.849C29.603,36.034 28.392,35.806 27.583,36.334C27.247,36.555 27.031,36.861 26.971,37.221C26.941,37.376 26.953,37.532 26.977,37.694L1.745,37.694L1.745,8.17ZM12.077,15.357C11.592,14.829 10.777,14.757 10.208,15.195C9.944,15.393 9.752,15.674 9.674,15.986C9.59,16.334 9.644,16.705 9.836,17.035L10.531,18.215C12.761,22.033 15.29,26.367 17.106,28.183C17.202,28.279 17.334,28.339 17.472,28.339C17.556,28.339 19.581,28.368 21.607,27.637C21.649,27.625 21.685,27.601 21.721,27.583L21.817,27.517L21.895,27.607L25.635,31.671C25.731,31.773 25.863,31.839 26.006,31.845C26.144,31.845 26.282,31.803 26.39,31.707C26.498,31.611 26.558,31.479 26.564,31.335C26.57,31.191 26.522,31.06 26.426,30.952L12.077,15.357ZM13.9,27.032C13.774,27.032 13.642,27.08 13.516,27.194L9.782,30.927C9.596,31.113 9.602,31.347 9.668,31.509C9.734,31.671 9.89,31.827 10.16,31.839C10.303,31.839 10.435,31.785 10.537,31.683L14.271,27.949C14.517,27.679 14.451,27.379 14.271,27.2C14.175,27.098 14.043,27.032 13.9,27.032ZM20.858,26.762C19.551,27.17 18.263,27.254 17.771,27.266L17.705,27.266L17.663,27.218C15.949,25.378 13.456,21.104 11.454,17.676L10.759,16.489C10.621,16.25 10.777,16.1 10.849,16.046C11.011,15.914 11.202,15.968 11.304,16.088L21.068,26.696L20.858,26.762ZM19.641,21.823C20.205,22.387 20.954,22.692 21.757,22.692C22.578,22.692 23.345,22.375 23.921,21.799C24.898,20.822 26.366,19.12 26.426,19.048C26.522,18.94 26.564,18.802 26.552,18.659C26.54,18.515 26.474,18.389 26.366,18.293C26.258,18.197 26.12,18.155 25.976,18.167C25.833,18.179 25.707,18.245 25.611,18.353C25.347,18.659 24.023,20.181 23.154,21.05C22.782,21.422 22.29,21.626 21.763,21.632C21.272,21.649 20.756,21.44 20.385,21.068C20.013,20.697 19.809,20.193 19.827,19.69C19.833,19.162 20.037,18.671 20.408,18.299C21.355,17.352 23.087,15.86 23.106,15.848C23.213,15.758 23.279,15.626 23.291,15.482C23.303,15.338 23.255,15.2 23.166,15.092C23.07,14.985 22.944,14.919 22.8,14.907L22.758,14.907C22.632,14.907 22.506,14.955 22.41,15.039C22.338,15.099 20.63,16.573 19.659,17.544C19.096,18.083 18.772,18.874 18.772,19.708C18.778,20.523 19.096,21.296 19.641,21.823ZM21.547,19.192C21.344,19.402 21.344,19.738 21.553,19.948C21.763,20.157 22.105,20.151 22.308,19.942L24.796,17.418C24.898,17.316 24.952,17.185 24.952,17.041C24.952,16.897 24.892,16.765 24.79,16.663C24.688,16.561 24.556,16.507 24.418,16.507L24.412,16.507C24.268,16.507 24.136,16.567 24.035,16.663L21.547,19.192ZM1.745,5.149C1.745,3.333 3.219,1.859 5.035,1.859L30.604,1.859C32.42,1.859 33.894,3.333 33.894,5.149L33.894,7.019L1.745,7.019L1.745,5.149Z" style="fill-rule:nonzero;"/>
        </g>
    </g>
</symbol><symbol id="mozresticons-twitter">
    <g id="Artboard1" transform="matrix(0.75,0,0,0.75,0,0)">
        
        <g transform="matrix(11.2521,0,0,11.2521,-4.19193,12.2533)">
            <path d="M17.694,2.568C17.058,2.845 16.393,3.03 15.701,3.113C16.421,2.679 16.965,2.006 17.224,1.203C16.55,1.609 15.803,1.886 15.027,2.042C13.717,0.649 11.53,0.575 10.136,1.886C9.435,2.541 9.048,3.454 9.048,4.405C9.048,4.663 9.075,4.931 9.131,5.189C6.353,5.051 3.76,3.74 2.007,1.572C1.084,3.15 1.545,5.18 3.068,6.195C2.514,6.177 1.979,6.038 1.508,5.771L1.508,5.808C1.508,7.45 2.662,8.871 4.277,9.203C3.972,9.277 3.668,9.323 3.363,9.314C3.142,9.314 2.92,9.296 2.708,9.259C3.169,10.662 4.461,11.63 5.938,11.667C4.71,12.627 3.206,13.144 1.656,13.144C1.379,13.144 1.102,13.135 0.825,13.098C2.403,14.113 4.249,14.657 6.131,14.648C11.53,14.685 15.932,10.339 15.969,4.94L15.969,4.811C15.969,4.654 15.959,4.506 15.959,4.368C16.642,3.87 17.224,3.27 17.694,2.568Z" style="fill-rule:nonzero;"/>
        </g>
    </g>
</symbol><symbol id="mozresticons-user-connection">
    <g id="Artboard1" transform="matrix(0.75,0,0,0.75,0,0)">
        
        <g transform="matrix(2.73339,0,0,2.73339,5.69798,11.5894)">
            <path d="M50.563,62.63C53.317,64.317 56.566,64.832 59.708,64.084C62.853,63.336 65.516,61.412 67.206,58.663C68.895,55.914 69.415,52.678 68.665,49.547C67.914,46.411 65.984,43.757 63.227,42.072C61.321,40.907 59.129,40.287 56.891,40.287L56.877,40.287C53.46,40.291 50.186,41.745 47.903,44.282L47.794,44.4L40.262,38.767L40.332,38.635C41.983,35.458 40.736,31.536 37.553,29.887C36.946,29.574 36.296,29.358 35.623,29.247L35.476,29.223L35.476,24.306L35.633,24.292C38.855,24 41.77,22.472 43.84,19.995C45.91,17.517 46.887,14.382 46.594,11.171C46.3,7.959 44.768,5.054 42.283,2.987C39.797,0.923 36.652,-0.051 33.431,0.241C26.784,0.847 21.866,6.734 22.473,13.363C23.004,19.167 27.615,23.76 33.438,24.292L33.595,24.306L33.595,29.223L33.448,29.247C31.734,29.532 30.233,30.465 29.221,31.874C28.209,33.283 27.811,35.002 28.097,36.71C28.209,37.382 28.425,38.029 28.739,38.631L28.809,38.763L21.276,44.393L21.168,44.275C18.773,41.631 15.464,40.284 12.141,40.284C9.237,40.284 6.326,41.31 4.005,43.398C-0.97,47.873 -1.364,55.549 3.125,60.507C7.614,65.465 15.314,65.859 20.288,61.384C24.641,57.466 25.57,51.011 22.487,46.032L22.404,45.896L29.936,40.267L30.045,40.367C32.561,42.765 36.506,42.765 39.023,40.367L39.131,40.267L46.664,45.896L46.58,46.032C43.089,51.704 44.876,59.147 50.563,62.63ZM16.836,61.433L16.738,61.481C15.314,62.195 13.754,62.553 12.19,62.553C10.626,62.553 9.066,62.195 7.642,61.481L7.544,61.433L7.544,59.042C7.544,56.492 9.628,54.414 12.187,54.414C14.745,54.414 16.829,56.492 16.829,59.042L16.829,61.433L16.836,61.433ZM9.785,50.135L9.785,49.021C9.785,47.695 10.867,46.62 12.194,46.62C13.524,46.62 14.602,47.699 14.602,49.021L14.602,50.135C14.602,51.457 13.52,52.535 12.194,52.535C10.867,52.535 9.785,51.46 9.785,50.135ZM19.821,59.14C19.569,59.421 19.297,59.689 19.014,59.943L18.725,60.204L18.725,59.049C18.725,56.68 17.43,54.494 15.342,53.353L15.143,53.245L15.3,53.082C16.065,52.285 16.487,51.241 16.487,50.142L16.487,49.028C16.487,46.669 14.56,44.748 12.194,44.748C9.827,44.748 7.9,46.669 7.9,49.028L7.9,50.142C7.9,51.241 8.322,52.285 9.087,53.082L9.244,53.245L9.045,53.353C6.961,54.494 5.666,56.68 5.663,59.049L5.663,60.204L5.373,59.943C1.17,56.196 0.807,49.738 4.567,45.545C6.389,43.516 8.895,42.313 11.621,42.163C14.351,42.013 16.972,42.928 19.011,44.745C23.217,48.489 23.58,54.947 19.821,59.14ZM28.01,20.11L27.72,19.852C25.556,17.928 24.313,15.165 24.31,12.274C24.302,9.549 25.364,6.988 27.291,5.057C29.217,3.126 31.786,2.061 34.516,2.054L34.537,2.054C40.167,2.054 44.754,6.612 44.765,12.228C44.772,15.134 43.529,17.91 41.354,19.849L41.065,20.11L41.065,18.954C41.065,16.585 39.77,14.4 37.686,13.258L37.487,13.15L37.644,12.987C38.408,12.194 38.831,11.15 38.831,10.047L38.831,8.933C38.831,6.574 36.904,4.653 34.537,4.653C32.17,4.653 30.244,6.574 30.244,8.933L30.244,10.047C30.247,11.146 30.666,12.19 31.43,12.987L31.587,13.15L31.389,13.258C29.305,14.403 28.01,16.585 28.01,18.954L28.01,20.11ZM36.946,8.93L36.946,10.043C36.946,11.369 35.864,12.444 34.537,12.444C33.211,12.444 32.129,11.365 32.129,10.043L32.129,8.93C32.129,7.604 33.211,6.529 34.537,6.529C35.867,6.529 36.946,7.608 36.946,8.93ZM29.992,21.39L29.895,21.341L29.895,18.951C29.895,16.4 31.978,14.323 34.537,14.323C37.096,14.323 39.18,16.4 39.18,18.951L39.18,21.341L39.082,21.39C37.658,22.103 36.097,22.462 34.534,22.462C32.977,22.462 31.413,22.107 29.992,21.39ZM34.537,40.287C31.978,40.287 29.895,38.21 29.895,35.66C29.895,33.109 31.978,31.032 34.537,31.032C37.096,31.032 39.18,33.109 39.18,35.66C39.18,38.21 37.099,40.287 34.537,40.287ZM61.523,61.433L61.425,61.481C60.001,62.195 58.441,62.553 56.877,62.553C55.313,62.553 53.753,62.195 52.329,61.481L52.231,61.433L52.231,59.042C52.231,56.492 54.315,54.414 56.874,54.414C59.432,54.414 61.516,56.492 61.516,59.042L61.516,61.433L61.523,61.433ZM54.472,50.135L54.472,49.021C54.472,47.695 55.554,46.62 56.881,46.62C58.207,46.62 59.289,47.699 59.289,49.021L59.289,50.135C59.289,51.457 58.207,52.535 56.881,52.535C55.554,52.535 54.472,51.46 54.472,50.135ZM49.257,45.542C51.079,43.513 53.585,42.309 56.312,42.159C59.041,42.01 61.663,42.925 63.701,44.741C67.904,48.489 68.267,54.947 64.507,59.14C64.253,59.421 63.984,59.693 63.701,59.943L63.411,60.201L63.411,59.046C63.411,56.676 62.117,54.491 60.033,53.35L59.834,53.242L59.991,53.078C60.755,52.285 61.178,51.241 61.178,50.138L61.178,49.025C61.178,46.665 59.251,44.745 56.884,44.745C54.517,44.745 52.591,46.665 52.591,49.025L52.591,50.138C52.591,51.238 53.013,52.281 53.777,53.078L53.934,53.242L53.736,53.35C51.652,54.494 50.357,56.676 50.353,59.046L50.353,60.201L50.063,59.94C45.857,56.192 45.498,49.734 49.257,45.542Z" style="fill-rule:nonzero;"/>
        </g>
    </g>
</symbol><symbol id="mozresticons-user">
    <g id="Artboard1" transform="matrix(0.75,0,0,0.75,0,0)">
        
        <g transform="matrix(2.74656,0,0,2.74656,25.8429,5.24371)">
            <path d="M53.088,69C53.591,69 54,68.588 54,68.083L54,55.935C54,50.925 52.607,46.268 49.969,42.466C47.276,38.58 43.458,35.851 38.925,34.578C38.669,34.505 38.398,34.548 38.175,34.698C34.854,36.908 30.988,38.077 27,38.077C23.012,38.077 19.146,36.91 15.823,34.701C15.674,34.602 15.498,34.548 15.32,34.548C15.238,34.548 15.155,34.559 15.075,34.583C10.542,35.854 6.724,38.582 4.028,42.469C1.393,46.268 0,50.925 0,55.935L0,68.083C0,68.588 0.409,69 0.912,69L53.088,69ZM1.824,55.935C1.824,46.853 6.844,39.28 14.615,36.643L15.158,36.458L15.647,36.755C19.072,38.82 22.999,39.912 27,39.912C31.004,39.912 34.931,38.82 38.353,36.755L38.842,36.461L39.385,36.645C47.154,39.283 52.176,46.856 52.176,55.941L52.176,67.168L1.824,67.168L1.824,55.935ZM27,0C17.947,0 10.579,7.41 10.579,16.516C10.579,25.624 17.944,33.037 26.997,33.037C36.05,33.037 43.415,25.627 43.415,16.516C43.418,7.41 36.053,0 27,0ZM27,31.199C18.952,31.199 12.406,24.613 12.406,16.516C12.406,8.421 18.952,1.835 27,1.835C35.048,1.835 41.594,8.421 41.594,16.516C41.594,24.613 35.048,31.199 27,31.199Z" style="fill-rule:nonzero;"/>
        </g>
    </g>
</symbol><symbol id="mozresticons-waiter">
    <g id="Artboard1" transform="matrix(0.75,0,0,0.75,0,0)">
        
        <g transform="matrix(2.41597,0,0,2.41597,5.14896,27.594)">
            <path d="M77.58,4.05L37.58,4.05C36.28,4.05 35.06,4.66 34.24,5.71L33.72,6.38L33.12,5.78C29.85,2.51 25.51,0.72 20.92,0.72C18.28,0.72 15.66,1.8 13.91,3.6L10.24,7.38L6.31,7.38C4.02,7.38 2.16,9.29 2.16,11.63C2.16,12.29 2.31,12.93 2.59,13.52L2.91,14.17L2.27,14.51C0.87,15.25 0,16.7 0,18.3C0,19.9 0.87,21.35 2.26,22.08L2.9,22.42L2.58,23.07C2.29,23.66 2.15,24.3 2.15,24.96C2.15,26.86 3.4,28.54 5.19,29.06L5.98,29.29L5.68,30.06C5.48,30.56 5.38,31.09 5.38,31.64C5.38,33.98 7.24,35.89 9.53,35.89L24.24,35.89C27.24,35.89 30.14,34.94 32.61,33.14L33.35,32.6L33.74,33.42C34.44,34.92 35.95,35.88 37.58,35.88L50,35.88L50,58.3C50,58.81 50.41,59.22 50.92,59.22C54.47,59.22 56.34,58.28 58,57.46C59.61,56.65 61.14,55.89 64.26,55.89C67.38,55.89 68.9,56.65 70.52,57.46C72.17,58.29 74.04,59.22 77.6,59.22C78.11,59.22 78.52,58.81 78.52,58.3L78.52,4.96C78.5,4.46 78.09,4.05 77.58,4.05ZM33.33,30.02L33.12,30.24C30.74,32.66 27.51,34.05 24.25,34.05L9.54,34.05C8.26,34.05 7.22,32.97 7.22,31.63C7.22,30.3 8.26,29.21 9.54,29.21L10.91,29.21C11.42,29.21 11.83,28.8 11.83,28.29C11.83,27.78 11.42,27.37 10.91,27.37L6.31,27.37C5.03,27.37 3.99,26.29 3.99,24.95C3.99,23.61 5.03,22.53 6.31,22.53L7.58,22.53C8.09,22.53 8.5,22.12 8.5,21.61C8.5,21.1 8.09,20.69 7.58,20.69L4.15,20.69C2.87,20.69 1.83,19.61 1.83,18.27C1.83,16.93 2.87,15.85 4.15,15.85L7.58,15.85C7.83,15.85 8.06,15.75 8.23,15.58C8.4,15.41 8.5,15.18 8.5,14.93C8.5,14.42 8.09,14.01 7.58,14.01L6.31,14.01C5.03,14.01 3.99,12.93 3.99,11.59C3.99,10.25 5.03,9.17 6.31,9.17L17.09,9.17C17.6,9.17 18.01,8.76 18.01,8.25C18.01,7.74 17.6,7.33 17.09,7.33L12.79,7.33L15.22,4.82C16.61,3.39 18.79,2.49 20.91,2.49C25.71,2.49 30.18,4.69 33.17,8.54L33.33,8.74L33.33,30.02ZM50,34.05L37.58,34.05C36.25,34.05 35.16,32.97 35.16,31.63L35.16,8.3C35.16,6.97 36.24,5.88 37.58,5.88L50,5.88L50,34.05ZM76.67,57.38L75.84,57.29C73.84,57.07 72.63,56.46 71.34,55.81C69.69,54.98 67.81,54.05 64.26,54.05C60.7,54.05 58.83,54.99 57.18,55.81C55.89,56.46 54.67,57.06 52.67,57.29L51.84,57.38L51.84,5.88L76.67,5.88L76.67,57.38Z" style="fill-rule:nonzero;"/>
        </g>
    </g>
</symbol><symbol id="mozresticons-wifi">
    <g id="Artboard1" transform="matrix(0.75,0,0,0.75,0,0)">
        
        <g transform="matrix(3.21815,0,0,3.21815,-141.361,-128.488)">
            <path d="M78.25,91.801C78.25,93.66 76.742,95.168 74.883,95.168C73.023,95.168 71.516,93.66 71.516,91.801C71.516,89.941 73.023,88.434 74.883,88.434C76.742,88.434 78.25,89.941 78.25,91.801ZM75.035,74.137C78.056,74.146 82.544,75.4 86.033,78.889C86.753,79.609 86.746,80.779 86.023,81.497C85.663,81.854 85.194,82.032 84.724,82.032C84.249,82.032 83.777,81.849 83.415,81.487C80.888,78.959 77.779,77.824 75,77.824C72.021,77.824 68.811,78.978 66.324,81.467L66.295,81.497C65.578,82.22 64.411,82.224 63.688,81.507C62.965,80.79 62.96,79.622 63.678,78.899C66.957,75.594 71.767,74.137 75,74.137L75.035,74.137ZM75.089,60.432C82.613,60.456 89.827,63.554 95.41,69.18C96.128,69.902 96.123,71.07 95.4,71.787C95.041,72.144 94.572,72.322 94.102,72.322C93.626,72.322 93.153,72.141 92.793,71.777C87.898,66.846 81.58,64.119 75,64.119C68.444,64.119 62.149,66.825 57.265,71.719L57.207,71.777C56.49,72.5 55.323,72.504 54.6,71.787C53.877,71.07 53.872,69.903 54.59,69.18C60.193,63.533 67.442,60.432 75,60.432L75.089,60.432ZM75.065,46.832C86.117,46.85 96.37,51.324 103.96,59.441L104.005,59.489C104.699,60.234 104.658,61.401 103.913,62.095C103.558,62.426 103.107,62.59 102.657,62.59C102.162,62.59 101.671,62.393 101.307,62.003C94.407,54.6 85.062,50.52 75,50.52C64.938,50.52 55.593,54.6 48.693,62.003C47.998,62.748 46.832,62.789 46.087,62.095C45.342,61.401 45.301,60.234 45.995,59.489C53.604,51.325 63.902,46.832 75,46.832L75.065,46.832Z" style="fill-rule:nonzero;"/>
        </g>
    </g>
</symbol><symbol id="mozresticons-world">
    <g id="Artboard1" transform="matrix(0.75,0,0,0.75,0,0)">
        
        <g transform="matrix(2.45182,0,0,2.45182,6.13217,6.10753)">
            <path d="M38.28,12.41C24.01,12.41 12.39,24.02 12.39,38.3C12.39,44.77 14.8,50.97 19.18,55.76L19.41,56.01L13.59,61.83C13.31,62.11 13.24,62.49 13.39,62.85C13.51,63.13 13.8,63.43 14.26,63.43C14.51,63.43 14.75,63.33 14.92,63.16L20.74,57.34L20.99,57.56C25.75,61.84 31.89,64.2 38.28,64.2C52.55,64.2 64.16,52.59 64.16,38.31C64.17,24.03 52.56,12.41 38.28,12.41ZM33.92,61.91C22.97,59.89 14.91,50.72 14.31,39.61L14.29,39.24L23.38,39.24L23.39,39.58C23.86,50.56 30.37,57.91 34.21,61.31L35.15,62.14L33.92,61.91ZM37.35,61.47L36.78,61.02C29.74,55.43 25.65,47.83 25.27,39.61L25.25,39.24L37.34,39.24L37.34,61.47L37.35,61.47ZM37.36,37.36L25.26,37.36L25.28,36.99C25.66,29.07 29.4,23.22 32.47,19.7C32.64,19.51 32.72,19.27 32.7,19.02C32.68,18.77 32.57,18.54 32.38,18.38C32.19,18.21 31.94,18.13 31.7,18.15C31.45,18.17 31.22,18.28 31.06,18.47C27.77,22.23 23.77,28.51 23.4,37.03L23.39,37.36L14.3,37.36L14.32,36.99C14.98,24.73 24.73,14.98 36.99,14.32L37.36,14.3L37.36,37.36ZM39.22,15.13L39.79,15.58C43.07,18.17 50.76,25.44 51.3,37L51.32,37.37L39.23,37.37L39.23,15.13L39.22,15.13ZM39.59,62.28L39.22,62.3L39.22,39.24L51.31,39.24L51.29,39.61C50.9,47.81 46.92,53.81 43.65,57.4C43.3,57.78 43.33,58.38 43.71,58.73C43.89,58.9 44.13,58.99 44.38,58.97C44.63,58.96 44.86,58.85 45.03,58.66C48.53,54.82 52.78,48.39 53.16,39.58L53.17,39.25L57.58,39.25C58.1,39.25 58.52,38.83 58.52,38.31C58.52,37.79 58.1,37.37 57.58,37.37L53.17,37.37L53.16,37.03C52.69,26.05 46.19,18.7 42.35,15.3L41.41,14.47L42.65,14.7C54.03,16.8 62.29,26.73 62.29,38.31C62.29,51.06 52.32,61.59 39.59,62.28Z" style="fill-rule:nonzero;"/>
            <path d="M5.85,64.89C2.63,64.89 0,67.51 0,70.74C0,73.96 2.62,76.59 5.85,76.59C9.07,76.59 11.7,73.97 11.7,70.74C11.7,67.51 9.07,64.89 5.85,64.89ZM73.45,65.58C71.5,64.55 69.25,64.66 67.44,65.9L67.2,66.06L60.75,59.61C60.57,59.43 60.34,59.34 60.09,59.34C59.84,59.34 59.6,59.44 59.43,59.61C59.25,59.79 59.16,60.02 59.16,60.27C59.16,60.52 59.26,60.76 59.43,60.93L65.9,67.4L65.75,67.64C64.61,69.46 64.56,71.67 65.6,73.56C66.65,75.45 68.56,76.58 70.71,76.58C73.93,76.58 76.56,73.96 76.56,70.73C76.56,68.54 75.4,66.61 73.45,65.58ZM5.85,74.71C3.66,74.71 1.88,72.93 1.88,70.74C1.88,68.55 3.66,66.77 5.85,66.77C8.04,66.77 9.82,68.55 9.82,70.74C9.82,72.92 8.04,74.71 5.85,74.71ZM70.72,74.71C68.53,74.71 66.75,72.93 66.75,70.74C66.75,68.55 68.53,66.77 70.72,66.77C72.91,66.77 74.69,68.55 74.69,70.74C74.69,72.92 72.91,74.71 70.72,74.71ZM3.02,10.97C4.91,12.02 7.12,11.96 8.94,10.82L9.18,10.67L15.65,17.14C16.01,17.49 16.62,17.49 16.98,17.14C17.16,16.96 17.25,16.73 17.25,16.48C17.25,16.23 17.15,15.99 16.98,15.82L10.53,9.37L10.69,9.13C11.92,7.32 12.04,5.07 11.01,3.12C9.98,1.17 8.05,0.01 5.85,0.01C2.63,0.01 0,2.63 0,5.86C0,8.02 1.13,9.93 3.02,10.97ZM60.76,16.99L67.21,10.54L67.45,10.7C69.26,11.93 71.51,12.05 73.46,11.01C75.41,9.98 76.57,8.05 76.57,5.85C76.57,2.63 73.95,0 70.72,0C68.57,0 66.66,1.13 65.61,3.02C64.56,4.91 64.62,7.12 65.76,8.94L65.91,9.18L59.44,15.65C59.26,15.83 59.17,16.06 59.17,16.31C59.17,16.56 59.27,16.8 59.44,16.97C59.79,17.35 60.4,17.35 60.76,16.99ZM5.85,1.9C8.04,1.9 9.82,3.68 9.82,5.87C9.82,8.06 8.04,9.84 5.85,9.84C3.66,9.84 1.88,8.06 1.88,5.87C1.88,3.68 3.66,1.9 5.85,1.9ZM70.72,1.9C72.91,1.9 74.69,3.68 74.69,5.87C74.69,8.06 72.91,9.84 70.72,9.84C68.53,9.84 66.75,8.06 66.75,5.87C66.75,3.68 68.53,1.9 70.72,1.9Z" style="fill-rule:nonzero;"/>
        </g>
    </g>
</symbol><symbol id="mozresticons-youtube-pc">
    <g id="Artboard1" transform="matrix(0.75,0,0,0.75,0,0)">
        
        <g transform="matrix(2.44349,0,0,2.44349,6.19416,15.6995)">
            <path d="M73.508,0L3.272,0C1.473,0 0,1.473 0,3.272L0,49.579C0,51.378 1.462,52.851 3.272,52.851L27.509,52.851L27.509,67.133L13.527,67.133C13.009,67.133 12.593,67.551 12.593,68.066C12.593,68.582 13.012,69 13.527,69L63.256,69C63.774,69 64.189,68.582 64.189,68.066C64.189,67.551 63.771,67.133 63.256,67.133L49.271,67.133L49.271,52.851L73.508,52.851C75.31,52.851 76.78,51.388 76.78,49.579L76.78,3.272C76.78,1.473 75.307,0 73.508,0ZM47.391,67.133L29.379,67.133L29.379,52.851L47.391,52.851L47.391,67.133ZM73.926,50.912L73.719,50.973L3.39,50.973C2.546,50.973 1.86,50.286 1.86,49.442L1.86,47.93L74.889,47.93L74.889,48.577C74.91,49.926 74.91,50.602 73.926,50.912ZM1.87,3.293C1.87,2.517 2.507,1.881 3.282,1.881L73.19,1.881C74.134,1.881 74.892,2.646 74.892,3.582L74.902,46.039L1.87,46.039L1.87,3.293ZM50.187,34.803L33.172,34.803L33.172,33.214L28.611,33.214L28.611,34.803L27.212,34.803L27.212,36.644L28.611,36.644L28.611,38.114L33.172,38.114L33.172,36.644L50.187,36.644L50.187,34.803ZM31.71,29.19L31.71,12.028L46.57,20.607L31.71,29.19ZM33.477,15.089L33.477,26.128L43.036,20.61L33.477,15.089Z" style="fill-rule:nonzero;"/>
        </g>
    </g>
</symbol></svg>