<svg width="497" height="366" viewBox="0 0 497 366" fill="none" xmlns="http://www.w3.org/2000/svg">
<rect width="497" height="366" rx="5" fill="white"/>
<rect x="85" y="298" width="132" height="11" rx="5.5" transform="rotate(-90 85 298)" fill="#037F74"/>
<rect x="429" y="298" width="95" height="11" rx="5.5" transform="rotate(-90 429 298)" fill="#037F74"/>
<rect x="257" y="298" width="170" height="11" rx="5.5" transform="rotate(-90 257 298)" fill="#037F74"/>
<rect x="144" y="298" width="220" height="11" rx="5.5" transform="rotate(-90 144 298)" fill="#FE9B02"/>
<rect x="316" y="298" width="117" height="11" rx="5.5" transform="rotate(-90 316 298)" fill="#FE9B02"/>
<rect x="206" y="297" width="88" height="11" rx="5.5" transform="rotate(-90 206 297)" fill="#EC4467"/>
<rect x="377" y="297" width="261" height="11" rx="5.50001" transform="rotate(-90 377 297)" fill="#EC4467"/>
<path d="M24.0938 290H22.2578V282.625C22.2578 281.745 22.2786 281.047 22.3203 280.531C22.2005 280.656 22.0521 280.794 21.875 280.945C21.7031 281.096 21.1198 281.576 20.125 282.383L19.2031 281.219L22.5625 278.578H24.0938V290ZM30.2266 285.438L31.2656 284.141L33.875 281.359H35.9922L32.5156 285.07L36.2109 290H34.0547L31.2812 286.211L30.2734 287.039V290H28.4531V277.844H30.2734V283.773L30.1797 285.438H30.2266Z" fill="#BABABA"/>
<path d="M83.0938 329.898C83.0938 330.914 82.7266 331.711 81.9922 332.289C81.2578 332.867 80.2448 333.156 78.9531 333.156C77.6615 333.156 76.6042 332.956 75.7812 332.555V330.789C76.3021 331.034 76.8542 331.227 77.4375 331.367C78.026 331.508 78.5729 331.578 79.0781 331.578C79.8177 331.578 80.362 331.438 80.7109 331.156C81.0651 330.875 81.2422 330.497 81.2422 330.023C81.2422 329.596 81.0807 329.234 80.7578 328.938C80.4349 328.641 79.7682 328.289 78.7578 327.883C77.7161 327.461 76.9818 326.979 76.5547 326.438C76.1276 325.896 75.9141 325.245 75.9141 324.484C75.9141 323.531 76.2526 322.781 76.9297 322.234C77.6068 321.688 78.5156 321.414 79.6562 321.414C80.75 321.414 81.8385 321.654 82.9219 322.133L82.3281 323.656C81.3125 323.229 80.4062 323.016 79.6094 323.016C79.0052 323.016 78.5469 323.148 78.2344 323.414C77.9219 323.674 77.7656 324.021 77.7656 324.453C77.7656 324.75 77.8281 325.005 77.9531 325.219C78.0781 325.427 78.2839 325.625 78.5703 325.812C78.8568 326 79.3724 326.247 80.1172 326.555C80.9557 326.904 81.5703 327.229 81.9609 327.531C82.3516 327.833 82.638 328.174 82.8203 328.555C83.0026 328.935 83.0938 329.383 83.0938 329.898ZM92.3906 333L91.25 329.828H86.8828L85.7656 333H83.7969L88.0703 321.531H90.1016L94.375 333H92.3906ZM90.7578 328.219L89.6875 325.109C89.6094 324.901 89.5 324.573 89.3594 324.125C89.224 323.677 89.1302 323.349 89.0781 323.141C88.9375 323.781 88.7318 324.482 88.4609 325.242L87.4297 328.219H90.7578ZM99.8281 333H97.9609V323.18H94.6016V321.578H103.188V323.18H99.8281V333Z" fill="#BABABA"/>
<path d="M141.094 329.898C141.094 330.914 140.727 331.711 139.992 332.289C139.258 332.867 138.245 333.156 136.953 333.156C135.661 333.156 134.604 332.956 133.781 332.555V330.789C134.302 331.034 134.854 331.227 135.438 331.367C136.026 331.508 136.573 331.578 137.078 331.578C137.818 331.578 138.362 331.438 138.711 331.156C139.065 330.875 139.242 330.497 139.242 330.023C139.242 329.596 139.081 329.234 138.758 328.938C138.435 328.641 137.768 328.289 136.758 327.883C135.716 327.461 134.982 326.979 134.555 326.438C134.128 325.896 133.914 325.245 133.914 324.484C133.914 323.531 134.253 322.781 134.93 322.234C135.607 321.688 136.516 321.414 137.656 321.414C138.75 321.414 139.839 321.654 140.922 322.133L140.328 323.656C139.312 323.229 138.406 323.016 137.609 323.016C137.005 323.016 136.547 323.148 136.234 323.414C135.922 323.674 135.766 324.021 135.766 324.453C135.766 324.75 135.828 325.005 135.953 325.219C136.078 325.427 136.284 325.625 136.57 325.812C136.857 326 137.372 326.247 138.117 326.555C138.956 326.904 139.57 327.229 139.961 327.531C140.352 327.833 140.638 328.174 140.82 328.555C141.003 328.935 141.094 329.383 141.094 329.898ZM152.258 321.578V328.969C152.258 329.812 152.076 330.552 151.711 331.188C151.352 331.818 150.828 332.305 150.141 332.648C149.458 332.987 148.641 333.156 147.688 333.156C146.271 333.156 145.169 332.781 144.383 332.031C143.596 331.281 143.203 330.25 143.203 328.938V321.578H145.078V328.805C145.078 329.747 145.297 330.443 145.734 330.891C146.172 331.339 146.844 331.562 147.75 331.562C149.51 331.562 150.391 330.638 150.391 328.789V321.578H152.258ZM164.695 333H162.406L156.789 323.898H156.727L156.766 324.406C156.839 325.375 156.875 326.26 156.875 327.062V333H155.18V321.578H157.445L163.047 330.633H163.094C163.083 330.513 163.062 330.078 163.031 329.328C163 328.573 162.984 327.984 162.984 327.562V321.578H164.695V333Z" fill="#BABABA"/>
<path d="M197.445 333L194.133 323.461H194.07C194.159 324.878 194.203 326.206 194.203 327.445V333H192.508V321.578H195.141L198.312 330.664H198.359L201.625 321.578H204.266V333H202.469V327.352C202.469 326.784 202.482 326.044 202.508 325.133C202.539 324.221 202.565 323.669 202.586 323.477H202.523L199.094 333H197.445ZM217.414 327.273C217.414 329.133 216.948 330.578 216.016 331.609C215.089 332.641 213.773 333.156 212.07 333.156C210.346 333.156 209.021 332.646 208.094 331.625C207.172 330.599 206.711 329.143 206.711 327.258C206.711 325.372 207.174 323.924 208.102 322.914C209.034 321.904 210.362 321.398 212.086 321.398C213.784 321.398 215.096 321.911 216.023 322.938C216.951 323.964 217.414 325.409 217.414 327.273ZM208.695 327.273C208.695 328.68 208.979 329.747 209.547 330.477C210.115 331.201 210.956 331.562 212.07 331.562C213.18 331.562 214.016 331.203 214.578 330.484C215.146 329.766 215.43 328.695 215.43 327.273C215.43 325.872 215.148 324.81 214.586 324.086C214.029 323.362 213.195 323 212.086 323C210.966 323 210.12 323.362 209.547 324.086C208.979 324.81 208.695 325.872 208.695 327.273ZM229.383 333H227.094L221.477 323.898H221.414L221.453 324.406C221.526 325.375 221.562 326.26 221.562 327.062V333H219.867V321.578H222.133L227.734 330.633H227.781C227.771 330.513 227.75 330.078 227.719 329.328C227.688 328.573 227.672 327.984 227.672 327.562V321.578H229.383V333Z" fill="#BABABA"/>
<path d="M254.453 333H252.586V323.18H249.227V321.578H257.812V323.18H254.453V333ZM268.523 321.578V328.969C268.523 329.812 268.341 330.552 267.977 331.188C267.617 331.818 267.094 332.305 266.406 332.648C265.724 332.987 264.906 333.156 263.953 333.156C262.536 333.156 261.435 332.781 260.648 332.031C259.862 331.281 259.469 330.25 259.469 328.938V321.578H261.344V328.805C261.344 329.747 261.562 330.443 262 330.891C262.438 331.339 263.109 331.562 264.016 331.562C265.776 331.562 266.656 330.638 266.656 328.789V321.578H268.523ZM277.906 333H271.445V321.578H277.906V323.156H273.312V326.266H277.617V327.828H273.312V331.414H277.906V333Z" fill="#BABABA"/>
<path d="M319.047 333H317.016L315.078 326.188C314.995 325.891 314.891 325.464 314.766 324.906C314.641 324.344 314.565 323.953 314.539 323.734C314.487 324.068 314.401 324.5 314.281 325.031C314.167 325.562 314.07 325.958 313.992 326.219L312.102 333H310.07L308.594 327.281L307.094 321.578H309L310.633 328.234C310.888 329.302 311.07 330.245 311.18 331.062C311.237 330.62 311.323 330.125 311.438 329.578C311.552 329.031 311.656 328.589 311.75 328.25L313.609 321.578H315.461L317.367 328.281C317.549 328.901 317.742 329.828 317.945 331.062C318.023 330.318 318.211 329.37 318.508 328.219L320.133 321.578H322.023L319.047 333ZM330.109 333H323.648V321.578H330.109V323.156H325.516V326.266H329.82V327.828H325.516V331.414H330.109V333ZM341.875 327.18C341.875 329.065 341.352 330.508 340.305 331.508C339.258 332.503 337.75 333 335.781 333H332.586V321.578H336.117C337.935 321.578 339.349 322.068 340.359 323.047C341.37 324.026 341.875 325.404 341.875 327.18ZM339.906 327.242C339.906 324.508 338.628 323.141 336.07 323.141H334.453V331.43H335.781C338.531 331.43 339.906 330.034 339.906 327.242Z" fill="#BABABA"/>
<path d="M370.453 333H368.586V323.18H365.227V321.578H373.812V323.18H370.453V333ZM384.578 333H382.703V327.852H377.438V333H375.57V321.578H377.438V326.25H382.703V321.578H384.578V333ZM396.539 321.578V328.969C396.539 329.812 396.357 330.552 395.992 331.188C395.633 331.818 395.109 332.305 394.422 332.648C393.74 332.987 392.922 333.156 391.969 333.156C390.552 333.156 389.451 332.781 388.664 332.031C387.878 331.281 387.484 330.25 387.484 328.938V321.578H389.359V328.805C389.359 329.747 389.578 330.443 390.016 330.891C390.453 331.339 391.125 331.562 392.031 331.562C393.792 331.562 394.672 330.638 394.672 328.789V321.578H396.539Z" fill="#BABABA"/>
<path d="M426.359 333H424.508V321.578H430.953V323.156H426.359V326.727H430.664V328.312H426.359V333ZM434.891 326.891H436.188C437.057 326.891 437.688 326.729 438.078 326.406C438.469 326.083 438.664 325.604 438.664 324.969C438.664 324.323 438.453 323.859 438.031 323.578C437.609 323.297 436.974 323.156 436.125 323.156H434.891V326.891ZM434.891 328.438V333H433.023V321.578H436.25C437.724 321.578 438.815 321.854 439.523 322.406C440.232 322.958 440.586 323.792 440.586 324.906C440.586 326.328 439.846 327.341 438.367 327.945L441.594 333H439.469L436.734 328.438H434.891ZM443.258 333V321.578H445.125V333H443.258Z" fill="#BABABA"/>
<path d="M24.0938 233H22.2578V225.625C22.2578 224.745 22.2786 224.047 22.3203 223.531C22.2005 223.656 22.0521 223.794 21.875 223.945C21.7031 224.096 21.1198 224.576 20.125 225.383L19.2031 224.219L22.5625 221.578H24.0938V233ZM35.5859 227.289C35.5859 229.273 35.2656 230.747 34.625 231.711C33.9896 232.674 33.0156 233.156 31.7031 233.156C30.4323 233.156 29.4688 232.659 28.8125 231.664C28.1562 230.669 27.8281 229.211 27.8281 227.289C27.8281 225.273 28.1458 223.789 28.7812 222.836C29.4219 221.878 30.3958 221.398 31.7031 221.398C32.9792 221.398 33.9453 221.898 34.6016 222.898C35.2578 223.898 35.5859 225.362 35.5859 227.289ZM29.6875 227.289C29.6875 228.846 29.8464 229.958 30.1641 230.625C30.487 231.292 31 231.625 31.7031 231.625C32.4062 231.625 32.9193 231.286 33.2422 230.609C33.5703 229.932 33.7344 228.826 33.7344 227.289C33.7344 225.758 33.5703 224.651 33.2422 223.969C32.9193 223.281 32.4062 222.938 31.7031 222.938C31 222.938 30.487 223.273 30.1641 223.945C29.8464 224.617 29.6875 225.732 29.6875 227.289ZM39.3672 228.438L40.4062 227.141L43.0156 224.359H45.1328L41.6562 228.07L45.3516 233H43.1953L40.4219 229.211L39.4141 230.039V233H37.5938V220.844H39.4141V226.773L39.3203 228.438H39.3672Z" fill="#BABABA"/>
<path d="M26.4453 176H18.7031V174.609L21.6484 171.648C22.5182 170.758 23.0938 170.128 23.375 169.758C23.6615 169.383 23.8698 169.031 24 168.703C24.1302 168.375 24.1953 168.023 24.1953 167.648C24.1953 167.133 24.0391 166.727 23.7266 166.43C23.4193 166.133 22.9922 165.984 22.4453 165.984C22.0078 165.984 21.5833 166.065 21.1719 166.227C20.7656 166.388 20.2943 166.68 19.7578 167.102L18.7656 165.891C19.401 165.354 20.0182 164.974 20.6172 164.75C21.2161 164.526 21.8542 164.414 22.5312 164.414C23.5938 164.414 24.4453 164.693 25.0859 165.25C25.7266 165.802 26.0469 166.547 26.0469 167.484C26.0469 168 25.9531 168.49 25.7656 168.953C25.5833 169.417 25.2995 169.896 24.9141 170.391C24.5339 170.88 23.8984 171.544 23.0078 172.383L21.0234 174.305V174.383H26.4453V176ZM35.5859 170.289C35.5859 172.273 35.2656 173.747 34.625 174.711C33.9896 175.674 33.0156 176.156 31.7031 176.156C30.4323 176.156 29.4688 175.659 28.8125 174.664C28.1562 173.669 27.8281 172.211 27.8281 170.289C27.8281 168.273 28.1458 166.789 28.7812 165.836C29.4219 164.878 30.3958 164.398 31.7031 164.398C32.9792 164.398 33.9453 164.898 34.6016 165.898C35.2578 166.898 35.5859 168.362 35.5859 170.289ZM29.6875 170.289C29.6875 171.846 29.8464 172.958 30.1641 173.625C30.487 174.292 31 174.625 31.7031 174.625C32.4062 174.625 32.9193 174.286 33.2422 173.609C33.5703 172.932 33.7344 171.826 33.7344 170.289C33.7344 168.758 33.5703 167.651 33.2422 166.969C32.9193 166.281 32.4062 165.938 31.7031 165.938C31 165.938 30.487 166.273 30.1641 166.945C29.8464 167.617 29.6875 168.732 29.6875 170.289ZM39.3672 171.438L40.4062 170.141L43.0156 167.359H45.1328L41.6562 171.07L45.3516 176H43.1953L40.4219 172.211L39.4141 173.039V176H37.5938V163.844H39.4141V169.773L39.3203 171.438H39.3672Z" fill="#BABABA"/>
<path d="M26.0156 110.203C26.0156 110.927 25.8047 111.531 25.3828 112.016C24.9609 112.495 24.3672 112.818 23.6016 112.984V113.047C24.5182 113.161 25.2057 113.448 25.6641 113.906C26.1224 114.359 26.3516 114.964 26.3516 115.719C26.3516 116.818 25.9635 117.667 25.1875 118.266C24.4115 118.859 23.3073 119.156 21.875 119.156C20.6094 119.156 19.5417 118.951 18.6719 118.539V116.906C19.1562 117.146 19.6693 117.331 20.2109 117.461C20.7526 117.591 21.2734 117.656 21.7734 117.656C22.6589 117.656 23.3203 117.492 23.7578 117.164C24.1953 116.836 24.4141 116.328 24.4141 115.641C24.4141 115.031 24.1719 114.583 23.6875 114.297C23.2031 114.01 22.4427 113.867 21.4062 113.867H20.4141V112.375H21.4219C23.2448 112.375 24.1562 111.745 24.1562 110.484C24.1562 109.995 23.9974 109.617 23.6797 109.352C23.362 109.086 22.8932 108.953 22.2734 108.953C21.8411 108.953 21.4245 109.016 21.0234 109.141C20.6224 109.26 20.1484 109.497 19.6016 109.852L18.7031 108.57C19.75 107.799 20.9661 107.414 22.3516 107.414C23.5026 107.414 24.401 107.661 25.0469 108.156C25.6927 108.651 26.0156 109.333 26.0156 110.203ZM35.5859 113.289C35.5859 115.273 35.2656 116.747 34.625 117.711C33.9896 118.674 33.0156 119.156 31.7031 119.156C30.4323 119.156 29.4688 118.659 28.8125 117.664C28.1562 116.669 27.8281 115.211 27.8281 113.289C27.8281 111.273 28.1458 109.789 28.7812 108.836C29.4219 107.878 30.3958 107.398 31.7031 107.398C32.9792 107.398 33.9453 107.898 34.6016 108.898C35.2578 109.898 35.5859 111.362 35.5859 113.289ZM29.6875 113.289C29.6875 114.846 29.8464 115.958 30.1641 116.625C30.487 117.292 31 117.625 31.7031 117.625C32.4062 117.625 32.9193 117.286 33.2422 116.609C33.5703 115.932 33.7344 114.826 33.7344 113.289C33.7344 111.758 33.5703 110.651 33.2422 109.969C32.9193 109.281 32.4062 108.938 31.7031 108.938C31 108.938 30.487 109.273 30.1641 109.945C29.8464 110.617 29.6875 111.732 29.6875 113.289ZM39.3672 114.438L40.4062 113.141L43.0156 110.359H45.1328L41.6562 114.07L45.3516 119H43.1953L40.4219 115.211L39.4141 116.039V119H37.5938V106.844H39.4141V112.773L39.3203 114.438H39.3672Z" fill="#BABABA"/>
<path d="M26.8516 59.5078H25.3125V62H23.5234V59.5078H18.3047V58.0938L23.5234 50.5469H25.3125V57.9844H26.8516V59.5078ZM23.5234 57.9844V55.1172C23.5234 54.0964 23.5495 53.2604 23.6016 52.6094H23.5391C23.3932 52.9531 23.1641 53.3698 22.8516 53.8594L20.0156 57.9844H23.5234ZM35.5859 56.2891C35.5859 58.2734 35.2656 59.7474 34.625 60.7109C33.9896 61.6745 33.0156 62.1562 31.7031 62.1562C30.4323 62.1562 29.4688 61.6589 28.8125 60.6641C28.1562 59.6693 27.8281 58.2109 27.8281 56.2891C27.8281 54.2734 28.1458 52.7891 28.7812 51.8359C29.4219 50.8776 30.3958 50.3984 31.7031 50.3984C32.9792 50.3984 33.9453 50.8984 34.6016 51.8984C35.2578 52.8984 35.5859 54.362 35.5859 56.2891ZM29.6875 56.2891C29.6875 57.8464 29.8464 58.9583 30.1641 59.625C30.487 60.2917 31 60.625 31.7031 60.625C32.4062 60.625 32.9193 60.2865 33.2422 59.6094C33.5703 58.9323 33.7344 57.8255 33.7344 56.2891C33.7344 54.7578 33.5703 53.651 33.2422 52.9688C32.9193 52.2812 32.4062 51.9375 31.7031 51.9375C31 51.9375 30.487 52.2734 30.1641 52.9453C29.8464 53.6172 29.6875 54.7318 29.6875 56.2891ZM39.3672 57.4375L40.4062 56.1406L43.0156 53.3594H45.1328L41.6562 57.0703L45.3516 62H43.1953L40.4219 58.2109L39.4141 59.0391V62H37.5938V49.8438H39.4141V55.7734L39.3203 57.4375H39.3672Z" fill="#BABABA"/>
</svg>
