<svg width="318" height="318" viewBox="0 0 318 318" fill="none" xmlns="http://www.w3.org/2000/svg">
<rect width="318" height="318" rx="5" fill="white"/>
<rect x="24" y="179" width="271" height="11" rx="5.5" fill="#F0F0F0"/>
<rect x="24" y="179" width="209" height="11" rx="5.5" fill="#FE9B02"/>
<path d="M134.695 138.413C136.997 138.413 138.818 138.944 140.157 140.007C141.496 141.058 142.166 142.469 142.166 144.24C142.166 146.73 140.672 148.712 137.684 150.184C139.587 151.135 140.938 152.137 141.734 153.188C142.542 154.24 142.946 155.413 142.946 156.708C142.946 158.711 142.21 160.316 140.738 161.522C139.266 162.729 137.274 163.332 134.762 163.332C132.128 163.332 130.086 162.768 128.636 161.639C127.186 160.51 126.461 158.91 126.461 156.841C126.461 155.491 126.837 154.279 127.59 153.205C128.354 152.12 129.599 151.158 131.325 150.316C129.842 149.431 128.785 148.496 128.154 147.511C127.523 146.526 127.208 145.419 127.208 144.19C127.208 142.431 127.9 141.031 129.283 139.99C130.667 138.939 132.471 138.413 134.695 138.413ZM130.196 156.708C130.196 157.859 130.6 158.756 131.408 159.397C132.216 160.028 133.312 160.344 134.695 160.344C136.123 160.344 137.23 160.017 138.016 159.364C138.812 158.7 139.211 157.804 139.211 156.675C139.211 155.778 138.846 154.959 138.115 154.218C137.385 153.476 136.278 152.79 134.795 152.159L134.313 151.943C132.853 152.585 131.801 153.294 131.159 154.068C130.517 154.832 130.196 155.712 130.196 156.708ZM134.662 141.418C133.555 141.418 132.664 141.695 131.989 142.248C131.314 142.79 130.977 143.532 130.977 144.473C130.977 145.048 131.098 145.563 131.342 146.017C131.585 146.47 131.939 146.885 132.404 147.262C132.869 147.627 133.655 148.07 134.762 148.59C136.09 148.003 137.025 147.389 137.567 146.747C138.121 146.094 138.397 145.336 138.397 144.473C138.397 143.532 138.054 142.79 137.368 142.248C136.693 141.695 135.791 141.418 134.662 141.418ZM162.37 163H145.918V160.045L152.177 153.753C154.025 151.86 155.248 150.521 155.846 149.735C156.454 148.938 156.897 148.191 157.174 147.494C157.451 146.797 157.589 146.05 157.589 145.253C157.589 144.157 157.257 143.294 156.593 142.663C155.94 142.032 155.032 141.717 153.87 141.717C152.94 141.717 152.038 141.888 151.164 142.231C150.301 142.575 149.299 143.194 148.159 144.091L146.051 141.518C147.401 140.378 148.713 139.57 149.985 139.094C151.258 138.618 152.614 138.38 154.053 138.38C156.311 138.38 158.12 138.972 159.481 140.156C160.843 141.329 161.523 142.912 161.523 144.904C161.523 146 161.324 147.04 160.926 148.025C160.538 149.01 159.935 150.029 159.116 151.08C158.308 152.12 156.958 153.532 155.065 155.313L150.849 159.397V159.563H162.37V163ZM168.479 146C168.479 147.649 168.64 148.878 168.961 149.686C169.282 150.493 169.808 150.897 170.538 150.897C171.999 150.897 172.729 149.265 172.729 146C172.729 142.735 171.999 141.103 170.538 141.103C169.808 141.103 169.282 141.507 168.961 142.314C168.64 143.122 168.479 144.351 168.479 146ZM175.95 145.967C175.95 148.512 175.491 150.427 174.572 151.711C173.665 152.984 172.32 153.62 170.538 153.62C168.856 153.62 167.55 152.962 166.62 151.645C165.701 150.316 165.242 148.424 165.242 145.967C165.242 140.909 167.007 138.38 170.538 138.38C172.276 138.38 173.609 139.038 174.539 140.355C175.48 141.661 175.95 143.532 175.95 145.967ZM184.284 155.695C184.284 157.344 184.445 158.578 184.766 159.397C185.098 160.216 185.629 160.626 186.359 160.626C187.809 160.626 188.534 158.982 188.534 155.695C188.534 152.452 187.809 150.831 186.359 150.831C185.629 150.831 185.098 151.229 184.766 152.026C184.445 152.823 184.284 154.046 184.284 155.695ZM191.755 155.695C191.755 158.241 191.296 160.15 190.377 161.423C189.458 162.696 188.119 163.332 186.359 163.332C184.677 163.332 183.371 162.679 182.441 161.373C181.512 160.056 181.047 158.163 181.047 155.695C181.047 150.637 182.818 148.108 186.359 148.108C188.064 148.108 189.386 148.761 190.327 150.067C191.279 151.373 191.755 153.249 191.755 155.695ZM186.824 138.729L173.36 163H170.14L183.604 138.729H186.824Z" fill="black"/>
<rect x="24" y="39" width="136" height="18" rx="9" fill="#E0E4EA"/>
<rect x="24" y="260" width="271" height="18" rx="9" fill="#E0E4EA"/>
<rect x="24" y="78" width="95" height="18" rx="9" fill="#E0E4EA"/>
</svg>
