<svg width="467" height="438" viewBox="0 0 467 438" fill="none" xmlns="http://www.w3.org/2000/svg">
<rect x="111" y="71" width="289" height="289" rx="20" fill="white"/>
<path d="M336.044 206.464L328.248 205.651C327.767 201.022 326.854 196.522 325.554 192.192C325.227 191.109 324.878 190.036 324.503 188.976C323.008 184.732 321.131 180.664 318.917 176.817C306.179 154.697 282.23 139.835 254.934 140.001C254.517 140.005 254.101 140.011 253.684 140.021C253.636 140.021 253.592 140.024 253.544 140.024C253.169 140.033 252.794 140.046 252.419 140.059C252.406 140.059 252.397 140.059 252.384 140.059C227.548 141.068 205.508 154.492 192.949 174.911C190.928 178.197 192.202 182.515 195.668 184.206C198.714 185.693 202.369 184.594 204.14 181.705C214.979 164.05 233.973 153.233 255.01 153.105C285.247 152.919 310.484 175.193 314.865 204.257L307.713 203.511C306.044 203.338 304.818 205.039 305.509 206.567L317.149 232.277C317.364 232.751 317.713 233.097 318.12 233.309C319.017 233.773 320.205 233.587 320.878 232.668L337.569 209.911C338.561 208.556 337.713 206.637 336.044 206.464Z" fill="#26A6FE"/>
<path d="M315.343 247.636C315.157 247.54 314.968 247.453 314.776 247.376C314.699 247.344 314.622 247.322 314.545 247.296C314.43 247.255 314.315 247.21 314.196 247.175C314.097 247.146 313.997 247.127 313.898 247.101C313.802 247.079 313.706 247.05 313.61 247.031C313.495 247.008 313.376 246.995 313.258 246.976C313.177 246.963 313.097 246.95 313.021 246.941C312.886 246.928 312.755 246.922 312.62 246.918C312.556 246.915 312.495 246.909 312.431 246.909C312.284 246.906 312.136 246.915 311.989 246.922C311.941 246.925 311.893 246.925 311.848 246.928C311.685 246.941 311.525 246.963 311.365 246.989C311.333 246.995 311.301 246.995 311.268 247.002C311.096 247.031 310.926 247.069 310.756 247.111C310.737 247.114 310.718 247.117 310.698 247.123C310.519 247.171 310.34 247.226 310.163 247.29C310.157 247.293 310.151 247.293 310.144 247.296C308.86 247.758 307.71 248.622 306.896 249.827C306.871 249.865 306.842 249.9 306.816 249.939C295.567 267.335 276.32 277.7 255.286 277.331C225.911 276.819 201.76 255.224 197.023 227.252L204.524 227.611C206.2 227.691 207.33 225.923 206.555 224.436L193.496 199.414C192.728 197.941 190.655 197.842 189.749 199.235L174.355 222.889C173.439 224.295 174.397 226.163 176.072 226.243L183.679 226.608C188.163 261.332 217.115 288.676 252.871 290.355C252.922 290.358 252.973 290.361 253.025 290.361C253.7 290.39 254.376 290.416 255.055 290.428C279.302 290.851 301.422 279.375 315.202 260.8C316.121 259.561 317.002 258.292 317.844 256.992C319.942 253.754 318.773 249.407 315.343 247.636Z" fill="#26A6FE"/>
<g filter="url(#filter0_d)">
<rect x="20" y="132" width="109" height="109" rx="10" fill="white"/>
</g>
<mask id="path-5-inside-1" fill="white">
<path fill-rule="evenodd" clip-rule="evenodd" d="M93.2215 166.799C93.2215 167.438 93.3494 168.048 93.5815 168.606L85.533 174.072C84.6606 173.28 83.4942 172.794 82.2146 172.794C80.3292 172.794 78.6896 173.847 77.8744 175.386L72.1812 173.907C72.1837 173.843 72.185 173.78 72.185 173.716C72.185 171.071 69.9918 168.918 67.2965 168.918C64.6011 168.918 62.408 171.071 62.408 173.716C62.408 174.328 62.5253 174.913 62.7392 175.452L55.2614 180.363C54.3834 179.541 53.195 179.035 51.8885 179.035C49.1932 179.035 47 181.187 47 183.832C47 186.477 49.1932 188.63 51.8885 188.63C54.5852 188.63 56.7783 186.477 56.777 183.832C56.777 183.22 56.6595 182.634 56.4454 182.095L63.9229 177.184C64.8009 178.007 65.9896 178.513 67.2965 178.513C69.1814 178.513 70.8208 177.46 71.6362 175.923L77.3298 177.402C77.3273 177.465 77.326 177.528 77.326 177.592C77.326 180.237 79.5192 182.389 82.2146 182.389C84.9099 182.389 87.1031 180.237 87.1031 177.592C87.1031 176.954 86.9754 176.344 86.7438 175.787L94.793 170.32C95.6652 171.112 96.8311 171.596 98.11 171.596C100.807 171.596 102.999 169.443 102.999 166.797C102.999 164.152 100.805 162 98.11 162C95.4147 162 93.2215 164.154 93.2215 166.799ZM95.3469 166.797C95.3469 165.302 96.5863 164.086 98.11 164.086C99.6337 164.086 100.874 165.302 100.873 166.797C100.873 168.293 99.6337 169.509 98.11 169.509C96.5863 169.509 95.3469 168.293 95.3469 166.797ZM64.5334 173.714C64.5334 172.219 65.7728 171.003 67.2965 171.003C68.8201 171.003 70.0595 172.219 70.0595 173.714C70.0595 175.21 68.8201 176.426 67.2965 176.426C65.7728 176.426 64.5334 175.21 64.5334 173.714ZM49.1254 183.831C49.1254 182.336 50.3648 181.119 51.8885 181.119C53.4122 181.119 54.6529 182.336 54.6516 183.831C54.6516 185.326 53.4122 186.543 51.8885 186.543C50.3648 186.543 49.1254 185.326 49.1254 183.831ZM82.2146 174.879C80.6909 174.879 79.4515 176.095 79.4515 177.591C79.4515 179.086 80.6909 180.302 82.2146 180.302C83.7382 180.302 84.9776 179.086 84.9776 177.591C84.9776 176.097 83.7382 174.879 82.2146 174.879ZM50.8262 199.646H52.9516V212.001H50.8262V199.646ZM60.6562 194.447H58.5308V212H60.6562V194.447ZM66.2339 185.01H68.3593V212H66.2339V185.01ZM76.0629 189.389H73.9375V212.002H76.0629V189.389ZM81.6406 195.291H83.7661V212H81.6406V195.291ZM91.4697 187.587H89.3442V212.002H91.4697V187.587ZM97.0474 178.688H99.1728V212.002H97.0474V178.688Z"/>
</mask>
<path fill-rule="evenodd" clip-rule="evenodd" d="M93.2215 166.799C93.2215 167.438 93.3494 168.048 93.5815 168.606L85.533 174.072C84.6606 173.28 83.4942 172.794 82.2146 172.794C80.3292 172.794 78.6896 173.847 77.8744 175.386L72.1812 173.907C72.1837 173.843 72.185 173.78 72.185 173.716C72.185 171.071 69.9918 168.918 67.2965 168.918C64.6011 168.918 62.408 171.071 62.408 173.716C62.408 174.328 62.5253 174.913 62.7392 175.452L55.2614 180.363C54.3834 179.541 53.195 179.035 51.8885 179.035C49.1932 179.035 47 181.187 47 183.832C47 186.477 49.1932 188.63 51.8885 188.63C54.5852 188.63 56.7783 186.477 56.777 183.832C56.777 183.22 56.6595 182.634 56.4454 182.095L63.9229 177.184C64.8009 178.007 65.9896 178.513 67.2965 178.513C69.1814 178.513 70.8208 177.46 71.6362 175.923L77.3298 177.402C77.3273 177.465 77.326 177.528 77.326 177.592C77.326 180.237 79.5192 182.389 82.2146 182.389C84.9099 182.389 87.1031 180.237 87.1031 177.592C87.1031 176.954 86.9754 176.344 86.7438 175.787L94.793 170.32C95.6652 171.112 96.8311 171.596 98.11 171.596C100.807 171.596 102.999 169.443 102.999 166.797C102.999 164.152 100.805 162 98.11 162C95.4147 162 93.2215 164.154 93.2215 166.799ZM95.3469 166.797C95.3469 165.302 96.5863 164.086 98.11 164.086C99.6337 164.086 100.874 165.302 100.873 166.797C100.873 168.293 99.6337 169.509 98.11 169.509C96.5863 169.509 95.3469 168.293 95.3469 166.797ZM64.5334 173.714C64.5334 172.219 65.7728 171.003 67.2965 171.003C68.8201 171.003 70.0595 172.219 70.0595 173.714C70.0595 175.21 68.8201 176.426 67.2965 176.426C65.7728 176.426 64.5334 175.21 64.5334 173.714ZM49.1254 183.831C49.1254 182.336 50.3648 181.119 51.8885 181.119C53.4122 181.119 54.6529 182.336 54.6516 183.831C54.6516 185.326 53.4122 186.543 51.8885 186.543C50.3648 186.543 49.1254 185.326 49.1254 183.831ZM82.2146 174.879C80.6909 174.879 79.4515 176.095 79.4515 177.591C79.4515 179.086 80.6909 180.302 82.2146 180.302C83.7382 180.302 84.9776 179.086 84.9776 177.591C84.9776 176.097 83.7382 174.879 82.2146 174.879ZM50.8262 199.646H52.9516V212.001H50.8262V199.646ZM60.6562 194.447H58.5308V212H60.6562V194.447ZM66.2339 185.01H68.3593V212H66.2339V185.01ZM76.0629 189.389H73.9375V212.002H76.0629V189.389ZM81.6406 195.291H83.7661V212H81.6406V195.291ZM91.4697 187.587H89.3442V212.002H91.4697V187.587ZM97.0474 178.688H99.1728V212.002H97.0474V178.688Z" fill="#037F74"/>
<path d="M93.5815 168.606L93.7501 168.854L93.9525 168.716L93.8585 168.491L93.5815 168.606ZM85.533 174.072L85.3312 174.294L85.5061 174.453L85.7015 174.32L85.533 174.072ZM77.8744 175.386L77.7989 175.676L78.0284 175.736L78.1395 175.526L77.8744 175.386ZM72.1812 173.907L71.8814 173.895L71.8717 174.136L72.1057 174.197L72.1812 173.907ZM62.7392 175.452L62.9039 175.703L63.1082 175.568L63.018 175.341L62.7392 175.452ZM55.2614 180.363L55.0563 180.582L55.2286 180.743L55.426 180.614L55.2614 180.363ZM56.777 183.832H56.477V183.832L56.777 183.832ZM56.4454 182.095L56.2807 181.844L56.0763 181.979L56.1666 182.206L56.4454 182.095ZM63.9229 177.184L64.128 176.965L63.9556 176.804L63.7582 176.934L63.9229 177.184ZM71.6362 175.923L71.7116 175.632L71.4822 175.573L71.3711 175.782L71.6362 175.923ZM77.3298 177.402L77.6296 177.414L77.6392 177.172L77.4053 177.112L77.3298 177.402ZM86.7438 175.787L86.5752 175.538L86.3729 175.676L86.4667 175.902L86.7438 175.787ZM94.793 170.32L94.9947 170.098L94.8198 169.939L94.6244 170.071L94.793 170.32ZM100.873 166.797L100.573 166.797V166.797H100.873ZM54.6516 183.831L54.3516 183.831V183.831H54.6516ZM52.9516 199.646H53.2516V199.346H52.9516V199.646ZM50.8262 199.646V199.346H50.5262V199.646H50.8262ZM52.9516 212.001V212.301H53.2516V212.001H52.9516ZM50.8262 212.001H50.5262V212.301H50.8262V212.001ZM58.5308 194.447V194.147H58.2308V194.447H58.5308ZM60.6562 194.447H60.9562V194.147H60.6562V194.447ZM58.5308 212H58.2308V212.3H58.5308V212ZM60.6562 212V212.3H60.9562V212H60.6562ZM68.3593 185.01H68.6593V184.71H68.3593V185.01ZM66.2339 185.01V184.71H65.9339V185.01H66.2339ZM68.3593 212V212.3H68.6593V212H68.3593ZM66.2339 212H65.9339V212.3H66.2339V212ZM73.9375 189.389V189.089H73.6375V189.389H73.9375ZM76.0629 189.389H76.3629V189.089H76.0629V189.389ZM73.9375 212.002H73.6375V212.302H73.9375V212.002ZM76.0629 212.002V212.302H76.3629V212.002H76.0629ZM83.7661 195.291H84.0661V194.991H83.7661V195.291ZM81.6406 195.291V194.991H81.3406V195.291H81.6406ZM83.7661 212V212.3H84.0661V212H83.7661ZM81.6406 212H81.3406V212.3H81.6406V212ZM89.3442 187.587V187.287H89.0442V187.587H89.3442ZM91.4697 187.587H91.7697V187.287H91.4697V187.587ZM89.3442 212.002H89.0442V212.302H89.3442V212.002ZM91.4697 212.002V212.302H91.7697V212.002H91.4697ZM99.1728 178.688H99.4728V178.388H99.1728V178.688ZM97.0474 178.688V178.388H96.7474V178.688H97.0474ZM99.1728 212.002V212.302H99.4728V212.002H99.1728ZM97.0474 212.002H96.7474V212.302H97.0474V212.002ZM93.8585 168.491C93.6413 167.968 93.5215 167.397 93.5215 166.799H92.9215C92.9215 167.478 93.0576 168.127 93.3045 168.721L93.8585 168.491ZM85.7015 174.32L93.7501 168.854L93.4129 168.358L85.3644 173.824L85.7015 174.32ZM82.2146 173.094C83.4171 173.094 84.5123 173.55 85.3312 174.294L85.7347 173.85C84.809 173.009 83.5712 172.494 82.2146 172.494V173.094ZM78.1395 175.526C78.9039 174.084 80.4429 173.094 82.2146 173.094V172.494C80.2156 172.494 78.4753 173.611 77.6093 175.245L78.1395 175.526ZM72.1057 174.197L77.7989 175.676L77.9498 175.095L72.2566 173.616L72.1057 174.197ZM71.885 173.716C71.885 173.776 71.8838 173.835 71.8814 173.895L72.4809 173.919C72.4836 173.851 72.485 173.784 72.485 173.716H71.885ZM67.2965 169.218C69.8315 169.218 71.885 171.242 71.885 173.716H72.485C72.485 170.9 70.1521 168.618 67.2965 168.618V169.218ZM62.708 173.716C62.708 171.242 64.7615 169.218 67.2965 169.218V168.618C64.4408 168.618 62.108 170.9 62.108 173.716H62.708ZM63.018 175.341C62.8179 174.837 62.708 174.289 62.708 173.716H62.108C62.108 174.366 62.2328 174.989 62.4603 175.562L63.018 175.341ZM55.426 180.614L62.9039 175.703L62.5745 175.201L55.0967 180.112L55.426 180.614ZM51.8885 179.335C53.1163 179.335 54.2321 179.81 55.0563 180.582L55.4664 180.144C54.5348 179.271 53.2736 178.735 51.8885 178.735V179.335ZM47.3 183.832C47.3 181.358 49.3535 179.335 51.8885 179.335V178.735C49.0328 178.735 46.7 181.016 46.7 183.832H47.3ZM51.8885 188.33C49.3535 188.33 47.3 186.306 47.3 183.832H46.7C46.7 186.648 49.0328 188.93 51.8885 188.93V188.33ZM56.477 183.832C56.4783 186.306 54.4249 188.33 51.8885 188.33V188.93C54.7454 188.93 57.0784 186.648 57.077 183.832L56.477 183.832ZM56.1666 182.206C56.367 182.71 56.477 183.259 56.477 183.832H57.077C57.077 183.181 56.952 182.558 56.7242 181.984L56.1666 182.206ZM63.7582 176.934L56.2807 181.844L56.6101 182.346L64.0876 177.435L63.7582 176.934ZM67.2965 178.213C66.0684 178.213 64.9523 177.738 64.128 176.965L63.7177 177.403C64.6495 178.276 65.9109 178.813 67.2965 178.813V178.213ZM71.3711 175.782C70.6065 177.224 69.0678 178.213 67.2965 178.213V178.813C69.2951 178.813 71.035 177.697 71.9012 176.063L71.3711 175.782ZM77.4053 177.112L71.7116 175.632L71.5607 176.213L77.2544 177.692L77.4053 177.112ZM77.626 177.592C77.626 177.532 77.6272 177.473 77.6296 177.414L77.0301 177.39C77.0274 177.457 77.0261 177.524 77.0261 177.592H77.626ZM82.2146 182.089C79.6796 182.089 77.626 180.066 77.626 177.592H77.0261C77.0261 180.408 79.3589 182.689 82.2146 182.689V182.089ZM86.8031 177.592C86.8031 180.066 84.7495 182.089 82.2146 182.089V182.689C85.0702 182.689 87.4031 180.408 87.4031 177.592H86.8031ZM86.4667 175.902C86.6835 176.424 86.8031 176.994 86.8031 177.592H87.4031C87.4031 176.913 87.2673 176.265 87.0208 175.671L86.4667 175.902ZM94.6244 170.071L86.5752 175.538L86.9123 176.035L94.9616 170.568L94.6244 170.071ZM98.11 171.296C96.9081 171.296 95.8135 170.841 94.9947 170.098L94.5913 170.542C95.5169 171.382 96.754 171.896 98.11 171.896V171.296ZM102.699 166.797C102.699 169.272 100.646 171.296 98.11 171.296V171.896C100.967 171.896 103.299 169.613 103.299 166.797H102.699ZM98.11 162.3C100.645 162.3 102.699 164.323 102.699 166.797H103.299C103.299 163.981 100.966 161.7 98.11 161.7V162.3ZM93.5215 166.799C93.5215 164.324 95.5751 162.3 98.11 162.3V161.7C95.2542 161.7 92.9215 163.983 92.9215 166.799H93.5215ZM98.11 163.786C96.426 163.786 95.0469 165.131 95.0469 166.797H95.6469C95.6469 165.473 96.7467 164.386 98.11 164.386V163.786ZM101.173 166.798C101.175 165.131 99.7938 163.786 98.11 163.786V164.386C99.4736 164.386 100.574 165.473 100.573 166.797L101.173 166.798ZM98.11 169.809C99.794 169.809 101.173 168.464 101.173 166.797H100.573C100.573 168.122 99.4733 169.209 98.11 169.209V169.809ZM95.0469 166.797C95.0469 168.464 96.426 169.809 98.11 169.809V169.209C96.7467 169.209 95.6469 168.122 95.6469 166.797H95.0469ZM67.2965 170.703C65.6125 170.703 64.2334 172.048 64.2334 173.714H64.8334C64.8334 172.39 65.9331 171.303 67.2965 171.303V170.703ZM70.3595 173.714C70.3595 172.048 68.9805 170.703 67.2965 170.703V171.303C68.6598 171.303 69.7595 172.39 69.7595 173.714H70.3595ZM67.2965 176.726C68.9805 176.726 70.3595 175.381 70.3595 173.714H69.7595C69.7595 175.039 68.6598 176.126 67.2965 176.126V176.726ZM64.2334 173.714C64.2334 175.381 65.6125 176.726 67.2965 176.726V176.126C65.9331 176.126 64.8334 175.039 64.8334 173.714H64.2334ZM51.8885 180.819C50.2045 180.819 48.8254 182.165 48.8254 183.831H49.4254C49.4254 182.507 50.5252 181.419 51.8885 181.419V180.819ZM54.9516 183.831C54.9531 182.165 53.5723 180.819 51.8885 180.819V181.419C53.2521 181.419 54.3528 182.507 54.3516 183.831L54.9516 183.831ZM51.8885 186.843C53.5725 186.843 54.9516 185.497 54.9516 183.831H54.3516C54.3516 185.155 53.2518 186.243 51.8885 186.243V186.843ZM48.8254 183.831C48.8254 185.497 50.2045 186.843 51.8885 186.843V186.243C50.5252 186.243 49.4254 185.155 49.4254 183.831H48.8254ZM79.7515 177.591C79.7515 176.266 80.8512 175.179 82.2146 175.179V174.579C80.5305 174.579 79.1515 175.924 79.1515 177.591H79.7515ZM82.2146 180.002C80.8512 180.002 79.7515 178.915 79.7515 177.591H79.1515C79.1515 179.257 80.5305 180.602 82.2146 180.602V180.002ZM84.6776 177.591C84.6776 178.915 83.5779 180.002 82.2146 180.002V180.602C83.8986 180.602 85.2776 179.257 85.2776 177.591H84.6776ZM82.2146 175.179C83.5778 175.179 84.6776 176.267 84.6776 177.591H85.2776C85.2776 175.926 83.8987 174.579 82.2146 174.579V175.179ZM52.9516 199.346H50.8262V199.946H52.9516V199.346ZM53.2516 212.001V199.646H52.6516V212.001H53.2516ZM50.8262 212.301H52.9516V211.701H50.8262V212.301ZM50.5262 199.646V212.001H51.1262V199.646H50.5262ZM58.5308 194.747H60.6562V194.147H58.5308V194.747ZM58.8308 212V194.447H58.2308V212H58.8308ZM60.6562 211.7H58.5308V212.3H60.6562V211.7ZM60.3562 194.447V212H60.9562V194.447H60.3562ZM68.3593 184.71H66.2339V185.31H68.3593V184.71ZM68.6593 212V185.01H68.0593V212H68.6593ZM66.2339 212.3H68.3593V211.7H66.2339V212.3ZM65.9339 185.01V212H66.5339V185.01H65.9339ZM73.9375 189.689H76.0629V189.089H73.9375V189.689ZM74.2375 212.002V189.389H73.6375V212.002H74.2375ZM76.0629 211.702H73.9375V212.302H76.0629V211.702ZM75.7629 189.389V212.002H76.3629V189.389H75.7629ZM83.7661 194.991H81.6406V195.591H83.7661V194.991ZM84.0661 212V195.291H83.4661V212H84.0661ZM81.6406 212.3H83.7661V211.7H81.6406V212.3ZM81.3406 195.291V212H81.9406V195.291H81.3406ZM89.3442 187.887H91.4697V187.287H89.3442V187.887ZM89.6442 212.002V187.587H89.0442V212.002H89.6442ZM91.4697 211.702H89.3442V212.302H91.4697V211.702ZM91.1697 187.587V212.002H91.7697V187.587H91.1697ZM99.1728 178.388H97.0474V178.988H99.1728V178.388ZM99.4728 212.002V178.688H98.8728V212.002H99.4728ZM97.0474 212.302H99.1728V211.702H97.0474V212.302ZM96.7474 178.688V212.002H97.3474V178.688H96.7474Z" fill="#00AF9E" mask="url(#path-5-inside-1)"/>
<g filter="url(#filter1_d)">
<rect x="319" y="16" width="109" height="109" rx="10" fill="white"/>
</g>
<path d="M357.125 70.2328H360.875C361.652 70.2328 362.283 70.8631 362.283 71.6406C362.283 72.4181 361.652 73.0484 360.875 73.0484H357.125C356.348 73.0484 355.717 72.4181 355.717 71.6406C355.717 70.8631 356.348 70.2328 357.125 70.2328Z" fill="#EC4467" stroke="white" stroke-width="0.7"/>
<path d="M357.125 77.7328H360.875C361.652 77.7328 362.283 78.3631 362.283 79.1406C362.283 79.9181 361.652 80.5484 360.875 80.5484H357.125C356.348 80.5484 355.717 79.9181 355.717 79.1406C355.717 78.3631 356.348 77.7328 357.125 77.7328Z" fill="#EC4467" stroke="white" stroke-width="0.7"/>
<path d="M357.125 85.2328H360.875C361.652 85.2328 362.283 85.8631 362.283 86.6406C362.283 87.4181 361.652 88.0484 360.875 88.0484H357.125C356.348 88.0484 355.717 87.4181 355.717 86.6406C355.717 85.8631 356.348 85.2328 357.125 85.2328Z" fill="#EC4467" stroke="white" stroke-width="0.7"/>
<path d="M372.125 70.2328H375.875C376.652 70.2328 377.283 70.8631 377.283 71.6406C377.283 72.4181 376.652 73.0484 375.875 73.0484H372.125C371.348 73.0484 370.717 72.4181 370.717 71.6406C370.717 70.8631 371.348 70.2328 372.125 70.2328Z" fill="#EC4467" stroke="white" stroke-width="0.7"/>
<path d="M372.125 77.7328H375.875C376.652 77.7328 377.283 78.3631 377.283 79.1406C377.283 79.9181 376.652 80.5484 375.875 80.5484H372.125C371.348 80.5484 370.717 79.9181 370.717 79.1406C370.717 78.3631 371.348 77.7328 372.125 77.7328Z" fill="#EC4467" stroke="white" stroke-width="0.7"/>
<path d="M372.125 85.2328H375.875C376.652 85.2328 377.283 85.8631 377.283 86.6406C377.283 87.4181 376.652 88.0484 375.875 88.0484H372.125C371.348 88.0484 370.717 87.4181 370.717 86.6406C370.717 85.8631 371.348 85.2328 372.125 85.2328Z" fill="#EC4467" stroke="white" stroke-width="0.7"/>
<path d="M387.125 70.2328H390.875C391.652 70.2328 392.283 70.8631 392.283 71.6406C392.283 72.4181 391.652 73.0484 390.875 73.0484H387.125C386.348 73.0484 385.717 72.4181 385.717 71.6406C385.717 70.8631 386.348 70.2328 387.125 70.2328Z" fill="#EC4467" stroke="white" stroke-width="0.7"/>
<path d="M387.125 77.7328H390.875C391.652 77.7328 392.283 78.3631 392.283 79.1406C392.283 79.9181 391.652 80.5484 390.875 80.5484H387.125C386.348 80.5484 385.717 79.9181 385.717 79.1406C385.717 78.3631 386.348 77.7328 387.125 77.7328Z" fill="#EC4467" stroke="white" stroke-width="0.7"/>
<path d="M387.125 85.2328H390.875C391.652 85.2328 392.283 85.8631 392.283 86.6406C392.283 87.4181 391.652 88.0484 390.875 88.0484H387.125C386.348 88.0484 385.717 87.4181 385.717 86.6406C385.717 85.8631 386.348 85.2328 387.125 85.2328Z" fill="#EC4467" stroke="white" stroke-width="0.7"/>
<path d="M394.158 48.3203V48.6703H394.508H398.727C401.441 48.6703 403.65 50.8793 403.65 53.5938V53.5999V53.607V53.6148V53.6234V53.6328V53.6431V53.6541V53.666V53.6786V53.692V53.7062V53.7212V53.737V53.7536V53.7709V53.789V53.8079V53.8275V53.8479V53.8691V53.891V53.9136V53.937V53.9612V53.9861V54.0117V54.0381V54.0652V54.0931V54.1216V54.1509V54.1809V54.2116V54.2431V54.2752V54.3081V54.3417V54.3759V54.4109V54.4465V54.4829V54.5199V54.5577V54.5961V54.6351V54.6749V54.7153V54.7564V54.7982V54.8406V54.8837V54.9275V54.9719V55.0169V55.0626V55.1089V55.1559V55.2035V55.2518V55.3007V55.3502V55.4003V55.4511V55.5024V55.5544V55.607V55.6602V55.714V55.7685V55.8235V55.8791V55.9353V55.9921V56.0495V56.1074V56.166V56.2251V56.2848V56.345V56.4059V56.4672V56.5292V56.5917V56.6548V56.7184V56.7826V56.8473V56.9125V56.9783V57.0446V57.1115V57.1789V57.2468V57.3152V57.3841V57.4536V57.5236V57.5941V57.6651V57.7366V57.8086V57.8811V57.9541V58.0275V58.1015V58.1759V58.2509V58.3263V58.4022V58.4785V58.5553V58.6326V58.7104V58.7886V58.8672V58.9464V59.0259V59.1059V59.1864V59.2673V59.3486V59.4304V59.5125V59.5952V59.6782V59.7617V59.8455V59.9298V60.0145V60.0996V60.1851V60.271V60.3574V60.4441V60.5312V60.6186V60.7065V60.7948V60.8834V60.9724V61.0618V61.1515V61.2416V61.3321V61.4229V61.5141V61.6057V61.6975V61.7898V61.8824V61.9753V62.0686V62.1621V62.2561V62.3503V62.4449V62.5398V62.635V62.7305V62.8264V62.9225V63.019V63.1157V63.2128V63.3101V63.4078V63.5057V63.6039V63.7024V63.8012V63.9003V63.9996V64.0992V64.1991V64.2992V64.3996V64.5002V64.6011V64.7023V64.8037V64.9053V65.0072V65.1093V65.2117V65.3143V65.4171V65.5202V65.6234V65.7269V65.8306V65.9345V66.0386V66.143V66.2475V66.3522V66.4572V66.5623V66.6676V66.7731V66.8788V66.9846V67.0907V67.1969V67.3033V67.4098V67.5165V67.6234V67.7305V67.8376V67.945V68.0525V68.1601V68.2679V68.3758V68.4839V68.5921V68.7004V68.8088V68.9174V69.0261V69.1349V69.2438V69.3528V69.4619V69.5712V69.6805V69.79V69.8995V70.0091V70.1188V70.2286V70.3385V70.4484V70.5585V70.6686V70.7787V70.889V70.9993V71.1096V71.22V71.3305V71.441V71.5516V71.6622V71.7728V71.8835V71.9942V72.105V72.2157V72.3265V72.4373V72.5482V72.659V72.7699V72.8808V72.9916V73.1025V73.2134V73.3243V73.4351V73.546V73.6568V73.7676V73.8784V73.9892V74.0999V74.2107V74.3213V74.432V74.5426V74.6532V74.7637V74.8741V74.9846V75.0949V75.2052V75.3155V75.4256V75.5357V75.6458V75.7557V75.8656V75.9754V76.0851V76.1947V76.3043V76.4137V76.5231V76.6323V76.7414V76.8505V76.9594V77.0682V77.1769V77.2855V77.3939V77.5022V77.6104V77.7185V77.8264V77.9342V78.0419V78.1493V78.2567V78.3639V78.4709V78.5778V78.6846V78.7911V78.8975V79.0037V79.1098V79.2157V79.3214V79.4269V79.5322V79.6373V79.7423V79.847V79.9515V80.0559V80.16V80.2639V80.3676V80.4711V80.5744V80.6775V80.7803V80.8829V80.9853V81.0874V81.1893V81.291V81.3924V81.4936V81.5945V81.6951V81.7955V81.8957V81.9956V82.0952V82.1945V82.2936V82.3924V82.4909V82.5891V82.6871V82.7847V82.8821V82.9792V83.076V83.1724V83.2686V83.3645V83.46V83.5552V83.6501V83.7447V83.839V83.933V84.0266V84.1198V84.2128V84.3054V84.3976V84.4896V84.5811V84.6723V84.7632V84.8537V84.9438V85.0336V85.123V85.212V85.3006V85.3889V85.4768V85.5643V85.6514V85.7381V85.8245V85.9104V85.9959V86.0811V86.1658V86.2501V86.334V86.4175V86.5005V86.5832V86.6654V86.7472V86.8285V86.9094V86.9899V87.07V87.1495V87.2287V87.3074V87.3856V87.4634V87.5407V87.6175V87.6939V87.7698V87.8453V87.9202V87.9947V88.0687V88.1422V88.2152V88.2877V88.3597V88.4313V88.5023V88.5728V88.6428V88.7123V88.7813V88.8498V88.9177V88.9851V89.052V89.1183V89.1842V89.2494V89.3142V89.3784V89.442V89.5051V89.5677V89.6296V89.6911V89.7519V89.8122V89.8719V89.9311V89.9897V90.0477V90.1051V90.1619V90.2181V90.2738V90.3288V90.3833V90.4371V90.4904V90.543V90.595V90.6464V90.6972V90.7474V90.7969V90.8458V90.8941V90.9418V90.9888V91.0352V91.0809V91.126V91.1704V91.2142V91.2573V91.2998V91.3416V91.3827V91.4232V91.463V91.5021V91.5405V91.5783V91.6154V91.6518V91.6875V91.7225V91.7568V91.7904V91.8233V91.8555V91.8869V91.9177V91.9478V91.9771V92.0057V92.0336V92.0607V92.0871V92.1128V92.1377V92.1619V92.1854V92.2081V92.2301V92.2513V92.2717V92.2914V92.3103V92.3284V92.3458V92.3624V92.3782V92.3933V92.4075V92.421V92.4337V92.4455V92.4566V92.4669V92.4764V92.4851V92.4929V92.5C403.65 95.2145 401.441 97.4234 398.727 97.4234H349.273C346.559 97.4234 344.35 95.2145 344.35 92.5V53.5938C344.35 50.8793 346.559 48.6703 349.273 48.6703H353.492H353.842V48.3203V45.3906C353.842 44.6131 354.473 43.9828 355.25 43.9828C356.027 43.9828 356.658 44.6131 356.658 45.3906V48.3203V48.6703H357.008H372.242H372.592V48.3203V45.3906C372.592 44.6131 373.223 43.9828 374 43.9828C374.777 43.9828 375.408 44.6131 375.408 45.3906V48.3203V48.6703H375.758H390.992H391.342V48.3203V45.3906C391.342 44.6131 391.973 43.9828 392.75 43.9828C393.527 43.9828 394.158 44.6131 394.158 45.3906V48.3203ZM353.842 51.8359V51.4859H353.492H349.273C348.111 51.4859 347.166 52.4312 347.166 53.5938V60.5078V60.8578H347.516H400.484H400.834V60.5078V53.5938C400.834 52.4312 399.889 51.4859 398.727 51.4859H394.508H394.158V51.8359V54.7656C394.158 55.5431 393.527 56.1734 392.75 56.1734C391.973 56.1734 391.342 55.5431 391.342 54.7656V51.8359V51.4859H390.992H375.758H375.408V51.8359V54.7656C375.408 55.5431 374.777 56.1734 374 56.1734C373.223 56.1734 372.592 55.5431 372.592 54.7656V51.8359V51.4859H372.242H357.008H356.658V51.8359V54.7656C356.658 55.5431 356.027 56.1734 355.25 56.1734C354.473 56.1734 353.842 55.5431 353.842 54.7656V51.8359ZM347.516 63.6734H347.166V64.0234V92.5C347.166 93.6626 348.111 94.6078 349.273 94.6078H398.727C399.889 94.6078 400.834 93.6626 400.834 92.5V64.0234V63.6734H400.484H347.516Z" fill="#EC4467" stroke="white" stroke-width="0.7"/>
<g filter="url(#filter2_d)">
<rect x="338" y="305" width="109" height="109" rx="10" fill="white"/>
</g>
<path d="M392.396 385.584L392.396 385.584C392.029 385.186 387.4 380.125 382.869 373.518C380.604 370.214 378.377 366.543 376.72 362.891C375.056 359.226 374 355.653 374 352.523C374 342.355 382.5 334.036 393 334.036C403.5 334.036 412 342.355 412 352.523C412 355.653 410.944 359.226 409.281 362.891C407.623 366.543 405.396 370.214 403.131 373.518C398.6 380.125 393.971 385.186 393.605 385.584L393.605 385.584C393.286 385.93 392.715 385.931 392.396 385.584ZM391.66 386.262C392.376 387.039 393.626 387.037 394.34 386.262C395.102 385.435 413 365.858 413 352.523C413 341.778 404.028 333.036 393 333.036C381.972 333.036 373 341.778 373 352.523C373 365.858 390.898 385.435 391.66 386.262ZM381.938 352.523C381.938 358.506 386.924 363.328 393 363.328C399.076 363.328 404.062 358.506 404.062 352.523C404.062 346.54 399.076 341.719 393 341.719C386.924 341.719 381.938 346.54 381.938 352.523Z" stroke="#FE9B02" stroke-width="2"/>
<defs>
<filter id="filter0_d" x="0" y="116" width="149" height="149" filterUnits="userSpaceOnUse" color-interpolation-filters="sRGB">
<feFlood flood-opacity="0" result="BackgroundImageFix"/>
<feColorMatrix in="SourceAlpha" type="matrix" values="0 0 0 0 0 0 0 0 0 0 0 0 0 0 0 0 0 0 127 0"/>
<feOffset dy="4"/>
<feGaussianBlur stdDeviation="10"/>
<feColorMatrix type="matrix" values="0 0 0 0 0 0 0 0 0 0 0 0 0 0 0 0 0 0 0.06 0"/>
<feBlend mode="normal" in2="BackgroundImageFix" result="effect1_dropShadow"/>
<feBlend mode="normal" in="SourceGraphic" in2="effect1_dropShadow" result="shape"/>
</filter>
<filter id="filter1_d" x="299" y="0" width="149" height="149" filterUnits="userSpaceOnUse" color-interpolation-filters="sRGB">
<feFlood flood-opacity="0" result="BackgroundImageFix"/>
<feColorMatrix in="SourceAlpha" type="matrix" values="0 0 0 0 0 0 0 0 0 0 0 0 0 0 0 0 0 0 127 0"/>
<feOffset dy="4"/>
<feGaussianBlur stdDeviation="10"/>
<feColorMatrix type="matrix" values="0 0 0 0 0 0 0 0 0 0 0 0 0 0 0 0 0 0 0.06 0"/>
<feBlend mode="normal" in2="BackgroundImageFix" result="effect1_dropShadow"/>
<feBlend mode="normal" in="SourceGraphic" in2="effect1_dropShadow" result="shape"/>
</filter>
<filter id="filter2_d" x="318" y="289" width="149" height="149" filterUnits="userSpaceOnUse" color-interpolation-filters="sRGB">
<feFlood flood-opacity="0" result="BackgroundImageFix"/>
<feColorMatrix in="SourceAlpha" type="matrix" values="0 0 0 0 0 0 0 0 0 0 0 0 0 0 0 0 0 0 127 0"/>
<feOffset dy="4"/>
<feGaussianBlur stdDeviation="10"/>
<feColorMatrix type="matrix" values="0 0 0 0 0 0 0 0 0 0 0 0 0 0 0 0 0 0 0.06 0"/>
<feBlend mode="normal" in2="BackgroundImageFix" result="effect1_dropShadow"/>
<feBlend mode="normal" in="SourceGraphic" in2="effect1_dropShadow" result="shape"/>
</filter>
</defs>
</svg>
