<svg width="347" height="457" viewBox="0 0 347 457" fill="none" xmlns="http://www.w3.org/2000/svg">
<path d="M341.048 0C341.048 2.81919 338.335 5.10724 334.993 5.10724C331.651 5.10724 328.939 2.81919 328.939 0H324.903C324.903 2.81919 322.19 5.10724 318.848 5.10724C315.506 5.10724 312.794 2.81919 312.794 0H308.758C308.758 2.81919 306.045 5.10724 302.703 5.10724C299.361 5.10724 296.649 2.81919 296.649 0H292.613C292.613 2.81919 289.9 5.10724 286.558 5.10724C283.216 5.10724 280.504 2.81919 280.504 0H276.468C276.468 2.81919 273.755 5.10724 270.413 5.10724C267.071 5.10724 264.359 2.81919 264.359 0H260.323C260.323 2.81919 257.61 5.10724 254.268 5.10724C250.926 5.10724 248.214 2.81919 248.214 0H244.178C244.178 2.81919 241.465 5.10724 238.123 5.10724C234.781 5.10724 232.069 2.81919 232.069 0H228.033C228.033 2.81919 225.32 5.10724 221.978 5.10724C218.636 5.10724 215.924 2.81919 215.924 0H211.888C211.888 2.81919 209.175 5.10724 205.833 5.10724C202.491 5.10724 199.779 2.81919 199.779 0H195.742C195.742 2.81919 193.03 5.10724 189.688 5.10724C186.346 5.10724 183.639 2.81919 183.639 0H179.603C179.603 2.81919 176.89 5.10724 173.548 5.10724C170.206 5.10724 167.494 2.81919 167.494 0H163.458C163.458 2.81919 160.745 5.10724 157.403 5.10724C154.061 5.10724 151.349 2.81919 151.349 0H147.313C147.313 2.81919 144.6 5.10724 141.258 5.10724C137.916 5.10724 135.204 2.81919 135.204 0H131.168C131.168 2.81919 128.455 5.10724 125.113 5.10724C121.771 5.10724 119.059 2.81919 119.059 0H115.023C115.023 2.81919 112.31 5.10724 108.968 5.10724C105.626 5.10724 102.919 2.81919 102.919 0H98.883C98.883 2.81919 96.1706 5.10724 92.8286 5.10724C89.4866 5.10724 86.7742 2.81919 86.7742 0H82.738C82.738 2.81919 80.0256 5.10724 76.6836 5.10724C73.3415 5.10724 70.6292 2.81919 70.6292 0H66.5929C66.5929 2.81919 63.8805 5.10724 60.5385 5.10724C57.1965 5.10724 54.4841 2.81919 54.4841 0H50.4479C50.4479 2.81919 47.7355 5.10724 44.3935 5.10724C41.0515 5.10724 38.3391 2.81919 38.3391 0H34.3028C34.3028 2.81919 31.5905 5.10724 28.2484 5.10724C24.9064 5.10724 22.1994 2.81919 22.1994 0H18.1632C18.1632 2.81919 15.4508 5.10724 12.1088 5.10724C8.76676 5.10724 6.05439 2.81919 6.05439 0H0V457H6.05439C6.05439 454.181 8.76676 451.893 12.1088 451.893C15.4508 451.893 18.1632 454.181 18.1632 457H22.1994C22.1994 454.181 24.9118 451.893 28.2538 451.893C31.5958 451.893 34.3082 454.181 34.3082 457H38.3445C38.3445 454.181 41.0568 451.893 44.3989 451.893C47.7409 451.893 50.4533 454.181 50.4533 457H54.4895C54.4895 454.181 57.2019 451.893 60.5439 451.893C63.8859 451.893 66.5983 454.181 66.5983 457H70.6346C70.6346 454.181 73.3469 451.893 76.6889 451.893C80.031 451.893 82.7433 454.181 82.7433 457H86.7796C86.7796 454.181 89.492 451.893 92.834 451.893C96.176 451.893 98.8884 454.181 98.8884 457H102.925C102.925 454.181 105.637 451.893 108.979 451.893C112.321 451.893 115.033 454.181 115.033 457H119.07C119.07 454.181 121.782 451.893 125.124 451.893C128.466 451.893 131.178 454.181 131.178 457H135.215C135.215 454.181 137.927 451.893 141.269 451.893C144.611 451.893 147.323 454.181 147.323 457H151.36C151.36 454.181 154.072 451.893 157.414 451.893C160.756 451.893 163.469 454.181 163.469 457H167.505C167.505 454.181 170.217 451.893 173.559 451.893C176.901 451.893 179.614 454.181 179.614 457H183.65C183.65 454.181 186.362 451.893 189.704 451.893C193.046 451.893 195.759 454.181 195.759 457H199.795C199.795 454.181 202.507 451.893 205.849 451.893C209.191 451.893 211.904 454.181 211.904 457H215.94C215.94 454.181 218.652 451.893 221.994 451.893C225.336 451.893 228.049 454.181 228.049 457H232.085C232.085 454.181 234.797 451.893 238.139 451.893C241.481 451.893 244.194 454.181 244.194 457H248.23C248.23 454.181 250.942 451.893 254.284 451.893C257.626 451.893 260.339 454.181 260.339 457H264.375C264.375 454.181 267.087 451.893 270.429 451.893C273.771 451.893 276.484 454.181 276.484 457H280.52C280.52 454.181 283.232 451.893 286.574 451.893C289.917 451.893 292.629 454.181 292.629 457H296.665C296.665 454.181 299.377 451.893 302.72 451.893C306.062 451.893 308.774 454.181 308.774 457H312.81C312.81 454.181 315.523 451.893 318.865 451.893C322.207 451.893 324.919 454.181 324.919 457H328.955C328.955 454.181 331.668 451.893 335.01 451.893C338.352 451.893 341.064 454.181 341.064 457H347V0H341.048Z" fill="white"/>
<path d="M91.6052 62.1555C90.5278 62.6949 88.3731 63.2343 85.6151 63.2343C79.221 63.2343 74.4053 59.1888 74.4053 51.7396C74.4053 44.6248 79.221 39.8079 86.2561 39.8079C89.0842 39.8079 90.8672 40.412 91.6429 40.8219L90.9372 43.2169C89.8275 42.6775 88.2438 42.273 86.3585 42.273C81.0418 42.273 77.5027 45.6766 77.5027 51.6425C77.5027 57.2038 80.7024 60.78 86.2238 60.78C88.0068 60.78 89.8275 60.4078 91.0019 59.8361L91.6052 62.1555Z" fill="black"/>
<path d="M99.0769 55.7475L96.7229 62.8946H93.6956L101.404 40.1748H104.938L112.678 62.8946H109.549L107.125 55.7475H99.0769ZM106.516 53.455L104.297 46.9174C103.79 45.434 103.456 44.0855 103.117 42.7694H103.047C102.713 44.1179 102.341 45.4988 101.905 46.8796L99.6856 53.455H106.516Z" fill="black"/>
<path d="M115.603 59.3239C116.918 60.133 118.835 60.8073 120.855 60.8073C123.85 60.8073 125.601 59.2214 125.601 56.9289C125.601 54.8037 124.389 53.59 121.324 52.4141C117.623 51.0979 115.334 49.1776 115.334 45.9736C115.334 42.435 118.264 39.8027 122.671 39.8027C124.992 39.8027 126.679 40.3421 127.686 40.9139L126.878 43.3089C126.14 42.9043 124.621 42.2301 122.568 42.2301C119.471 42.2301 118.291 44.0856 118.291 45.6337C118.291 47.759 119.67 48.8001 122.8 50.0137C126.635 51.4971 128.591 53.3527 128.591 56.6862C128.591 60.1923 126 63.2238 120.645 63.2238C118.458 63.2238 116.067 62.5819 114.855 61.7728L115.603 59.3239Z" fill="black"/>
<path d="M135.534 40.1748V49.6792H146.507V40.1748H149.47V62.8946H146.507V52.2413H135.534V62.8946H132.604V40.1748H135.534Z" fill="black"/>
<path d="M161.687 40.4771C163.169 40.175 165.291 40.0078 167.311 40.0078C170.441 40.0078 172.461 40.5796 173.877 41.8634C175.019 42.8721 175.661 44.4256 175.661 46.1786C175.661 49.1777 173.775 51.1682 171.383 51.9773V52.0798C173.134 52.6839 174.179 54.3021 174.718 56.6647C175.461 59.831 175.994 62.0264 176.469 62.9003H173.441C173.069 62.2584 172.569 60.3057 171.927 57.4738C171.254 54.3399 170.042 53.1586 167.381 53.0561H164.623V62.9003H161.693V40.4771H161.687ZM164.618 50.8283H167.613C170.742 50.8283 172.73 49.1076 172.73 46.5131C172.73 43.5787 170.608 42.3003 167.51 42.2679C166.099 42.2679 165.086 42.4028 164.618 42.5376V50.8283Z" fill="black"/>
<path d="M191.546 52.2413H182.728V60.435H192.558V62.8946H179.797V40.1748H192.052V42.6345H182.728V49.814H191.546V52.2413Z" fill="black"/>
<path d="M212.215 62.1555C211.137 62.6949 208.983 63.2343 206.225 63.2343C199.831 63.2343 195.015 59.1888 195.015 51.7396C195.015 44.6248 199.831 39.8079 206.866 39.8079C209.694 39.8079 211.477 40.412 212.253 40.8219L211.547 43.2169C210.437 42.6775 208.853 42.273 206.968 42.273C201.651 42.273 198.112 45.6766 198.112 51.6425C198.112 57.2038 201.312 60.78 206.833 60.78C208.616 60.78 210.437 60.4078 211.611 59.8361L212.215 62.1555Z" fill="black"/>
<path d="M227.632 52.2413H218.813V60.435H228.644V62.8946H215.883V40.1748H228.138V42.6345H218.813V49.814H227.632V52.2413Z" fill="black"/>
<path d="M235.372 40.1748V62.8946H232.442V40.1748H235.372Z" fill="black"/>
<path d="M240.484 40.4447C241.896 40.2074 243.749 40.0078 246.108 40.0078C249.001 40.0078 251.123 40.6821 252.47 41.8957C253.714 42.9746 254.457 44.6251 254.457 46.6479C254.457 48.7031 253.854 50.3213 252.707 51.5026C251.155 53.1532 248.634 53.9947 245.774 53.9947C244.901 53.9947 244.093 53.9623 243.42 53.7897V62.8895H240.49V40.4447H240.484ZM243.415 51.4001C244.056 51.5673 244.864 51.6374 245.839 51.6374C249.372 51.6374 251.527 49.9167 251.527 46.7828C251.527 43.7837 249.405 42.3327 246.173 42.3327C244.896 42.3327 243.916 42.4351 243.415 42.57V51.4001Z" fill="black"/>
<path d="M262.705 42.6669H255.804V40.1748H272.6V42.6669H265.667V62.8946H262.705V42.6669Z" fill="black"/>
<path d="M321.377 84.1475H16.7725V85.2263H321.377V84.1475Z" fill="#BFBFBF"/>
<path d="M324.884 173.651H20.2793V174.73H324.884V173.651Z" fill="#BFBFBF"/>
<path d="M20.6671 113.794C21.3566 114.22 22.3693 114.576 23.4359 114.576C25.0142 114.576 25.9354 113.74 25.9354 112.532C25.9354 111.415 25.2943 110.773 23.6837 110.153C21.7337 109.462 20.5271 108.448 20.5271 106.76C20.5271 104.894 22.0677 103.507 24.3948 103.507C25.6176 103.507 26.5064 103.793 27.0397 104.095L26.6141 105.357C26.2263 105.142 25.4236 104.791 24.3409 104.791C22.7087 104.791 22.0892 105.767 22.0892 106.587C22.0892 107.704 22.8164 108.26 24.4648 108.896C26.4902 109.678 27.5191 110.654 27.5191 112.413C27.5191 114.263 26.1508 115.86 23.3336 115.86C22.1808 115.86 20.9203 115.52 20.2847 115.094L20.6671 113.794Z" fill="#606060"/>
<path d="M29.5823 103.06H31.1444V108.427H31.1821C31.4299 107.984 31.8232 107.591 32.2972 107.326C32.7605 107.062 33.3099 106.884 33.8971 106.884C35.0498 106.884 36.8975 107.596 36.8975 110.563V115.682H35.3353V110.741C35.3353 109.354 34.8236 108.184 33.3476 108.184C32.3349 108.184 31.5377 108.896 31.2522 109.748C31.166 109.964 31.1444 110.191 31.1444 110.493V115.682H29.5823V103.06Z" fill="#606060"/>
<path d="M47.2021 111.307C47.2021 114.489 45.0043 115.87 42.925 115.87C40.598 115.87 38.8096 114.166 38.8096 111.447C38.8096 108.567 40.6895 106.884 43.0705 106.884C45.5376 106.878 47.2021 108.675 47.2021 111.307ZM40.3879 111.393C40.3879 113.276 41.4706 114.7 42.9951 114.7C44.4872 114.7 45.6023 113.297 45.6023 111.361C45.6023 109.904 44.8751 108.054 43.0274 108.054C41.1905 108.054 40.3879 109.759 40.3879 111.393Z" fill="#606060"/>
<path d="M49.1792 109.883C49.1792 108.783 49.1415 107.893 49.1091 107.078H50.5097L50.5797 108.551H50.6174C51.2584 107.504 52.2658 106.879 53.6663 106.879C55.7402 106.879 57.3024 108.637 57.3024 111.248C57.3024 114.339 55.4224 115.865 53.397 115.865C52.2604 115.865 51.2692 115.369 50.7521 114.517H50.7144V119.188H49.1684V109.883H49.1792ZM50.7252 112.176C50.7252 112.408 50.7629 112.618 50.7952 112.818C51.0807 113.902 52.018 114.646 53.1384 114.646C54.7868 114.646 55.7456 113.298 55.7456 111.323C55.7456 109.603 54.8406 108.125 53.1923 108.125C52.1257 108.125 51.1346 108.891 50.8329 110.061C50.779 110.255 50.7252 110.487 50.7252 110.703V112.176Z" fill="#606060"/>
<path d="M63.0986 115.676V103.701H64.7847L68.6201 109.759C69.5089 111.161 70.1984 112.424 70.7694 113.648L70.8071 113.632C70.667 112.035 70.6293 110.579 70.6293 108.713V103.701H72.0837V115.676H70.5216L66.7239 109.597C65.889 108.265 65.0917 106.895 64.4884 105.6L64.4345 105.616C64.5207 107.127 64.5584 108.567 64.5584 110.557V115.676H63.0986Z" fill="#606060"/>
<path d="M79.4852 115.676L79.3614 114.592H79.3075C78.8281 115.266 77.9069 115.871 76.6841 115.871C74.9442 115.871 74.0608 114.646 74.0608 113.4C74.0608 111.323 75.9084 110.185 79.2213 110.201V110.023C79.2213 109.311 79.0274 108.033 77.2713 108.033C76.4741 108.033 75.6391 108.281 75.0358 108.675L74.6803 107.645C75.3913 107.181 76.4202 106.879 77.5029 106.879C80.1263 106.879 80.7673 108.675 80.7673 110.396V113.61C80.7673 114.355 80.805 115.083 80.9073 115.671H79.4852V115.676ZM79.2536 111.286C77.5514 111.248 75.6176 111.55 75.6176 113.222C75.6176 114.236 76.2909 114.716 77.0881 114.716C78.2032 114.716 78.9143 114.004 79.162 113.276C79.2159 113.114 79.2482 112.936 79.2482 112.78V111.286H79.2536Z" fill="#606060"/>
<path d="M83.2829 109.403C83.2829 108.513 83.2668 107.785 83.2129 107.078H84.5811L84.6512 108.464H84.705C85.1844 107.644 85.9817 106.884 87.4038 106.884C88.5727 106.884 89.4615 107.596 89.8332 108.605H89.8709C90.1349 108.124 90.4742 107.752 90.8298 107.488C91.3415 107.094 91.9125 106.884 92.7259 106.884C93.8625 106.884 95.5486 107.628 95.5486 110.617V115.682H94.0241V110.811C94.0241 109.16 93.4208 108.162 92.1603 108.162C91.2715 108.162 90.582 108.82 90.3126 109.586C90.2426 109.802 90.1887 110.082 90.1887 110.368V115.682H88.6643V110.53C88.6643 109.16 88.061 108.168 86.8705 108.168C85.8955 108.168 85.1844 108.95 84.9367 109.732C84.8505 109.964 84.8128 110.228 84.8128 110.498V115.687H83.2883V109.403H83.2829Z" fill="#606060"/>
<path d="M98.9637 111.658C99.0014 113.772 100.348 114.641 101.91 114.641C103.025 114.641 103.704 114.447 104.286 114.198L104.55 115.32C104 115.569 103.058 115.854 101.695 115.854C99.0499 115.854 97.4716 114.112 97.4716 111.518C97.4716 108.923 98.996 106.879 101.501 106.879C104.302 106.879 105.051 109.349 105.051 110.93C105.051 111.248 105.013 111.496 104.997 111.658H98.9637ZM103.537 110.541C103.553 109.549 103.128 108.001 101.372 108.001C99.7933 108.001 99.0984 109.457 98.9745 110.541H103.537Z" fill="#606060"/>
<path d="M106.613 108.497C106.613 107.839 107.055 107.375 107.679 107.375C108.299 107.375 108.708 107.839 108.724 108.497C108.724 109.117 108.315 109.597 107.658 109.597C107.038 109.597 106.613 109.117 106.613 108.497ZM106.613 114.77C106.613 114.112 107.055 113.653 107.679 113.653C108.299 113.653 108.708 114.117 108.724 114.77C108.724 115.39 108.315 115.87 107.658 115.87C107.038 115.87 106.613 115.39 106.613 114.77Z" fill="#606060"/>
<path d="M229.28 113.692C229.948 114.102 230.923 114.447 231.946 114.447C233.465 114.447 234.354 113.643 234.354 112.478C234.354 111.399 233.74 110.784 232.183 110.186C230.303 109.517 229.14 108.541 229.14 106.917C229.14 105.121 230.626 103.783 232.867 103.783C234.047 103.783 234.904 104.058 235.415 104.349L235.006 105.563C234.629 105.358 233.858 105.013 232.819 105.013C231.246 105.013 230.648 105.951 230.648 106.739C230.648 107.818 231.348 108.346 232.937 108.961C234.887 109.716 235.879 110.655 235.879 112.349C235.879 114.129 234.564 115.666 231.844 115.666C230.734 115.666 229.522 115.342 228.903 114.933L229.28 113.692Z" fill="#606060"/>
<path d="M237.855 103.357H239.358V108.524H239.391C239.628 108.098 240.005 107.721 240.468 107.462C240.91 107.203 241.443 107.036 242.009 107.036C243.118 107.036 244.896 107.721 244.896 110.58V115.51H243.393V110.752C243.393 109.42 242.897 108.287 241.481 108.287C240.506 108.287 239.735 108.972 239.466 109.792C239.38 109.997 239.364 110.218 239.364 110.509V115.504H237.861V103.357H237.855Z" fill="#606060"/>
<path d="M254.824 111.296C254.824 114.36 252.707 115.693 250.708 115.693C248.467 115.693 246.744 114.047 246.744 111.431C246.744 108.659 248.553 107.035 250.843 107.035C253.218 107.035 254.824 108.767 254.824 111.296ZM248.263 111.383C248.263 113.195 249.308 114.565 250.773 114.565C252.211 114.565 253.283 113.211 253.283 111.35C253.283 109.948 252.583 108.168 250.805 108.168C249.033 108.168 248.263 109.808 248.263 111.383Z" fill="#606060"/>
<path d="M256.72 109.932C256.72 108.87 256.688 108.017 256.65 107.23H258.002L258.072 108.648H258.104C258.718 107.64 259.693 107.041 261.045 107.041C263.044 107.041 264.547 108.735 264.547 111.248C264.547 114.226 262.737 115.699 260.787 115.699C259.693 115.699 258.735 115.218 258.239 114.399H258.207V118.897H256.72V109.932ZM258.207 112.138C258.207 112.36 258.239 112.565 258.277 112.753C258.551 113.8 259.456 114.517 260.534 114.517C262.123 114.517 263.044 113.217 263.044 111.319C263.044 109.657 262.171 108.239 260.582 108.239C259.559 108.239 258.6 108.972 258.309 110.105C258.255 110.294 258.207 110.515 258.207 110.72V112.138Z" fill="#606060"/>
<path d="M271.98 111.879L270.785 115.509H269.244L273.155 103.977H274.949L278.881 115.509H277.292L276.064 111.879H271.98ZM275.757 110.714L274.631 107.397C274.372 106.641 274.205 105.956 274.033 105.293H274.001C273.828 105.978 273.64 106.679 273.419 107.38L272.293 110.719H275.757V110.714Z" fill="#606060"/>
<path d="M287.462 103.357V113.368C287.462 114.102 287.478 114.943 287.532 115.51H286.18L286.11 114.075H286.078C285.614 114.997 284.607 115.699 283.26 115.699C281.262 115.699 279.721 114.005 279.721 111.491C279.705 108.735 281.413 107.041 283.427 107.041C284.693 107.041 285.544 107.64 285.921 108.309H285.954V103.362H287.462V103.357ZM285.959 110.596C285.959 110.407 285.943 110.153 285.889 109.965C285.668 109.005 284.844 108.217 283.718 108.217C282.161 108.217 281.24 109.587 281.24 111.416C281.24 113.093 282.059 114.48 283.686 114.48C284.693 114.48 285.614 113.811 285.889 112.683C285.937 112.478 285.959 112.273 285.959 112.031V110.596Z" fill="#606060"/>
<path d="M297.104 103.357V113.368C297.104 114.102 297.12 114.943 297.174 115.51H295.822L295.752 114.075H295.72C295.257 114.997 294.249 115.699 292.903 115.699C290.904 115.699 289.364 114.005 289.364 111.491C289.347 108.735 291.055 107.041 293.07 107.041C294.335 107.041 295.187 107.64 295.564 108.309H295.596V103.362H297.104V103.357ZM295.596 110.596C295.596 110.407 295.58 110.153 295.526 109.965C295.305 109.005 294.481 108.217 293.355 108.217C291.798 108.217 290.877 109.587 290.877 111.416C290.877 113.093 291.696 114.48 293.323 114.48C294.33 114.48 295.251 113.811 295.526 112.683C295.574 112.478 295.596 112.273 295.596 112.031V110.596Z" fill="#606060"/>
<path d="M299.598 109.808C299.598 108.831 299.582 107.995 299.528 107.224H300.843L300.897 108.848H300.967C301.344 107.736 302.249 107.035 303.256 107.035C303.428 107.035 303.547 107.051 303.681 107.089V108.508C303.525 108.475 303.374 108.454 303.17 108.454C302.109 108.454 301.36 109.258 301.155 110.385C301.123 110.59 301.085 110.833 301.085 111.086V115.498H299.598V109.808Z" fill="#606060"/>
<path d="M305.853 111.642C305.885 113.676 307.183 114.517 308.691 114.517C309.769 114.517 310.415 114.328 310.981 114.091L311.239 115.17C310.711 115.407 309.806 115.682 308.487 115.682C305.939 115.682 304.42 114.005 304.42 111.507C304.42 109.01 305.89 107.041 308.298 107.041C310.997 107.041 311.713 109.42 311.713 110.941C311.713 111.248 311.681 111.491 311.665 111.642H305.853ZM310.259 110.563C310.275 109.603 309.866 108.114 308.174 108.114C306.655 108.114 305.987 109.517 305.869 110.563H310.259Z" fill="#606060"/>
<path d="M313.372 113.967C313.814 114.258 314.6 114.566 315.355 114.566C316.448 114.566 316.96 114.016 316.96 113.336C316.96 112.618 316.534 112.225 315.419 111.815C313.933 111.286 313.232 110.461 313.232 109.468C313.232 108.136 314.31 107.041 316.087 107.041C316.922 107.041 317.66 107.278 318.118 107.553L317.741 108.648C317.418 108.443 316.82 108.168 316.05 108.168C315.161 108.168 314.665 108.681 314.665 109.296C314.665 109.981 315.161 110.288 316.238 110.698C317.671 111.248 318.409 111.966 318.409 113.196C318.409 114.652 317.283 115.677 315.317 115.677C314.412 115.677 313.572 115.456 312.995 115.111L313.372 113.967Z" fill="#606060"/>
<path d="M320.138 113.967C320.58 114.258 321.366 114.566 322.121 114.566C323.214 114.566 323.726 114.016 323.726 113.336C323.726 112.618 323.3 112.225 322.185 111.815C320.698 111.286 319.998 110.461 319.998 109.468C319.998 108.136 321.075 107.041 322.853 107.041C323.688 107.041 324.426 107.278 324.884 107.553L324.507 108.648C324.184 108.443 323.586 108.168 322.815 108.168C321.927 108.168 321.431 108.681 321.431 109.296C321.431 109.981 321.927 110.288 323.004 110.698C324.437 111.248 325.175 111.966 325.175 113.196C325.175 114.652 324.049 115.677 322.083 115.677C321.178 115.677 320.337 115.456 319.761 115.111L320.138 113.967Z" fill="#606060"/>
<path d="M20.2793 126.885C21.222 126.744 22.3371 126.636 23.5598 126.636C25.7792 126.636 27.3575 127.149 28.4025 128.131C29.4691 129.107 30.0886 130.493 30.0886 132.43C30.0886 134.382 29.4853 135.984 28.3648 137.085C27.2498 138.201 25.4021 138.806 23.075 138.806C21.9761 138.806 21.0496 138.752 20.2739 138.665V126.885H20.2793ZM21.8199 137.473C22.2078 137.543 22.7788 137.559 23.3821 137.559C26.6842 137.559 28.4726 135.709 28.4726 132.478C28.4887 129.652 26.8942 127.861 23.6299 127.861C22.8326 127.861 22.2293 127.931 21.8199 128.023V137.473Z" fill="#606060"/>
<path d="M36.8058 138.704L36.6819 137.62H36.628C36.1486 138.294 35.2275 138.898 34.0047 138.898C32.2648 138.898 31.3813 137.674 31.3813 136.428C31.3813 134.351 33.229 133.213 36.5419 133.229V133.051C36.5419 132.339 36.3479 131.061 34.5919 131.061C33.7946 131.061 32.9597 131.309 32.3563 131.702L32.0008 130.672C32.7119 130.208 33.7407 129.906 34.8235 129.906C37.4468 129.906 38.0879 131.702 38.0879 133.423V136.638C38.0879 137.382 38.1256 138.111 38.2279 138.699H36.8058V138.704ZM36.5742 134.313C34.872 134.275 32.9381 134.578 32.9381 136.25C32.9381 137.264 33.6115 137.744 34.4087 137.744C35.5238 137.744 36.2348 137.032 36.4826 136.304C36.5365 136.142 36.5742 135.964 36.5742 135.807V134.313Z" fill="#606060"/>
<path d="M42.4136 127.635V130.106H44.6491V131.298H42.4136V135.937C42.4136 137.005 42.7152 137.609 43.5825 137.609C43.9919 137.609 44.2936 137.555 44.4875 137.501L44.5575 138.672C44.2559 138.796 43.7764 138.888 43.1731 138.888C42.4459 138.888 41.8588 138.656 41.4871 138.229C41.0454 137.766 40.8838 137.005 40.8838 135.991V131.298H39.5532V130.106H40.8838V128.045L42.4136 127.635Z" fill="#606060"/>
<path d="M47.1756 134.685C47.2133 136.8 48.56 137.668 50.1222 137.668C51.2372 137.668 51.9159 137.474 52.4977 137.226L52.7617 138.348C52.2122 138.596 51.2695 138.882 49.9067 138.882C47.2618 138.882 45.6835 137.14 45.6835 134.545C45.6835 131.951 47.2079 129.906 49.7128 129.906C52.5139 129.906 53.2626 132.377 53.2626 133.957C53.2626 134.275 53.2249 134.524 53.2088 134.685H47.1756ZM51.7543 133.569C51.7705 132.576 51.3449 131.028 49.5889 131.028C48.0105 131.028 47.3157 132.485 47.1918 133.569H51.7543Z" fill="#606060"/>
<path d="M54.8247 131.524C54.8247 130.866 55.2664 130.402 55.8913 130.402C56.5108 130.402 56.9202 130.866 56.9363 131.524C56.9363 132.144 56.5269 132.624 55.8697 132.624C55.2503 132.624 54.8247 132.144 54.8247 131.524ZM54.8247 137.797C54.8247 137.139 55.2664 136.681 55.8913 136.681C56.5108 136.681 56.9202 137.145 56.9363 137.797C56.9363 138.418 56.5269 138.898 55.8697 138.898C55.2503 138.898 54.8247 138.418 54.8247 137.797Z" fill="#606060"/>
<path d="M237.107 133.222C237.021 131.614 236.919 129.678 236.935 128.243H236.881C236.488 129.597 236.008 131.032 235.427 132.623L233.396 138.217H232.27L230.406 132.725C229.857 131.102 229.399 129.613 229.076 128.243H229.043C229.011 129.683 228.925 131.614 228.822 133.34L228.515 138.287H227.099L227.901 126.754H229.797L231.764 132.332C232.243 133.75 232.636 135.018 232.927 136.215H232.976C233.266 135.05 233.676 133.788 234.188 132.332L236.24 126.754H238.136L238.852 138.287H237.398L237.107 133.222Z" fill="#606060"/>
<path d="M250.843 133.223C250.757 131.615 250.655 129.679 250.671 128.244H250.617C250.224 129.598 249.744 131.033 249.163 132.624L247.132 138.218H246.006L244.142 132.727C243.593 131.103 243.135 129.614 242.812 128.244H242.779C242.747 129.684 242.661 131.615 242.558 133.342L242.251 138.288H240.835L241.637 126.755H243.533L245.5 132.333C245.979 133.751 246.372 135.019 246.663 136.217H246.712C247.003 135.051 247.412 133.789 247.924 132.333L249.976 126.755H251.872L252.589 138.288H251.134L250.843 133.223Z" fill="#606060"/>
<path d="M253.564 138.973L258.331 126.566H259.495L254.711 138.973H253.564Z" fill="#606060"/>
<path d="M260.739 126.906C261.644 126.771 262.721 126.668 263.901 126.668C266.039 126.668 267.559 127.165 268.566 128.109C269.589 129.047 270.187 130.385 270.187 132.251C270.187 134.134 269.605 135.671 268.528 136.734C267.451 137.813 265.673 138.395 263.438 138.395C262.376 138.395 261.488 138.341 260.739 138.26V126.906ZM262.226 137.106C262.603 137.176 263.147 137.192 263.729 137.192C266.907 137.192 268.63 135.412 268.63 132.3C268.647 129.581 267.111 127.85 263.966 127.85C263.195 127.85 262.613 127.92 262.22 128.006V137.106H262.226Z" fill="#606060"/>
<path d="M272.121 126.906C273.026 126.771 274.104 126.668 275.283 126.668C277.422 126.668 278.941 127.165 279.948 128.109C280.972 129.047 281.57 130.385 281.57 132.251C281.57 134.134 280.988 135.671 279.91 136.734C278.833 137.813 277.055 138.395 274.82 138.395C273.759 138.395 272.87 138.341 272.121 138.26V126.906ZM273.608 137.106C273.985 137.176 274.529 137.192 275.111 137.192C278.289 137.192 280.013 135.412 280.013 132.3C280.029 129.581 278.494 127.85 275.348 127.85C274.578 127.85 273.996 127.92 273.603 128.006V137.106H273.608Z" fill="#606060"/>
<path d="M282.184 138.973L286.951 126.566H288.114L283.331 138.973H282.184Z" fill="#606060"/>
<path d="M291.928 138.288V133.395L288.287 126.755H289.978L291.6 129.938C292.041 130.812 292.386 131.513 292.742 132.317H292.774C293.097 131.561 293.49 130.812 293.938 129.938L295.597 126.755H297.288L293.426 133.379V138.288H291.928Z" fill="#606060"/>
<path d="M301.221 138.288V133.395L297.579 126.755H299.271L300.892 129.938C301.334 130.812 301.678 131.513 302.034 132.317H302.066C302.389 131.561 302.783 130.812 303.23 129.938L304.889 126.755H306.58L302.718 133.379V138.288H301.221Z" fill="#606060"/>
<path d="M310.518 138.288V133.395L306.876 126.755H308.568L310.189 129.938C310.631 130.812 310.976 131.513 311.331 132.317H311.364C311.687 131.561 312.08 130.812 312.527 129.938L314.186 126.755H315.878L312.015 133.379V138.288H310.518Z" fill="#606060"/>
<path d="M319.816 138.288V133.395L316.174 126.755H317.866L319.487 129.938C319.929 130.812 320.273 131.513 320.629 132.317H320.661C320.984 131.561 321.378 130.812 321.825 129.938L323.484 126.755H325.175L321.313 133.379V138.288H319.816Z" fill="#606060"/>
<path d="M30.6757 153.278C30.5842 151.605 30.4818 149.599 30.498 148.105H30.4441C30.0347 149.507 29.5391 151.001 28.9358 152.652L26.8242 158.461H25.6553L23.7214 152.76C23.1558 151.071 22.6764 149.529 22.337 148.105H22.2993C22.2616 149.599 22.1754 151.605 22.0677 153.402L21.7499 158.537H20.2793L21.1142 146.562H23.0858L25.1274 152.355C25.623 153.828 26.0323 155.144 26.334 156.39H26.3879C26.6895 155.182 27.1151 153.866 27.6484 152.355L29.7761 146.562H31.7477L32.4911 158.537H30.9828L30.6757 153.278Z" fill="#606060"/>
<path d="M39.6767 158.537L39.5528 157.453H39.4989C39.0195 158.128 38.0983 158.732 36.8755 158.732C35.1356 158.732 34.2522 157.507 34.2522 156.261C34.2522 154.184 36.0999 153.046 39.4127 153.063V152.884C39.4127 152.172 39.2188 150.894 37.4627 150.894C36.6655 150.894 35.8305 151.142 35.2272 151.536L34.8717 150.506C35.5827 150.042 36.6116 149.74 37.6943 149.74C40.3177 149.74 40.9587 151.536 40.9587 153.257V156.472C40.9587 157.216 40.9964 157.944 41.0988 158.532H39.6767V158.537ZM39.445 154.152C37.7428 154.114 35.809 154.416 35.809 156.089C35.809 157.103 36.4823 157.583 37.2796 157.583C38.3946 157.583 39.1057 156.871 39.3535 156.143C39.4073 155.981 39.4396 155.803 39.4396 155.646V154.152H39.445Z" fill="#606060"/>
<path d="M43.4799 152.264C43.4799 151.374 43.4638 150.646 43.4099 149.939H44.7943L44.8805 151.363H44.9182C45.3438 150.543 46.3403 149.745 47.757 149.745C48.9475 149.745 50.7898 150.457 50.7898 153.402V158.537H49.2276V153.58C49.2276 152.194 48.7159 151.039 47.2399 151.039C46.211 151.039 45.4138 151.768 45.1444 152.636C45.0744 152.83 45.0367 153.1 45.0367 153.364V158.537H43.4799V152.264Z" fill="#606060"/>
<path d="M58.0885 158.537L57.9646 157.453H57.9108C57.4313 158.128 56.5102 158.732 55.2874 158.732C53.5475 158.732 52.6641 157.507 52.6641 156.261C52.6641 154.184 54.5117 153.046 57.8246 153.063V152.884C57.8246 152.172 57.6306 150.894 55.8746 150.894C55.0773 150.894 54.2424 151.142 53.6391 151.536L53.2835 150.506C53.9946 150.042 55.0235 149.74 56.1062 149.74C58.7295 149.74 59.3706 151.536 59.3706 153.257V156.472C59.3706 157.216 59.4083 157.944 59.5106 158.532H58.0885V158.537ZM57.8569 154.152C56.1547 154.114 54.2208 154.416 54.2208 156.089C54.2208 157.103 54.8942 157.583 55.6914 157.583C56.8065 157.583 57.5175 156.871 57.7653 156.143C57.8192 155.981 57.8569 155.803 57.8569 155.646V154.152Z" fill="#606060"/>
<path d="M69.2933 149.939C69.2556 150.559 69.2233 151.255 69.2233 152.302V157.297C69.2233 159.271 68.8355 160.479 68.0005 161.223C67.1656 162.006 65.9589 162.254 64.8762 162.254C63.8473 162.254 62.7107 162.006 62.0212 161.542L62.4091 160.35C62.9747 160.706 63.8635 161.024 64.9301 161.024C66.5299 161.024 67.6989 160.188 67.6989 158.019V157.059H67.6612C67.1817 157.858 66.2606 158.499 64.9301 158.499C62.8023 158.499 61.2725 156.687 61.2725 154.308C61.2725 151.395 63.174 149.745 65.1402 149.745C66.6323 149.745 67.4457 150.527 67.8174 151.239H67.8551L67.9251 149.944H69.2933V149.939ZM67.6773 153.332C67.6773 153.068 67.6612 152.836 67.5911 152.62C67.3056 151.714 66.5461 150.969 65.4095 150.969C63.9174 150.969 62.8562 152.232 62.8562 154.222C62.8562 155.91 63.7073 157.313 65.3933 157.313C66.3522 157.313 67.2194 156.709 67.5588 155.716C67.645 155.452 67.6827 155.15 67.6827 154.88V153.332H67.6773Z" fill="#606060"/>
<path d="M72.687 154.524C72.7247 156.639 74.0714 157.507 75.6335 157.507C76.7486 157.507 77.4273 157.313 78.0091 157.065L78.273 158.187C77.7236 158.435 76.7809 158.721 75.418 158.721C72.7731 158.721 71.1948 156.978 71.1948 154.384C71.1948 151.789 72.7193 149.745 75.2241 149.745C78.0252 149.745 78.774 152.215 78.774 153.796C78.774 154.114 78.7363 154.362 78.7201 154.524H72.687ZM77.2657 153.402C77.2819 152.41 76.8563 150.861 75.1002 150.861C73.5219 150.861 72.827 152.318 72.7031 153.402H77.2657Z" fill="#606060"/>
<path d="M80.7131 152.62C80.7131 151.606 80.6969 150.737 80.6431 149.939H82.0113L82.0652 151.627H82.1352C82.523 150.473 83.4657 149.745 84.5107 149.745C84.6885 149.745 84.8124 149.761 84.9525 149.799V151.271C84.7909 151.234 84.6346 151.217 84.4192 151.217C83.3203 151.217 82.5392 152.054 82.3237 153.224C82.286 153.44 82.2537 153.688 82.2537 153.952V158.537H80.7077V152.62H80.7131Z" fill="#606060"/>
<path d="M86.3047 151.364C86.3047 150.706 86.7464 150.242 87.3713 150.242C87.9907 150.242 88.4001 150.706 88.4163 151.364C88.4163 151.984 88.0069 152.464 87.3497 152.464C86.7302 152.464 86.3047 151.984 86.3047 151.364ZM86.3047 157.632C86.3047 156.974 86.7464 156.515 87.3713 156.515C87.9907 156.515 88.4001 156.979 88.4163 157.632C88.4163 158.252 88.0069 158.732 87.3497 158.732C86.7302 158.737 86.3047 158.257 86.3047 157.632Z" fill="#606060"/>
<path d="M239.256 148.327H235.755V147.059H244.282V148.327H240.764V158.592H239.261V148.327H239.256Z" fill="#606060"/>
<path d="M251.786 154.384C251.786 157.448 249.669 158.78 247.67 158.78C245.429 158.78 243.705 157.135 243.705 154.519C243.705 151.746 245.515 150.123 247.805 150.123C250.175 150.123 251.786 151.849 251.786 154.384ZM245.219 154.47C245.219 156.283 246.264 157.653 247.729 157.653C249.168 157.653 250.24 156.299 250.24 154.438C250.24 153.036 249.539 151.256 247.762 151.256C245.989 151.25 245.219 152.895 245.219 154.47Z" fill="#606060"/>
<path d="M260.825 146.444V156.456C260.825 157.189 260.841 158.031 260.895 158.597H259.543L259.473 157.162H259.44C258.977 158.085 257.97 158.786 256.623 158.786C254.624 158.786 253.084 157.092 253.084 154.579C253.068 151.822 254.775 150.128 256.79 150.128C258.056 150.128 258.907 150.727 259.284 151.396H259.316V146.45H260.825V146.444ZM259.322 153.683C259.322 153.494 259.306 153.241 259.252 153.052C259.031 152.092 258.207 151.304 257.081 151.304C255.524 151.304 254.603 152.674 254.603 154.503C254.603 156.181 255.422 157.567 257.049 157.567C258.056 157.567 258.977 156.898 259.252 155.771C259.3 155.566 259.322 155.361 259.322 155.118V153.683Z" fill="#606060"/>
<path d="M263.863 150.312L265.673 155.204C265.861 155.754 266.066 156.402 266.2 156.898H266.233C266.389 156.402 266.556 155.771 266.761 155.172L268.404 150.312H269.993L267.736 156.213C266.658 159.056 265.926 160.507 264.897 161.397C264.164 162.049 263.426 162.303 263.049 162.373L262.672 161.105C263.049 160.987 263.545 160.744 263.986 160.372C264.396 160.048 264.908 159.466 265.252 158.694C265.322 158.538 265.371 158.419 265.371 158.333C265.371 158.246 265.339 158.128 265.269 157.939L262.209 150.306H263.863V150.312Z" fill="#606060"/>
<path d="M276.527 147.059V151.887H282.097V147.059H283.6V158.592H282.097V153.187H276.527V158.592H275.04V147.059H276.527Z" fill="#606060"/>
<path d="M290.71 158.592L290.592 157.545H290.543C290.08 158.198 289.191 158.775 288.011 158.775C286.336 158.775 285.48 157.594 285.48 156.396C285.48 154.395 287.257 153.3 290.452 153.316V153.144C290.452 152.459 290.263 151.229 288.572 151.229C287.801 151.229 286.999 151.466 286.417 151.844L286.078 150.851C286.762 150.409 287.753 150.118 288.792 150.118C291.324 150.118 291.938 151.844 291.938 153.505V156.601C291.938 157.319 291.971 158.02 292.073 158.586H290.71V158.592ZM290.489 154.368C288.852 154.336 286.988 154.627 286.988 156.235C286.988 157.211 287.634 157.669 288.405 157.669C289.482 157.669 290.166 156.984 290.403 156.283C290.452 156.127 290.489 155.959 290.489 155.803V154.368Z" fill="#606060"/>
<path d="M294.368 152.55C294.368 151.693 294.352 150.992 294.298 150.306H295.612L295.682 151.639H295.736C296.199 150.851 296.964 150.118 298.332 150.118C299.458 150.118 300.315 150.803 300.676 151.779H300.708C300.967 151.315 301.29 150.959 301.629 150.7C302.125 150.323 302.674 150.118 303.455 150.118C304.549 150.118 306.17 150.835 306.17 153.71V158.586H304.7V153.899C304.7 152.308 304.118 151.348 302.906 151.348C302.049 151.348 301.387 151.979 301.128 152.718C301.058 152.923 301.01 153.198 301.01 153.473V158.592H299.539V153.629C299.539 152.313 298.957 151.353 297.815 151.353C296.873 151.353 296.194 152.108 295.951 152.858C295.865 153.079 295.833 153.338 295.833 153.591V158.586H294.362V152.55H294.368Z" fill="#606060"/>
<path d="M308.621 146.444H310.124V158.592H308.621V146.444Z" fill="#606060"/>
<path d="M313.491 154.724C313.523 156.758 314.821 157.599 316.33 157.599C317.407 157.599 318.053 157.41 318.619 157.173L318.877 158.252C318.35 158.489 317.439 158.764 316.125 158.764C313.577 158.764 312.058 157.087 312.058 154.589C312.058 152.092 313.528 150.123 315.936 150.123C318.635 150.123 319.352 152.502 319.352 154.023C319.352 154.33 319.319 154.573 319.303 154.724H313.491ZM317.897 153.645C317.913 152.685 317.504 151.196 315.812 151.196C314.293 151.196 313.625 152.599 313.507 153.645H317.897Z" fill="#606060"/>
<path d="M323.025 147.933V150.312H325.18V151.461H323.025V155.927C323.025 156.952 323.316 157.535 324.151 157.535C324.545 157.535 324.835 157.481 325.024 157.432L325.094 158.559C324.803 158.678 324.34 158.764 323.763 158.764C323.063 158.764 322.498 158.543 322.142 158.133C321.716 157.691 321.56 156.952 321.56 155.976V151.455H320.278V150.306H321.56V148.321L323.025 147.933Z" fill="#606060"/>
<path d="M21.5771 191.975C22.4821 191.84 23.5595 191.737 24.7392 191.737C26.8777 191.737 28.3968 192.234 29.4041 193.178C30.4276 194.116 31.0255 195.454 31.0255 197.32C31.0255 199.203 30.4437 200.74 29.3664 201.803C28.289 202.881 26.5114 203.464 24.2759 203.464C23.2147 203.464 22.3259 203.41 21.5771 203.329V191.975ZM23.0639 202.175C23.441 202.245 23.985 202.261 24.5668 202.261C27.745 202.261 29.4687 200.481 29.4687 197.369C29.4849 194.65 27.9497 192.919 24.8038 192.919C24.0335 192.919 23.4517 192.989 23.0585 193.075V202.175H23.0639Z" fill="black"/>
<path d="M33.8106 199.489C33.8429 201.522 35.1411 202.364 36.6494 202.364C37.7267 202.364 38.3731 202.175 38.9387 201.938L39.1973 203.016C38.6694 203.254 37.7644 203.529 36.4447 203.529C33.8968 203.529 32.3777 201.851 32.3777 199.354C32.3777 196.856 33.8483 194.887 36.2561 194.887C38.9549 194.887 39.6713 197.266 39.6713 198.787C39.6713 199.095 39.639 199.338 39.6229 199.489H33.8106ZM38.2223 198.41C38.2385 197.45 37.8291 195.961 36.1376 195.961C34.6186 195.961 33.9506 197.363 33.8321 198.41H38.2223Z" fill="black"/>
<path d="M41.3303 201.813C41.772 202.105 42.5585 202.412 43.3126 202.412C44.4062 202.412 44.9179 201.862 44.9179 201.182C44.9179 200.465 44.4923 200.071 43.3773 199.661C41.8905 199.133 41.1903 198.307 41.1903 197.315C41.1903 195.982 42.2676 194.887 44.0452 194.887C44.8802 194.887 45.6182 195.125 46.076 195.4L45.699 196.495C45.3758 196.29 44.7778 196.015 44.0075 196.015C43.1187 196.015 42.6231 196.527 42.6231 197.142C42.6231 197.827 43.1187 198.135 44.1961 198.545C45.6289 199.095 46.3669 199.812 46.3669 201.042C46.3669 202.498 45.2411 203.523 43.2749 203.523C42.37 203.523 41.5296 203.302 40.9532 202.957L41.3303 201.813Z" fill="black"/>
<path d="M54.1993 203.049C53.8061 203.254 52.9334 203.529 51.8237 203.529C49.3297 203.529 47.7083 201.835 47.7083 199.3C47.7083 196.748 49.4536 194.904 52.1523 194.904C53.0411 194.904 53.8276 195.125 54.237 195.33L53.8976 196.495C53.5367 196.29 52.9765 196.101 52.1523 196.101C50.2562 196.101 49.2327 197.504 49.2327 199.235C49.2327 201.15 50.4609 202.331 52.1038 202.331C52.9603 202.331 53.5206 202.11 53.9515 201.921L54.1993 203.049Z" fill="black"/>
<path d="M55.9555 197.654C55.9555 196.678 55.9394 195.842 55.8855 195.07H57.1999L57.2537 196.694H57.3238C57.7008 195.583 58.6058 194.882 59.6131 194.882C59.7855 194.882 59.904 194.898 60.0387 194.936V196.354C59.8825 196.322 59.7316 196.3 59.5269 196.3C58.4658 196.3 57.717 197.104 57.5123 198.231C57.48 198.436 57.4423 198.679 57.4423 198.933V203.356H55.9555V197.654Z" fill="black"/>
<path d="M63.2865 192.746C63.3027 193.258 62.9256 193.668 62.3277 193.668C61.7998 193.668 61.4227 193.258 61.4227 192.746C61.4227 192.217 61.816 191.807 62.36 191.807C62.931 191.802 63.2865 192.212 63.2865 192.746ZM61.6113 203.356V195.076H63.1142V203.356H61.6113Z" fill="black"/>
<path d="M65.6138 197.773C65.6138 196.71 65.5815 195.858 65.5438 195.07H66.8959L66.9659 196.489H66.9982C67.6123 195.48 68.5873 194.882 69.9394 194.882C71.9379 194.882 73.4408 196.575 73.4408 199.089C73.4408 202.066 71.6308 203.539 69.6808 203.539C68.5873 203.539 67.6285 203.059 67.1329 202.239H67.1006V206.738H65.6138V197.773ZM67.1006 199.984C67.1006 200.206 67.1329 200.411 67.1706 200.599C67.4453 201.646 68.3503 202.363 69.4277 202.363C71.0168 202.363 71.9379 201.063 71.9379 199.164C71.9379 197.503 71.0652 196.084 69.4761 196.084C68.4527 196.084 67.4938 196.818 67.2029 197.951C67.1491 198.14 67.1006 198.361 67.1006 198.566V199.984Z" fill="black"/>
<path d="M77.1467 192.692V195.071H79.3014V196.22H77.1467V200.686C77.1467 201.711 77.4375 202.294 78.2725 202.294C78.6657 202.294 78.9566 202.24 79.1452 202.191L79.2152 203.318C78.9243 203.437 78.461 203.523 77.8846 203.523C77.1844 203.523 76.6188 203.302 76.2632 202.892C75.8377 202.45 75.6815 201.711 75.6815 200.735V196.214H74.3994V195.066H75.6815V193.081L77.1467 192.692Z" fill="black"/>
<path d="M82.6681 192.746C82.6843 193.258 82.3072 193.668 81.7093 193.668C81.1814 193.668 80.8043 193.258 80.8043 192.746C80.8043 192.217 81.1976 191.807 81.7416 191.807C82.3072 191.802 82.6681 192.212 82.6681 192.746ZM80.9929 203.356V195.076H82.4958V203.356H80.9929Z" fill="black"/>
<path d="M92.4774 199.143C92.4774 202.207 90.3604 203.539 88.3565 203.539C86.1156 203.539 84.3918 201.894 84.3918 199.278C84.3918 196.505 86.2018 194.882 88.4912 194.882C90.8667 194.882 92.4774 196.613 92.4774 199.143ZM85.9109 199.229C85.9109 201.042 86.9506 202.412 88.4211 202.412C89.854 202.412 90.9314 201.058 90.9314 199.197C90.9314 197.794 90.2311 196.014 88.4535 196.014C86.6812 196.014 85.9109 197.654 85.9109 199.229Z" fill="black"/>
<path d="M94.3737 197.314C94.3737 196.457 94.3576 195.755 94.3037 195.07H95.6342L95.7204 196.44H95.7527C96.1621 195.653 97.121 194.882 98.4892 194.882C99.6366 194.882 101.409 195.567 101.409 198.409V203.356H99.9059V198.582C99.9059 197.25 99.4104 196.133 97.9936 196.133C97.0025 196.133 96.2322 196.834 95.979 197.67C95.909 197.859 95.8766 198.118 95.8766 198.372V203.356H94.3737V197.314Z" fill="black"/>
<path d="M326.592 351.635H21.9868V352.714H326.592V351.635Z" fill="#BFBFBF"/>
<path d="M326.592 291H21.9868V292.079H326.592V291Z" fill="#606060"/>
<path d="M93.6468 418.79L94.0131 416.034H92.8604V415.203H94.137L94.4063 413.164H93.1997V412.333H94.5356L94.9019 409.647H95.7153L95.3652 412.333H96.825L97.1913 409.647H98.0209L97.6707 412.333H98.8235V413.164H97.5468L97.2936 415.203H98.5003V416.034H97.1644L96.7981 418.79H95.9577L96.324 416.034H94.8642L94.4979 418.79H93.6468ZM96.4425 415.203L96.7119 413.164H95.2521L94.9881 415.203H96.4425Z" fill="#606060"/>
<path d="M106.031 414.119C106.031 417.226 104.878 418.947 102.853 418.947C101.07 418.947 99.8576 417.275 99.8307 414.249C99.8307 411.18 101.15 409.491 103.009 409.491C104.937 409.491 106.031 411.207 106.031 414.119ZM101.07 414.26C101.07 416.638 101.802 417.987 102.923 417.987C104.189 417.987 104.792 416.509 104.792 414.173C104.792 411.924 104.216 410.446 102.939 410.446C101.856 410.446 101.07 411.768 101.07 414.26Z" fill="#606060"/>
<path d="M109.856 410.797H109.829L108.24 411.655L108.003 410.711L109.996 409.643H111.051V418.791H109.856V410.797Z" fill="#606060"/>
<path d="M120.317 409.648V410.462L116.341 418.791H115.064L119.029 410.7V410.673H114.558V409.643H120.317V409.648Z" fill="#606060"/>
<path d="M121.485 416.471C121.485 415.317 122.175 414.502 123.295 414.022L123.279 413.979C122.267 413.499 121.83 412.711 121.83 411.924C121.83 410.473 123.053 409.491 124.653 409.491C126.425 409.491 127.309 410.602 127.309 411.741C127.309 412.517 126.931 413.343 125.806 413.882V413.925C126.942 414.373 127.648 415.177 127.648 416.288C127.648 417.879 126.285 418.947 124.54 418.947C122.638 418.947 121.485 417.803 121.485 416.471ZM126.404 416.412C126.404 415.301 125.633 414.767 124.394 414.416C123.328 414.723 122.751 415.43 122.751 416.299C122.708 417.226 123.414 418.041 124.577 418.041C125.687 418.046 126.404 417.356 126.404 416.412ZM123.005 411.838C123.005 412.749 123.694 413.245 124.744 413.526C125.531 413.256 126.134 412.695 126.134 411.865C126.134 411.131 125.698 410.37 124.588 410.37C123.565 410.376 123.005 411.05 123.005 411.838Z" fill="#606060"/>
<path d="M134.263 410.69H130.777L130.427 413.041C130.637 413.014 130.837 412.987 131.171 412.987C131.871 412.987 132.577 413.144 133.137 413.478C133.853 413.888 134.446 414.676 134.446 415.83C134.446 417.615 133.029 418.953 131.047 418.953C130.05 418.953 129.205 418.673 128.768 418.392L129.075 417.448C129.452 417.675 130.201 417.955 131.031 417.955C132.2 417.955 133.196 417.195 133.196 415.97C133.18 414.789 132.393 413.942 130.567 413.942C130.045 413.942 129.641 413.996 129.301 414.039L129.894 409.648H134.263V410.69Z" fill="#606060"/>
<path d="M141.95 409.648V410.462L137.974 418.791H136.698L140.662 410.7V410.673H136.191V409.643H141.95V409.648Z" fill="#606060"/>
<path d="M148.688 410.69H145.203L144.853 413.041C145.063 413.014 145.262 412.987 145.596 412.987C146.297 412.987 147.002 413.144 147.563 413.478C148.279 413.888 148.871 414.676 148.871 415.83C148.871 417.615 147.455 418.953 145.472 418.953C144.476 418.953 143.63 418.673 143.194 418.392L143.501 417.448C143.878 417.675 144.627 417.955 145.456 417.955C146.625 417.955 147.622 417.195 147.622 415.97C147.606 414.789 146.819 413.942 144.993 413.942C144.471 413.942 144.067 413.996 143.727 414.039L144.32 409.648H148.688V410.69Z" fill="#606060"/>
<path d="M156.375 409.648V410.462L152.4 418.791H151.123L155.088 410.7V410.673H150.617V409.643H156.375V409.648Z" fill="#606060"/>
<path d="M157.544 416.471C157.544 415.317 158.234 414.502 159.354 414.022L159.338 413.979C158.326 413.499 157.889 412.711 157.889 411.924C157.889 410.473 159.112 409.491 160.712 409.491C162.484 409.491 163.368 410.602 163.368 411.741C163.368 412.517 162.99 413.343 161.865 413.882V413.925C163.001 414.373 163.707 415.177 163.707 416.288C163.707 417.879 162.344 418.947 160.599 418.947C158.697 418.947 157.544 417.803 157.544 416.471ZM162.463 416.412C162.463 415.301 161.692 414.767 160.453 414.416C159.387 414.723 158.81 415.43 158.81 416.299C158.767 417.226 159.473 418.041 160.636 418.041C161.746 418.046 162.463 417.356 162.463 416.412ZM159.063 411.838C159.063 412.749 159.753 413.245 160.803 413.526C161.59 413.256 162.193 412.695 162.193 411.865C162.193 411.131 161.757 410.37 160.647 410.37C159.624 410.376 159.063 411.05 159.063 411.838Z" fill="#606060"/>
<path d="M167.553 410.797H167.526L165.937 411.655L165.7 410.711L167.693 409.643H168.749V418.791H167.553V410.797Z" fill="#606060"/>
<path d="M177.297 410.517C177.044 410.5 176.721 410.517 176.371 410.57C174.432 410.894 173.408 412.313 173.193 413.823H173.236C173.672 413.246 174.432 412.766 175.444 412.766C177.06 412.766 178.197 413.931 178.197 415.722C178.197 417.394 177.06 418.942 175.164 418.942C173.209 418.942 171.932 417.421 171.932 415.042C171.932 413.241 172.579 411.822 173.478 410.921C174.238 410.177 175.25 409.713 176.403 409.573C176.77 409.519 177.077 409.502 177.303 409.502V410.517H177.297ZM176.942 415.792C176.942 414.481 176.199 413.694 175.062 413.694C174.319 413.694 173.629 414.158 173.29 414.821C173.204 414.961 173.15 415.145 173.15 415.371C173.177 416.876 173.866 417.987 175.159 417.987C176.225 417.987 176.942 417.103 176.942 415.792Z" fill="#606060"/>
<path d="M184.747 410.69H181.262L180.912 413.041C181.122 413.014 181.321 412.987 181.655 412.987C182.356 412.987 183.061 413.144 183.621 413.478C184.338 413.888 184.93 414.676 184.93 415.83C184.93 417.615 183.514 418.953 181.531 418.953C180.535 418.953 179.689 418.673 179.253 418.392L179.56 417.448C179.937 417.675 180.686 417.955 181.515 417.955C182.684 417.955 183.681 417.195 183.681 415.97C183.665 414.789 182.878 413.942 181.052 413.942C180.529 413.942 180.125 413.996 179.786 414.039L180.379 409.648H184.747V410.69Z" fill="#606060"/>
<path d="M191.718 410.517C191.465 410.5 191.142 410.517 190.791 410.57C188.852 410.894 187.829 412.313 187.613 413.823H187.656C188.093 413.246 188.852 412.766 189.865 412.766C191.481 412.766 192.618 413.931 192.618 415.722C192.618 417.394 191.481 418.942 189.585 418.942C187.629 418.942 186.353 417.421 186.353 415.042C186.353 413.241 186.999 411.822 187.899 410.921C188.658 410.177 189.671 409.713 190.824 409.573C191.19 409.519 191.497 409.502 191.723 409.502V410.517H191.718ZM191.368 415.792C191.368 414.481 190.624 413.694 189.488 413.694C188.744 413.694 188.055 414.158 187.716 414.821C187.629 414.961 187.576 415.145 187.576 415.371C187.603 416.876 188.292 417.987 189.585 417.987C190.651 417.987 191.368 417.103 191.368 415.792Z" fill="#606060"/>
<path d="M196.404 410.797H196.377L194.788 411.655L194.551 410.711L196.544 409.643H197.6V418.791H196.404V410.797Z" fill="#606060"/>
<path d="M200.816 416.471C200.816 415.317 201.506 414.502 202.626 414.022L202.61 413.979C201.597 413.499 201.161 412.711 201.161 411.924C201.161 410.473 202.384 409.491 203.983 409.491C205.756 409.491 206.639 410.602 206.639 411.741C206.639 412.517 206.262 413.343 205.136 413.882V413.925C206.273 414.373 206.978 415.177 206.978 416.288C206.978 417.879 205.616 418.947 203.87 418.947C201.969 418.947 200.816 417.803 200.816 416.471ZM205.734 416.412C205.734 415.301 204.964 414.767 203.725 414.416C202.658 414.723 202.082 415.43 202.082 416.299C202.039 417.226 202.745 418.041 203.908 418.041C205.018 418.046 205.734 417.356 205.734 416.412ZM202.335 411.838C202.335 412.749 203.025 413.245 204.075 413.526C204.862 413.256 205.465 412.695 205.465 411.865C205.465 411.131 205.028 410.37 203.919 410.37C202.895 410.376 202.335 411.05 202.335 411.838Z" fill="#606060"/>
<path d="M208.858 417.917C209.128 417.944 209.435 417.917 209.855 417.874C210.571 417.777 211.245 417.48 211.767 416.989C212.371 416.439 212.807 415.64 212.974 414.556H212.931C212.424 415.177 211.697 415.543 210.782 415.543C209.139 415.543 208.083 414.303 208.083 412.744C208.083 411.012 209.332 409.491 211.202 409.491C213.071 409.491 214.224 411.012 214.224 413.348C214.224 415.36 213.55 416.768 212.651 417.642C211.95 418.332 210.981 418.753 209.995 418.866C209.548 418.936 209.149 418.952 208.858 418.936V417.917ZM209.311 412.658C209.311 413.796 210 414.599 211.067 414.599C211.897 414.599 212.543 414.189 212.866 413.645C212.936 413.531 212.979 413.391 212.979 413.197C212.979 411.633 212.403 410.441 211.11 410.441C210.054 410.435 209.311 411.363 209.311 412.658Z" fill="#606060"/>
<path d="M215.651 417.372C216.001 417.599 216.82 417.949 217.677 417.949C219.266 417.949 219.756 416.935 219.74 416.174C219.724 414.896 218.571 414.346 217.38 414.346H216.691V413.418H217.38C218.28 413.418 219.416 412.954 219.416 411.87C219.416 411.136 218.953 410.489 217.817 410.489C217.084 410.489 216.384 410.813 215.991 411.093L215.667 410.192C216.147 409.842 217.073 409.491 218.054 409.491C219.853 409.491 220.666 410.559 220.666 411.67C220.666 412.614 220.106 413.413 218.98 413.823V413.85C220.106 414.076 221.016 414.918 221.016 416.201C221.016 417.663 219.88 418.947 217.687 418.947C216.664 418.947 215.764 418.623 215.312 418.327L215.651 417.372Z" fill="#606060"/>
<path d="M222.568 418.791V418.031L223.537 417.087C225.87 414.864 226.926 413.683 226.937 412.302C226.937 411.374 226.489 410.517 225.127 410.517C224.297 410.517 223.608 410.937 223.187 411.288L222.794 410.414C223.424 409.88 224.324 409.486 225.38 409.486C227.346 409.486 228.175 410.835 228.175 412.146C228.175 413.834 226.953 415.199 225.03 417.054L224.297 417.728V417.755H228.402V418.786H222.568V418.791Z" fill="#606060"/>
<path d="M235.852 414.119C235.852 417.226 234.699 418.947 232.673 418.947C230.89 418.947 229.678 417.275 229.651 414.249C229.651 411.18 230.971 409.491 232.83 409.491C234.753 409.491 235.852 411.207 235.852 414.119ZM230.89 414.26C230.89 416.638 231.623 417.987 232.743 417.987C234.009 417.987 234.613 416.509 234.613 414.173C234.613 411.924 234.036 410.446 232.76 410.446C231.677 410.446 230.89 411.768 230.89 414.26Z" fill="#606060"/>
<path d="M239.676 410.797H239.649L238.06 411.655L237.823 410.711L239.816 409.643H240.872V418.791H239.676V410.797Z" fill="#606060"/>
<path d="M244.201 418.791V418.031L245.171 417.087C247.503 414.864 248.559 413.683 248.57 412.302C248.57 411.374 248.123 410.517 246.76 410.517C245.93 410.517 245.241 410.937 244.821 411.288L244.427 410.414C245.058 409.88 245.957 409.486 247.013 409.486C248.979 409.486 249.809 410.835 249.809 412.146C249.809 413.834 248.586 415.199 246.663 417.054L245.93 417.728V417.755H250.035V418.786H244.201V418.791Z" fill="#606060"/>
<path d="M252.093 418.791L252.459 416.035H251.306V415.204H252.583L252.852 413.165H251.646V412.335H252.981L253.348 409.648H254.161L253.811 412.335H255.271L255.637 409.648H256.467L256.117 412.335H257.269V413.165H255.993L255.739 415.204H256.946V416.035H255.61L255.244 418.791H254.404L254.77 416.035H253.31L252.944 418.791H252.093ZM254.888 415.204L255.158 413.165H253.698L253.434 415.204H254.888Z" fill="#606060"/>
<path d="M276.985 366.048H276.446V394.367H276.985V366.048Z" fill="black"/>
<path d="M276.645 366.048H276.107V394.367H276.645V366.048Z" fill="black"/>
<path d="M281.59 366.048H281.052V394.367H281.59V366.048Z" fill="black"/>
<path d="M279.937 366.048H279.398V394.367H279.937V366.048Z" fill="black"/>
<path d="M277.863 366.048H277.324V394.367H277.863V366.048Z" fill="black"/>
<path d="M272.616 366.048H272.077V394.367H272.616V366.048Z" fill="black"/>
<path d="M270.752 366.048H270.213V394.367H270.752V366.048Z" fill="black"/>
<path d="M269.061 366.048H268.522V394.367H269.061V366.048Z" fill="black"/>
<path d="M265.333 366.048H264.794V394.367H265.333V366.048Z" fill="black"/>
<path d="M264.994 366.048H264.455V394.367H264.994V366.048Z" fill="black"/>
<path d="M261.988 366.048H261.449V394.367H261.988V366.048Z" fill="black"/>
<path d="M260.674 366.048H260.135V394.367H260.674V366.048Z" fill="black"/>
<path d="M258.039 366.048H257.501V394.367H258.039V366.048Z" fill="black"/>
<path d="M255.406 366.048H254.867V394.367H255.406V366.048Z" fill="black"/>
<path d="M254.748 366.048H254.209V394.367H254.748V366.048Z" fill="black"/>
<path d="M254.091 366.048H253.552V394.367H254.091V366.048Z" fill="black"/>
<path d="M252.119 366.048H251.58V394.367H252.119V366.048Z" fill="black"/>
<path d="M251.457 366.048H250.918V394.367H251.457V366.048Z" fill="black"/>
<path d="M238.954 366.048H238.416V394.367H238.954V366.048Z" fill="black"/>
<path d="M239.611 366.048H239.073V394.367H239.611V366.048Z" fill="black"/>
<path d="M246.194 366.048H245.655V394.367H246.194V366.048Z" fill="black"/>
<path d="M246.851 366.048H246.312V394.367H246.851V366.048Z" fill="black"/>
<path d="M248.828 366.048H248.289V394.367H248.828V366.048Z" fill="black"/>
<path d="M249.485 366.048H248.947V394.367H249.485V366.048Z" fill="black"/>
<path d="M244.88 366.048H244.341V394.367H244.88V366.048Z" fill="black"/>
<path d="M241.588 366.048H241.049V394.367H241.588V366.048Z" fill="black"/>
<path d="M236.32 366.048H235.781V394.367H236.32V366.048Z" fill="black"/>
<path d="M322.255 366.048H321.716V394.367H322.255V366.048Z" fill="black"/>
<path d="M321.915 366.048H321.377V394.367H321.915V366.048Z" fill="black"/>
<path d="M326.86 366.048H326.322V394.367H326.86V366.048Z" fill="black"/>
<path d="M325.207 366.048H324.668V394.367H325.207V366.048Z" fill="black"/>
<path d="M323.133 366.048H322.594V394.367H323.133V366.048Z" fill="black"/>
<path d="M317.881 366.048H317.342V394.367H317.881V366.048Z" fill="black"/>
<path d="M316.022 366.048H315.484V394.367H316.022V366.048Z" fill="black"/>
<path d="M314.326 366.048H313.787V394.367H314.326V366.048Z" fill="black"/>
<path d="M310.603 366.048H310.065V394.367H310.603V366.048Z" fill="black"/>
<path d="M310.264 366.048H309.725V394.367H310.264V366.048Z" fill="black"/>
<path d="M307.258 366.048H306.719V394.367H307.258V366.048Z" fill="black"/>
<path d="M305.938 366.048H305.4V394.367H305.938V366.048Z" fill="black"/>
<path d="M303.309 366.048H302.771V394.367H303.309V366.048Z" fill="black"/>
<path d="M300.676 366.048H300.137V394.367H300.676V366.048Z" fill="black"/>
<path d="M299.361 366.048H298.823V394.367H299.361V366.048Z" fill="black"/>
<path d="M297.384 366.048H296.845V394.367H297.384V366.048Z" fill="black"/>
<path d="M296.727 366.048H296.188V394.367H296.727V366.048Z" fill="black"/>
<path d="M284.224 366.048H283.686V394.367H284.224V366.048Z" fill="black"/>
<path d="M284.882 366.048H284.343V394.367H284.882V366.048Z" fill="black"/>
<path d="M291.464 366.048H290.925V394.367H291.464V366.048Z" fill="black"/>
<path d="M292.121 366.048H291.583V394.367H292.121V366.048Z" fill="black"/>
<path d="M294.093 366.048H293.554V394.367H294.093V366.048Z" fill="black"/>
<path d="M294.755 366.048H294.217V394.367H294.755V366.048Z" fill="black"/>
<path d="M290.144 366.048H289.605V394.367H290.144V366.048Z" fill="black"/>
<path d="M286.859 366.048H286.32V394.367H286.859V366.048Z" fill="black"/>
<path d="M281.59 366.048H281.052V394.367H281.59V366.048Z" fill="black"/>
<path d="M184.02 366.048H183.481V394.367H184.02V366.048Z" fill="black"/>
<path d="M183.681 366.048H183.142V394.367H183.681V366.048Z" fill="black"/>
<path d="M188.626 366.048H188.087V394.367H188.626V366.048Z" fill="black"/>
<path d="M186.972 366.048H186.433V394.367H186.972V366.048Z" fill="black"/>
<path d="M184.898 366.048H184.359V394.367H184.898V366.048Z" fill="black"/>
<path d="M179.646 366.048H179.107V394.367H179.646V366.048Z" fill="black"/>
<path d="M177.787 366.048H177.249V394.367H177.787V366.048Z" fill="black"/>
<path d="M176.091 366.048H175.552V394.367H176.091V366.048Z" fill="black"/>
<path d="M172.368 366.048H171.83V394.367H172.368V366.048Z" fill="black"/>
<path d="M172.029 366.048H171.491V394.367H172.029V366.048Z" fill="black"/>
<path d="M169.023 366.048H168.485V394.367H169.023V366.048Z" fill="black"/>
<path d="M167.703 366.048H167.165V394.367H167.703V366.048Z" fill="black"/>
<path d="M165.075 366.048H164.536V394.367H165.075V366.048Z" fill="black"/>
<path d="M162.441 366.048H161.902V394.367H162.441V366.048Z" fill="black"/>
<path d="M161.783 366.048H161.245V394.367H161.783V366.048Z" fill="black"/>
<path d="M161.126 366.048H160.588V394.367H161.126V366.048Z" fill="black"/>
<path d="M159.15 366.048H158.611V394.367H159.15V366.048Z" fill="black"/>
<path d="M158.492 366.048H157.954V394.367H158.492V366.048Z" fill="black"/>
<path d="M145.989 366.048H145.451V394.367H145.989V366.048Z" fill="black"/>
<path d="M146.647 366.048H146.108V394.367H146.647V366.048Z" fill="black"/>
<path d="M153.229 366.048H152.691V394.367H153.229V366.048Z" fill="black"/>
<path d="M153.887 366.048H153.348V394.367H153.887V366.048Z" fill="black"/>
<path d="M155.858 366.048H155.319V394.367H155.858V366.048Z" fill="black"/>
<path d="M156.521 366.048H155.982V394.367H156.521V366.048Z" fill="black"/>
<path d="M151.91 366.048H151.371V394.367H151.91V366.048Z" fill="black"/>
<path d="M148.618 366.048H148.079V394.367H148.618V366.048Z" fill="black"/>
<path d="M143.355 366.048H142.817V394.367H143.355V366.048Z" fill="black"/>
<path d="M229.285 366.048H228.746V394.367H229.285V366.048Z" fill="black"/>
<path d="M228.945 366.048H228.407V394.367H228.945V366.048Z" fill="black"/>
<path d="M233.891 366.048H233.352V394.367H233.891V366.048Z" fill="black"/>
<path d="M232.237 366.048H231.698V394.367H232.237V366.048Z" fill="black"/>
<path d="M230.168 366.048H229.63V394.367H230.168V366.048Z" fill="black"/>
<path d="M224.916 366.048H224.377V394.367H224.916V366.048Z" fill="black"/>
<path d="M223.053 366.048H222.514V394.367H223.053V366.048Z" fill="black"/>
<path d="M221.361 366.048H220.822V394.367H221.361V366.048Z" fill="black"/>
<path d="M217.633 366.048H217.094V394.367H217.633V366.048Z" fill="black"/>
<path d="M217.294 366.048H216.755V394.367H217.294V366.048Z" fill="black"/>
<path d="M214.294 366.048H213.755V394.367H214.294V366.048Z" fill="black"/>
<path d="M212.974 366.048H212.435V394.367H212.974V366.048Z" fill="black"/>
<path d="M210.339 366.048H209.801V394.367H210.339V366.048Z" fill="black"/>
<path d="M207.711 366.048H207.172V394.367H207.711V366.048Z" fill="black"/>
<path d="M206.391 366.048H205.853V394.367H206.391V366.048Z" fill="black"/>
<path d="M204.42 366.048H203.881V394.367H204.42V366.048Z" fill="black"/>
<path d="M203.763 366.048H203.224V394.367H203.763V366.048Z" fill="black"/>
<path d="M191.26 366.048H190.721V394.367H191.26V366.048Z" fill="black"/>
<path d="M191.917 366.048H191.378V394.367H191.917V366.048Z" fill="black"/>
<path d="M198.494 366.048H197.955V394.367H198.494V366.048Z" fill="black"/>
<path d="M199.157 366.048H198.618V394.367H199.157V366.048Z" fill="black"/>
<path d="M201.128 366.048H200.59V394.367H201.128V366.048Z" fill="black"/>
<path d="M201.785 366.048H201.247V394.367H201.785V366.048Z" fill="black"/>
<path d="M197.18 366.048H196.641V394.367H197.18V366.048Z" fill="black"/>
<path d="M193.889 366.048H193.35V394.367H193.889V366.048Z" fill="black"/>
<path d="M188.626 366.048H188.087V394.367H188.626V366.048Z" fill="black"/>
<path d="M140.888 366.048H140.35V394.367H140.888V366.048Z" fill="black"/>
<path d="M139.568 366.048H139.03V394.367H139.568V366.048Z" fill="black"/>
<path d="M136.94 366.048H136.401V394.367H136.94V366.048Z" fill="black"/>
<path d="M134.305 366.048H133.767V394.367H134.305V366.048Z" fill="black"/>
<path d="M133.649 366.048H133.11V394.367H133.649V366.048Z" fill="black"/>
<path d="M132.991 366.048H132.453V394.367H132.991V366.048Z" fill="black"/>
<path d="M131.014 366.048H130.476V394.367H131.014V366.048Z" fill="black"/>
<path d="M130.357 366.048H129.819V394.367H130.357V366.048Z" fill="black"/>
<path d="M117.855 366.048H117.316V394.367H117.855V366.048Z" fill="black"/>
<path d="M118.512 366.048H117.973V394.367H118.512V366.048Z" fill="black"/>
<path d="M125.094 366.048H124.556V394.367H125.094V366.048Z" fill="black"/>
<path d="M125.751 366.048H125.213V394.367H125.751V366.048Z" fill="black"/>
<path d="M127.723 366.048H127.184V394.367H127.723V366.048Z" fill="black"/>
<path d="M128.38 366.048H127.842V394.367H128.38V366.048Z" fill="black"/>
<path d="M123.775 366.048H123.236V394.367H123.775V366.048Z" fill="black"/>
<path d="M120.483 366.048H119.945V394.367H120.483V366.048Z" fill="black"/>
<path d="M115.22 366.048H114.682V394.367H115.22V366.048Z" fill="black"/>
<path d="M62.9151 366.048H62.3765V394.367H62.9151V366.048Z" fill="black"/>
<path d="M62.5755 366.048H62.0369V394.367H62.5755V366.048Z" fill="black"/>
<path d="M67.5209 366.048H66.9822V394.367H67.5209V366.048Z" fill="black"/>
<path d="M65.867 366.048H65.3284V394.367H65.867V366.048Z" fill="black"/>
<path d="M63.7984 366.048H63.2598V394.367H63.7984V366.048Z" fill="black"/>
<path d="M58.5464 366.048H58.0077V394.367H58.5464V366.048Z" fill="black"/>
<path d="M56.6824 366.048H56.1437V394.367H56.6824V366.048Z" fill="black"/>
<path d="M54.9913 366.048H54.4526V394.367H54.9913V366.048Z" fill="black"/>
<path d="M51.2633 366.048H50.7246V394.367H51.2633V366.048Z" fill="black"/>
<path d="M50.9242 366.048H50.3855V394.367H50.9242V366.048Z" fill="black"/>
<path d="M47.9183 366.048H47.3796V394.367H47.9183V366.048Z" fill="black"/>
<path d="M46.6039 366.048H46.0652V394.367H46.6039V366.048Z" fill="black"/>
<path d="M43.9696 366.048H43.4309V394.367H43.9696V366.048Z" fill="black"/>
<path d="M41.3409 366.048H40.8022V394.367H41.3409V366.048Z" fill="black"/>
<path d="M40.6786 366.048H40.1399V394.367H40.6786V366.048Z" fill="black"/>
<path d="M40.0213 366.048H39.4827V394.367H40.0213V366.048Z" fill="black"/>
<path d="M38.0499 366.048H37.5112V394.367H38.0499V366.048Z" fill="black"/>
<path d="M37.3927 366.048H36.854V394.367H37.3927V366.048Z" fill="black"/>
<path d="M24.8846 366.048H24.3459V394.367H24.8846V366.048Z" fill="black"/>
<path d="M25.5417 366.048H25.0031V394.367H25.5417V366.048Z" fill="black"/>
<path d="M32.1242 366.048H31.5856V394.367H32.1242V366.048Z" fill="black"/>
<path d="M32.7814 366.048H32.2427V394.367H32.7814V366.048Z" fill="black"/>
<path d="M34.7584 366.048H34.2197V394.367H34.7584V366.048Z" fill="black"/>
<path d="M35.4156 366.048H34.877V394.367H35.4156V366.048Z" fill="black"/>
<path d="M30.8099 366.048H30.2712V394.367H30.8099V366.048Z" fill="black"/>
<path d="M27.5188 366.048H26.9801V394.367H27.5188V366.048Z" fill="black"/>
<path d="M22.256 366.048H21.7173V394.367H22.256V366.048Z" fill="black"/>
<path d="M108.185 366.048H107.647V394.367H108.185V366.048Z" fill="black"/>
<path d="M107.846 366.048H107.307V394.367H107.846V366.048Z" fill="black"/>
<path d="M112.791 366.048H112.252V394.367H112.791V366.048Z" fill="black"/>
<path d="M111.137 366.048H110.598V394.367H111.137V366.048Z" fill="black"/>
<path d="M109.063 366.048H108.525V394.367H109.063V366.048Z" fill="black"/>
<path d="M103.816 366.048H103.278V394.367H103.816V366.048Z" fill="black"/>
<path d="M101.953 366.048H101.414V394.367H101.953V366.048Z" fill="black"/>
<path d="M100.256 366.048H99.7173V394.367H100.256V366.048Z" fill="black"/>
<path d="M96.5338 366.048H95.9951V394.367H96.5338V366.048Z" fill="black"/>
<path d="M96.1943 366.048H95.6556V394.367H96.1943V366.048Z" fill="black"/>
<path d="M93.1885 366.048H92.6498V394.367H93.1885V366.048Z" fill="black"/>
<path d="M91.8741 366.048H91.3354V394.367H91.8741V366.048Z" fill="black"/>
<path d="M89.2402 366.048H88.7015V394.367H89.2402V366.048Z" fill="black"/>
<path d="M86.6061 366.048H86.0674V394.367H86.6061V366.048Z" fill="black"/>
<path d="M85.2916 366.048H84.7529V394.367H85.2916V366.048Z" fill="black"/>
<path d="M83.3146 366.048H82.7759V394.367H83.3146V366.048Z" fill="black"/>
<path d="M82.6573 366.048H82.1187V394.367H82.6573V366.048Z" fill="black"/>
<path d="M70.1548 366.048H69.6161V394.367H70.1548V366.048Z" fill="black"/>
<path d="M70.8119 366.048H70.2732V394.367H70.8119V366.048Z" fill="black"/>
<path d="M77.3948 366.048H76.8561V394.367H77.3948V366.048Z" fill="black"/>
<path d="M78.052 366.048H77.5133V394.367H78.052V366.048Z" fill="black"/>
<path d="M80.0287 366.048H79.49V394.367H80.0287V366.048Z" fill="black"/>
<path d="M80.6859 366.048H80.1472V394.367H80.6859V366.048Z" fill="black"/>
<path d="M76.0804 366.048H75.5417V394.367H76.0804V366.048Z" fill="black"/>
<path d="M72.7889 366.048H72.2502V394.367H72.7889V366.048Z" fill="black"/>
<path d="M67.5209 366.048H66.9822V394.367H67.5209V366.048Z" fill="black"/>
<path d="M25.4721 324.778H21.9707V323.51H30.4979V324.778H26.9804V335.043H25.4775V324.778H25.4721Z" fill="black"/>
<path d="M37.9961 330.835C37.9961 333.899 35.8792 335.231 33.8807 335.231C31.6398 335.231 29.916 333.586 29.916 330.97C29.916 328.198 31.726 326.574 34.0153 326.574C36.3909 326.574 37.9961 328.3 37.9961 330.835ZM31.4351 330.922C31.4351 332.734 32.4801 334.104 33.9453 334.104C35.3782 334.104 36.4555 332.75 36.4555 330.889C36.4555 329.487 35.7553 327.707 33.9776 327.707C32.2054 327.701 31.4351 329.347 31.4351 330.922Z" fill="black"/>
<path d="M41.7023 324.384V326.763H43.857V327.907H41.7023V332.373C41.7023 333.398 41.9932 333.98 42.8282 333.98C43.2214 333.98 43.5123 333.932 43.7008 333.878L43.7708 335.005C43.48 335.124 43.0167 335.21 42.4403 335.21C41.74 335.21 41.1744 334.989 40.8189 334.579C40.3933 334.137 40.2371 333.398 40.2371 332.421V327.901H38.9551V326.758H40.2371V324.773L41.7023 324.384Z" fill="black"/>
<path d="M50.1274 335.043L50.0089 334.002H49.955C49.4917 334.654 48.6029 335.231 47.4232 335.231C45.748 335.231 44.8969 334.05 44.8969 332.853C44.8969 330.851 46.6745 329.756 49.8688 329.773V329.6C49.8688 328.915 49.6803 327.685 47.9888 327.685C47.2185 327.685 46.4159 327.922 45.8341 328.3L45.4948 327.308C46.1789 326.865 47.1701 326.574 48.2097 326.574C50.7361 326.574 51.3556 328.3 51.3556 329.961V333.058C51.3556 333.775 51.3879 334.476 51.4902 335.043H50.1274ZM49.9065 330.819C48.2636 330.787 46.4051 331.078 46.4051 332.685C46.4051 333.662 47.0569 334.126 47.8219 334.126C48.8992 334.126 49.5833 333.441 49.8203 332.739C49.8742 332.583 49.9065 332.416 49.9065 332.259V330.819Z" fill="black"/>
<path d="M53.7849 322.896H55.2878V335.043H53.7849V322.896Z" fill="black"/>
<path d="M24.2657 311.638H22.0732V310.845H27.4061V311.638H25.2029V318.057H24.2657V311.638Z" fill="#606060"/>
<path d="M30.3528 318.056L30.2774 317.404H30.245C29.9542 317.808 29.3993 318.175 28.6613 318.175C27.6163 318.175 27.0776 317.436 27.0776 316.686C27.0776 315.435 28.1873 314.75 30.1858 314.761V314.653C30.1858 314.227 30.0673 313.455 29.0115 313.455C28.5321 313.455 28.0311 313.606 27.6648 313.838L27.4493 313.218C27.8749 312.938 28.4944 312.76 29.1461 312.76C30.7299 312.76 31.1123 313.838 31.1123 314.879V316.816C31.1123 317.264 31.1339 317.706 31.1985 318.056H30.3528ZM30.2127 315.413C29.1892 315.392 28.0203 315.575 28.0203 316.579C28.0203 317.188 28.4243 317.479 28.9091 317.479C29.5825 317.479 30.008 317.053 30.1589 316.611C30.1912 316.514 30.2127 316.406 30.2127 316.309V315.413Z" fill="#606060"/>
<path d="M33.0782 312.878L33.8162 313.99C34.0101 314.281 34.1664 314.545 34.3387 314.836H34.3711C34.5434 314.529 34.7104 314.259 34.8828 313.979L35.61 312.878H36.6227L34.8613 315.381L36.6766 318.057H35.61L34.8505 316.892C34.6458 316.59 34.4788 316.304 34.2956 315.991H34.2741C34.1017 316.298 33.924 316.579 33.73 316.892L32.9813 318.057H31.947L33.7839 315.414L32.0332 312.878H33.0782Z" fill="#606060"/>
<path d="M22.8203 240.547V245H21.3203V233.625H25.5156C26.7604 233.625 27.7344 233.943 28.4375 234.578C29.1458 235.214 29.5 236.055 29.5 237.102C29.5 238.206 29.1536 239.057 28.4609 239.656C27.7734 240.25 26.7865 240.547 25.5 240.547H22.8203ZM22.8203 239.32H25.5156C26.3177 239.32 26.9323 239.133 27.3594 238.758C27.7865 238.378 28 237.831 28 237.117C28 236.44 27.7865 235.898 27.3594 235.492C26.9323 235.086 26.3464 234.875 25.6016 234.859H22.8203V239.32ZM30.6953 240.695C30.6953 239.867 30.8568 239.122 31.1797 238.461C31.5078 237.799 31.9609 237.289 32.5391 236.93C33.1224 236.57 33.7865 236.391 34.5312 236.391C35.6823 236.391 36.612 236.789 37.3203 237.586C38.0339 238.383 38.3906 239.443 38.3906 240.766V240.867C38.3906 241.69 38.2318 242.43 37.9141 243.086C37.6016 243.737 37.151 244.245 36.5625 244.609C35.9792 244.974 35.3073 245.156 34.5469 245.156C33.401 245.156 32.4714 244.758 31.7578 243.961C31.0495 243.164 30.6953 242.109 30.6953 240.797V240.695ZM32.1484 240.867C32.1484 241.805 32.3646 242.557 32.7969 243.125C33.2344 243.693 33.8177 243.977 34.5469 243.977C35.2812 243.977 35.8646 243.69 36.2969 243.117C36.7292 242.539 36.9453 241.732 36.9453 240.695C36.9453 239.768 36.724 239.018 36.2812 238.445C35.8438 237.867 35.2604 237.578 34.5312 237.578C33.8177 237.578 33.2422 237.862 32.8047 238.43C32.3672 238.997 32.1484 239.81 32.1484 240.867ZM41.7734 245H40.3281V233H41.7734V245ZM45.6641 245H44.2188V233H45.6641V245ZM47.6016 240.695C47.6016 239.867 47.763 239.122 48.0859 238.461C48.4141 237.799 48.8672 237.289 49.4453 236.93C50.0286 236.57 50.6927 236.391 51.4375 236.391C52.5885 236.391 53.5182 236.789 54.2266 237.586C54.9401 238.383 55.2969 239.443 55.2969 240.766V240.867C55.2969 241.69 55.138 242.43 54.8203 243.086C54.5078 243.737 54.0573 244.245 53.4688 244.609C52.8854 244.974 52.2135 245.156 51.4531 245.156C50.3073 245.156 49.3776 244.758 48.6641 243.961C47.9557 243.164 47.6016 242.109 47.6016 240.797V240.695ZM49.0547 240.867C49.0547 241.805 49.2708 242.557 49.7031 243.125C50.1406 243.693 50.724 243.977 51.4531 243.977C52.1875 243.977 52.7708 243.69 53.2031 243.117C53.6354 242.539 53.8516 241.732 53.8516 240.695C53.8516 239.768 53.6302 239.018 53.1875 238.445C52.75 237.867 52.1667 237.578 51.4375 237.578C50.724 237.578 50.1484 237.862 49.7109 238.43C49.2734 238.997 49.0547 239.81 49.0547 240.867ZM63.0391 234.5V236.547H64.6172V237.664H63.0391V242.906C63.0391 243.245 63.1094 243.5 63.25 243.672C63.3906 243.839 63.6302 243.922 63.9688 243.922C64.1354 243.922 64.3646 243.891 64.6562 243.828V245C64.276 245.104 63.9062 245.156 63.5469 245.156C62.901 245.156 62.4141 244.961 62.0859 244.57C61.7578 244.18 61.5938 243.625 61.5938 242.906V237.664H60.0547V236.547H61.5938V234.5H63.0391ZM67.8828 245H66.4375V236.547H67.8828V245ZM66.3203 234.305C66.3203 234.07 66.3906 233.872 66.5312 233.711C66.6771 233.549 66.8906 233.469 67.1719 233.469C67.4531 233.469 67.6667 233.549 67.8125 233.711C67.9583 233.872 68.0312 234.07 68.0312 234.305C68.0312 234.539 67.9583 234.734 67.8125 234.891C67.6667 235.047 67.4531 235.125 67.1719 235.125C66.8906 235.125 66.6771 235.047 66.5312 234.891C66.3906 234.734 66.3203 234.539 66.3203 234.305ZM72.5625 241.086L71.6562 242.031V245H70.2109V233H71.6562V240.258L72.4297 239.328L75.0625 236.547H76.8203L73.5312 240.078L77.2031 245H75.5078L72.5625 241.086ZM80.6719 241.086L79.7656 242.031V245H78.3203V233H79.7656V240.258L80.5391 239.328L83.1719 236.547H84.9297L81.6406 240.078L85.3125 245H83.6172L80.6719 241.086ZM91.6406 245C91.5573 244.833 91.4896 244.536 91.4375 244.109C90.7656 244.807 89.9635 245.156 89.0312 245.156C88.1979 245.156 87.513 244.922 86.9766 244.453C86.4453 243.979 86.1797 243.38 86.1797 242.656C86.1797 241.776 86.513 241.094 87.1797 240.609C87.8516 240.12 88.7943 239.875 90.0078 239.875H91.4141V239.211C91.4141 238.706 91.263 238.305 90.9609 238.008C90.6589 237.706 90.2135 237.555 89.625 237.555C89.1094 237.555 88.6771 237.685 88.3281 237.945C87.9792 238.206 87.8047 238.521 87.8047 238.891H86.3516C86.3516 238.469 86.5 238.062 86.7969 237.672C87.099 237.276 87.5052 236.964 88.0156 236.734C88.5312 236.505 89.0964 236.391 89.7109 236.391C90.6849 236.391 91.4479 236.635 92 237.125C92.5521 237.609 92.8385 238.279 92.8594 239.133V243.023C92.8594 243.799 92.9583 244.417 93.1562 244.875V245H91.6406ZM89.2422 243.898C89.6953 243.898 90.125 243.781 90.5312 243.547C90.9375 243.312 91.2318 243.008 91.4141 242.633V240.898H90.2812C88.5104 240.898 87.625 241.417 87.625 242.453C87.625 242.906 87.776 243.26 88.0781 243.516C88.3802 243.771 88.7682 243.898 89.2422 243.898ZM100.453 236.547L100.492 237.484C101.112 236.755 101.948 236.391 103 236.391C104.182 236.391 104.987 236.844 105.414 237.75C105.695 237.344 106.06 237.016 106.508 236.766C106.961 236.516 107.495 236.391 108.109 236.391C109.964 236.391 110.906 237.372 110.938 239.336V245H109.492V239.422C109.492 238.818 109.354 238.367 109.078 238.07C108.802 237.768 108.339 237.617 107.688 237.617C107.151 237.617 106.706 237.779 106.352 238.102C105.997 238.419 105.792 238.849 105.734 239.391V245H104.281V239.461C104.281 238.232 103.68 237.617 102.477 237.617C101.529 237.617 100.88 238.021 100.531 238.828V245H99.0859V236.547H100.453ZM118.344 245C118.26 244.833 118.193 244.536 118.141 244.109C117.469 244.807 116.667 245.156 115.734 245.156C114.901 245.156 114.216 244.922 113.68 244.453C113.148 243.979 112.883 243.38 112.883 242.656C112.883 241.776 113.216 241.094 113.883 240.609C114.555 240.12 115.497 239.875 116.711 239.875H118.117V239.211C118.117 238.706 117.966 238.305 117.664 238.008C117.362 237.706 116.917 237.555 116.328 237.555C115.812 237.555 115.38 237.685 115.031 237.945C114.682 238.206 114.508 238.521 114.508 238.891H113.055C113.055 238.469 113.203 238.062 113.5 237.672C113.802 237.276 114.208 236.964 114.719 236.734C115.234 236.505 115.799 236.391 116.414 236.391C117.388 236.391 118.151 236.635 118.703 237.125C119.255 237.609 119.542 238.279 119.562 239.133V243.023C119.562 243.799 119.661 244.417 119.859 244.875V245H118.344ZM115.945 243.898C116.398 243.898 116.828 243.781 117.234 243.547C117.641 243.312 117.935 243.008 118.117 242.633V240.898H116.984C115.214 240.898 114.328 241.417 114.328 242.453C114.328 242.906 114.479 243.26 114.781 243.516C115.083 243.771 115.471 243.898 115.945 243.898ZM126.75 242.758C126.75 242.367 126.602 242.065 126.305 241.852C126.013 241.633 125.5 241.445 124.766 241.289C124.036 241.133 123.456 240.945 123.023 240.727C122.596 240.508 122.279 240.247 122.07 239.945C121.867 239.643 121.766 239.284 121.766 238.867C121.766 238.174 122.057 237.589 122.641 237.109C123.229 236.63 123.979 236.391 124.891 236.391C125.849 236.391 126.625 236.638 127.219 237.133C127.818 237.628 128.117 238.26 128.117 239.031H126.664C126.664 238.635 126.495 238.294 126.156 238.008C125.823 237.721 125.401 237.578 124.891 237.578C124.365 237.578 123.953 237.693 123.656 237.922C123.359 238.151 123.211 238.451 123.211 238.82C123.211 239.169 123.349 239.432 123.625 239.609C123.901 239.786 124.398 239.956 125.117 240.117C125.841 240.279 126.427 240.471 126.875 240.695C127.323 240.919 127.654 241.19 127.867 241.508C128.086 241.82 128.195 242.203 128.195 242.656C128.195 243.411 127.893 244.018 127.289 244.477C126.685 244.93 125.901 245.156 124.938 245.156C124.26 245.156 123.661 245.036 123.141 244.797C122.62 244.557 122.211 244.224 121.914 243.797C121.622 243.365 121.477 242.898 121.477 242.398H122.922C122.948 242.883 123.141 243.268 123.5 243.555C123.865 243.836 124.344 243.977 124.938 243.977C125.484 243.977 125.922 243.867 126.25 243.648C126.583 243.424 126.75 243.128 126.75 242.758ZM135.297 245C135.214 244.833 135.146 244.536 135.094 244.109C134.422 244.807 133.62 245.156 132.688 245.156C131.854 245.156 131.169 244.922 130.633 244.453C130.102 243.979 129.836 243.38 129.836 242.656C129.836 241.776 130.169 241.094 130.836 240.609C131.508 240.12 132.451 239.875 133.664 239.875H135.07V239.211C135.07 238.706 134.919 238.305 134.617 238.008C134.315 237.706 133.87 237.555 133.281 237.555C132.766 237.555 132.333 237.685 131.984 237.945C131.635 238.206 131.461 238.521 131.461 238.891H130.008C130.008 238.469 130.156 238.062 130.453 237.672C130.755 237.276 131.161 236.964 131.672 236.734C132.188 236.505 132.753 236.391 133.367 236.391C134.341 236.391 135.104 236.635 135.656 237.125C136.208 237.609 136.495 238.279 136.516 239.133V243.023C136.516 243.799 136.615 244.417 136.812 244.875V245H135.297ZM132.898 243.898C133.352 243.898 133.781 243.781 134.188 243.547C134.594 243.312 134.888 243.008 135.07 242.633V240.898H133.938C132.167 240.898 131.281 241.417 131.281 242.453C131.281 242.906 131.432 243.26 131.734 243.516C132.036 243.771 132.424 243.898 132.898 243.898ZM140.352 245H138.906V233H140.352V245ZM147.891 245C147.807 244.833 147.74 244.536 147.688 244.109C147.016 244.807 146.214 245.156 145.281 245.156C144.448 245.156 143.763 244.922 143.227 244.453C142.695 243.979 142.43 243.38 142.43 242.656C142.43 241.776 142.763 241.094 143.43 240.609C144.102 240.12 145.044 239.875 146.258 239.875H147.664V239.211C147.664 238.706 147.513 238.305 147.211 238.008C146.909 237.706 146.464 237.555 145.875 237.555C145.359 237.555 144.927 237.685 144.578 237.945C144.229 238.206 144.055 238.521 144.055 238.891H142.602C142.602 238.469 142.75 238.062 143.047 237.672C143.349 237.276 143.755 236.964 144.266 236.734C144.781 236.505 145.346 236.391 145.961 236.391C146.935 236.391 147.698 236.635 148.25 237.125C148.802 237.609 149.089 238.279 149.109 239.133V243.023C149.109 243.799 149.208 244.417 149.406 244.875V245H147.891ZM145.492 243.898C145.945 243.898 146.375 243.781 146.781 243.547C147.188 243.312 147.482 243.008 147.664 242.633V240.898H146.531C144.76 240.898 143.875 241.417 143.875 242.453C143.875 242.906 144.026 243.26 144.328 243.516C144.63 243.771 145.018 243.898 145.492 243.898Z" fill="#606060"/>
<path d="M275.688 242.07C275.688 241.591 275.518 241.188 275.18 240.859C274.846 240.531 274.281 240.234 273.484 239.969C272.375 239.63 271.565 239.19 271.055 238.648C270.549 238.102 270.297 237.409 270.297 236.57C270.297 235.716 270.544 235.016 271.039 234.469C271.539 233.922 272.224 233.596 273.094 233.492V231.781H274.258V233.5C275.133 233.62 275.812 233.987 276.297 234.602C276.786 235.216 277.031 236.057 277.031 237.125H275.594C275.594 236.391 275.419 235.807 275.07 235.375C274.721 234.943 274.25 234.727 273.656 234.727C273.036 234.727 272.562 234.888 272.234 235.211C271.906 235.529 271.742 235.974 271.742 236.547C271.742 237.078 271.914 237.503 272.258 237.82C272.607 238.133 273.177 238.419 273.969 238.68C274.766 238.935 275.385 239.219 275.828 239.531C276.276 239.839 276.604 240.198 276.812 240.609C277.026 241.021 277.133 241.503 277.133 242.055C277.133 242.935 276.867 243.643 276.336 244.18C275.81 244.716 275.07 245.034 274.117 245.133V246.625H272.961V245.133C271.992 245.044 271.232 244.701 270.68 244.102C270.133 243.497 269.859 242.68 269.859 241.648H271.305C271.305 242.372 271.495 242.93 271.875 243.32C272.255 243.711 272.794 243.906 273.492 243.906C274.174 243.906 274.711 243.742 275.102 243.414C275.492 243.086 275.688 242.638 275.688 242.07ZM285 238.609H286.086C286.768 238.599 287.305 238.419 287.695 238.07C288.086 237.721 288.281 237.25 288.281 236.656C288.281 235.323 287.617 234.656 286.289 234.656C285.664 234.656 285.164 234.836 284.789 235.195C284.419 235.549 284.234 236.021 284.234 236.609H282.789C282.789 235.708 283.117 234.961 283.773 234.367C284.435 233.768 285.273 233.469 286.289 233.469C287.362 233.469 288.203 233.753 288.812 234.32C289.422 234.888 289.727 235.677 289.727 236.688C289.727 237.182 289.565 237.661 289.242 238.125C288.924 238.589 288.49 238.935 287.938 239.164C288.562 239.362 289.044 239.69 289.383 240.148C289.727 240.607 289.898 241.167 289.898 241.828C289.898 242.849 289.565 243.659 288.898 244.258C288.232 244.857 287.365 245.156 286.297 245.156C285.229 245.156 284.359 244.867 283.688 244.289C283.021 243.711 282.688 242.948 282.688 242H284.141C284.141 242.599 284.336 243.078 284.727 243.438C285.117 243.797 285.641 243.977 286.297 243.977C286.995 243.977 287.529 243.794 287.898 243.43C288.268 243.065 288.453 242.542 288.453 241.859C288.453 241.198 288.25 240.69 287.844 240.336C287.438 239.982 286.852 239.799 286.086 239.789H285V238.609ZM292.547 239.297L293.125 233.625H298.953V234.961H294.352L294.008 238.062C294.565 237.734 295.198 237.57 295.906 237.57C296.943 237.57 297.766 237.914 298.375 238.602C298.984 239.284 299.289 240.208 299.289 241.375C299.289 242.547 298.971 243.471 298.336 244.148C297.706 244.82 296.823 245.156 295.688 245.156C294.682 245.156 293.862 244.878 293.227 244.32C292.591 243.763 292.229 242.992 292.141 242.008H293.508C293.596 242.659 293.828 243.151 294.203 243.484C294.578 243.812 295.073 243.977 295.688 243.977C296.359 243.977 296.885 243.747 297.266 243.289C297.651 242.831 297.844 242.198 297.844 241.391C297.844 240.63 297.635 240.021 297.219 239.562C296.807 239.099 296.258 238.867 295.57 238.867C294.94 238.867 294.445 239.005 294.086 239.281L293.703 239.594L292.547 239.297ZM301.047 244.242C301.047 243.992 301.12 243.784 301.266 243.617C301.417 243.451 301.641 243.367 301.938 243.367C302.234 243.367 302.458 243.451 302.609 243.617C302.766 243.784 302.844 243.992 302.844 244.242C302.844 244.482 302.766 244.682 302.609 244.844C302.458 245.005 302.234 245.086 301.938 245.086C301.641 245.086 301.417 245.005 301.266 244.844C301.12 244.682 301.047 244.482 301.047 244.242ZM311.984 236.594C311.984 237.161 311.833 237.667 311.531 238.109C311.234 238.552 310.831 238.898 310.32 239.148C310.914 239.404 311.383 239.776 311.727 240.266C312.076 240.755 312.25 241.31 312.25 241.93C312.25 242.914 311.917 243.698 311.25 244.281C310.589 244.865 309.716 245.156 308.633 245.156C307.539 245.156 306.661 244.865 306 244.281C305.344 243.693 305.016 242.909 305.016 241.93C305.016 241.315 305.182 240.76 305.516 240.266C305.854 239.771 306.32 239.396 306.914 239.141C306.409 238.891 306.01 238.544 305.719 238.102C305.427 237.659 305.281 237.156 305.281 236.594C305.281 235.635 305.589 234.875 306.203 234.312C306.818 233.75 307.628 233.469 308.633 233.469C309.633 233.469 310.44 233.75 311.055 234.312C311.674 234.875 311.984 235.635 311.984 236.594ZM310.805 241.898C310.805 241.263 310.602 240.745 310.195 240.344C309.794 239.943 309.268 239.742 308.617 239.742C307.966 239.742 307.443 239.94 307.047 240.336C306.656 240.732 306.461 241.253 306.461 241.898C306.461 242.544 306.651 243.052 307.031 243.422C307.417 243.792 307.951 243.977 308.633 243.977C309.31 243.977 309.841 243.792 310.227 243.422C310.612 243.047 310.805 242.539 310.805 241.898ZM308.633 234.656C308.065 234.656 307.604 234.833 307.25 235.188C306.901 235.536 306.727 236.013 306.727 236.617C306.727 237.195 306.898 237.664 307.242 238.023C307.591 238.378 308.055 238.555 308.633 238.555C309.211 238.555 309.672 238.378 310.016 238.023C310.365 237.664 310.539 237.195 310.539 236.617C310.539 236.039 310.359 235.568 310 235.203C309.641 234.839 309.185 234.656 308.633 234.656ZM314.734 239.297L315.312 233.625H321.141V234.961H316.539L316.195 238.062C316.753 237.734 317.385 237.57 318.094 237.57C319.13 237.57 319.953 237.914 320.562 238.602C321.172 239.284 321.477 240.208 321.477 241.375C321.477 242.547 321.159 243.471 320.523 244.148C319.893 244.82 319.01 245.156 317.875 245.156C316.87 245.156 316.049 244.878 315.414 244.32C314.779 243.763 314.417 242.992 314.328 242.008H315.695C315.784 242.659 316.016 243.151 316.391 243.484C316.766 243.812 317.26 243.977 317.875 243.977C318.547 243.977 319.073 243.747 319.453 243.289C319.839 242.831 320.031 242.198 320.031 241.391C320.031 240.63 319.823 240.021 319.406 239.562C318.995 239.099 318.445 238.867 317.758 238.867C317.128 238.867 316.633 239.005 316.273 239.281L315.891 239.594L314.734 239.297Z" fill="#606060"/>
<path d="M280.688 333.07C280.688 332.591 280.518 332.188 280.18 331.859C279.846 331.531 279.281 331.234 278.484 330.969C277.375 330.63 276.565 330.19 276.055 329.648C275.549 329.102 275.297 328.409 275.297 327.57C275.297 326.716 275.544 326.016 276.039 325.469C276.539 324.922 277.224 324.596 278.094 324.492V322.781H279.258V324.5C280.133 324.62 280.812 324.987 281.297 325.602C281.786 326.216 282.031 327.057 282.031 328.125H280.594C280.594 327.391 280.419 326.807 280.07 326.375C279.721 325.943 279.25 325.727 278.656 325.727C278.036 325.727 277.562 325.888 277.234 326.211C276.906 326.529 276.742 326.974 276.742 327.547C276.742 328.078 276.914 328.503 277.258 328.82C277.607 329.133 278.177 329.419 278.969 329.68C279.766 329.935 280.385 330.219 280.828 330.531C281.276 330.839 281.604 331.198 281.812 331.609C282.026 332.021 282.133 332.503 282.133 333.055C282.133 333.935 281.867 334.643 281.336 335.18C280.81 335.716 280.07 336.034 279.117 336.133V337.625H277.961V336.133C276.992 336.044 276.232 335.701 275.68 335.102C275.133 334.497 274.859 333.68 274.859 332.648H276.305C276.305 333.372 276.495 333.93 276.875 334.32C277.255 334.711 277.794 334.906 278.492 334.906C279.174 334.906 279.711 334.742 280.102 334.414C280.492 334.086 280.688 333.638 280.688 333.07ZM290 329.609H291.086C291.768 329.599 292.305 329.419 292.695 329.07C293.086 328.721 293.281 328.25 293.281 327.656C293.281 326.323 292.617 325.656 291.289 325.656C290.664 325.656 290.164 325.836 289.789 326.195C289.419 326.549 289.234 327.021 289.234 327.609H287.789C287.789 326.708 288.117 325.961 288.773 325.367C289.435 324.768 290.273 324.469 291.289 324.469C292.362 324.469 293.203 324.753 293.812 325.32C294.422 325.888 294.727 326.677 294.727 327.688C294.727 328.182 294.565 328.661 294.242 329.125C293.924 329.589 293.49 329.935 292.938 330.164C293.562 330.362 294.044 330.69 294.383 331.148C294.727 331.607 294.898 332.167 294.898 332.828C294.898 333.849 294.565 334.659 293.898 335.258C293.232 335.857 292.365 336.156 291.297 336.156C290.229 336.156 289.359 335.867 288.688 335.289C288.021 334.711 287.688 333.948 287.688 333H289.141C289.141 333.599 289.336 334.078 289.727 334.438C290.117 334.797 290.641 334.977 291.297 334.977C291.995 334.977 292.529 334.794 292.898 334.43C293.268 334.065 293.453 333.542 293.453 332.859C293.453 332.198 293.25 331.69 292.844 331.336C292.438 330.982 291.852 330.799 291.086 330.789H290V329.609ZM303.781 327.594C303.781 328.161 303.63 328.667 303.328 329.109C303.031 329.552 302.628 329.898 302.117 330.148C302.711 330.404 303.18 330.776 303.523 331.266C303.872 331.755 304.047 332.31 304.047 332.93C304.047 333.914 303.714 334.698 303.047 335.281C302.385 335.865 301.513 336.156 300.43 336.156C299.336 336.156 298.458 335.865 297.797 335.281C297.141 334.693 296.812 333.909 296.812 332.93C296.812 332.315 296.979 331.76 297.312 331.266C297.651 330.771 298.117 330.396 298.711 330.141C298.206 329.891 297.807 329.544 297.516 329.102C297.224 328.659 297.078 328.156 297.078 327.594C297.078 326.635 297.385 325.875 298 325.312C298.615 324.75 299.424 324.469 300.43 324.469C301.43 324.469 302.237 324.75 302.852 325.312C303.471 325.875 303.781 326.635 303.781 327.594ZM302.602 332.898C302.602 332.263 302.398 331.745 301.992 331.344C301.591 330.943 301.065 330.742 300.414 330.742C299.763 330.742 299.24 330.94 298.844 331.336C298.453 331.732 298.258 332.253 298.258 332.898C298.258 333.544 298.448 334.052 298.828 334.422C299.214 334.792 299.747 334.977 300.43 334.977C301.107 334.977 301.638 334.792 302.023 334.422C302.409 334.047 302.602 333.539 302.602 332.898ZM300.43 325.656C299.862 325.656 299.401 325.833 299.047 326.188C298.698 326.536 298.523 327.013 298.523 327.617C298.523 328.195 298.695 328.664 299.039 329.023C299.388 329.378 299.852 329.555 300.43 329.555C301.008 329.555 301.469 329.378 301.812 329.023C302.161 328.664 302.336 328.195 302.336 327.617C302.336 327.039 302.156 326.568 301.797 326.203C301.438 325.839 300.982 325.656 300.43 325.656ZM306.047 335.242C306.047 334.992 306.12 334.784 306.266 334.617C306.417 334.451 306.641 334.367 306.938 334.367C307.234 334.367 307.458 334.451 307.609 334.617C307.766 334.784 307.844 334.992 307.844 335.242C307.844 335.482 307.766 335.682 307.609 335.844C307.458 336.005 307.234 336.086 306.938 336.086C306.641 336.086 306.417 336.005 306.266 335.844C306.12 335.682 306.047 335.482 306.047 335.242ZM315.625 331C315.323 331.359 314.961 331.648 314.539 331.867C314.122 332.086 313.664 332.195 313.164 332.195C312.508 332.195 311.935 332.034 311.445 331.711C310.961 331.388 310.586 330.935 310.32 330.352C310.055 329.763 309.922 329.115 309.922 328.406C309.922 327.646 310.065 326.961 310.352 326.352C310.643 325.742 311.055 325.276 311.586 324.953C312.117 324.63 312.737 324.469 313.445 324.469C314.57 324.469 315.456 324.891 316.102 325.734C316.753 326.573 317.078 327.719 317.078 329.172V329.594C317.078 331.807 316.641 333.424 315.766 334.445C314.891 335.461 313.57 335.982 311.805 336.008H311.523V334.789H311.828C313.021 334.768 313.938 334.458 314.578 333.859C315.219 333.255 315.568 332.302 315.625 331ZM313.398 331C313.883 331 314.328 330.852 314.734 330.555C315.146 330.258 315.445 329.891 315.633 329.453V328.875C315.633 327.927 315.427 327.156 315.016 326.562C314.604 325.969 314.083 325.672 313.453 325.672C312.818 325.672 312.307 325.917 311.922 326.406C311.536 326.891 311.344 327.531 311.344 328.328C311.344 329.104 311.529 329.745 311.898 330.25C312.273 330.75 312.773 331 313.398 331ZM324.609 331C324.307 331.359 323.945 331.648 323.523 331.867C323.107 332.086 322.648 332.195 322.148 332.195C321.492 332.195 320.919 332.034 320.43 331.711C319.945 331.388 319.57 330.935 319.305 330.352C319.039 329.763 318.906 329.115 318.906 328.406C318.906 327.646 319.049 326.961 319.336 326.352C319.628 325.742 320.039 325.276 320.57 324.953C321.102 324.63 321.721 324.469 322.43 324.469C323.555 324.469 324.44 324.891 325.086 325.734C325.737 326.573 326.062 327.719 326.062 329.172V329.594C326.062 331.807 325.625 333.424 324.75 334.445C323.875 335.461 322.555 335.982 320.789 336.008H320.508V334.789H320.812C322.005 334.768 322.922 334.458 323.562 333.859C324.203 333.255 324.552 332.302 324.609 331ZM322.383 331C322.867 331 323.312 330.852 323.719 330.555C324.13 330.258 324.43 329.891 324.617 329.453V328.875C324.617 327.927 324.411 327.156 324 326.562C323.589 325.969 323.068 325.672 322.438 325.672C321.802 325.672 321.292 325.917 320.906 326.406C320.521 326.891 320.328 327.531 320.328 328.328C320.328 329.104 320.513 329.745 320.883 330.25C321.258 330.75 321.758 331 322.383 331Z" fill="#606060"/>
<path d="M297.016 311.803C297.016 311.443 296.889 311.141 296.635 310.895C296.385 310.648 295.961 310.426 295.363 310.227C294.531 309.973 293.924 309.643 293.541 309.236C293.162 308.826 292.973 308.307 292.973 307.678C292.973 307.037 293.158 306.512 293.529 306.102C293.904 305.691 294.418 305.447 295.07 305.369V304.086H295.943V305.375C296.6 305.465 297.109 305.74 297.473 306.201C297.84 306.662 298.023 307.293 298.023 308.094H296.945C296.945 307.543 296.814 307.105 296.553 306.781C296.291 306.457 295.938 306.295 295.492 306.295C295.027 306.295 294.672 306.416 294.426 306.658C294.18 306.896 294.057 307.23 294.057 307.66C294.057 308.059 294.186 308.377 294.443 308.615C294.705 308.85 295.133 309.064 295.727 309.26C296.324 309.451 296.789 309.664 297.121 309.898C297.457 310.129 297.703 310.398 297.859 310.707C298.02 311.016 298.1 311.377 298.1 311.791C298.1 312.451 297.9 312.982 297.502 313.385C297.107 313.787 296.553 314.025 295.838 314.1V315.219H294.971V314.1C294.244 314.033 293.674 313.775 293.26 313.326C292.85 312.873 292.645 312.26 292.645 311.486H293.729C293.729 312.029 293.871 312.447 294.156 312.74C294.441 313.033 294.846 313.18 295.369 313.18C295.881 313.18 296.283 313.057 296.576 312.811C296.869 312.564 297.016 312.229 297.016 311.803ZM304 309.207H304.814C305.326 309.199 305.729 309.064 306.021 308.803C306.314 308.541 306.461 308.188 306.461 307.742C306.461 306.742 305.963 306.242 304.967 306.242C304.498 306.242 304.123 306.377 303.842 306.646C303.564 306.912 303.426 307.266 303.426 307.707H302.342C302.342 307.031 302.588 306.471 303.08 306.025C303.576 305.576 304.205 305.352 304.967 305.352C305.771 305.352 306.402 305.564 306.859 305.99C307.316 306.416 307.545 307.008 307.545 307.766C307.545 308.137 307.424 308.496 307.182 308.844C306.943 309.191 306.617 309.451 306.203 309.623C306.672 309.771 307.033 310.018 307.287 310.361C307.545 310.705 307.674 311.125 307.674 311.621C307.674 312.387 307.424 312.994 306.924 313.443C306.424 313.893 305.773 314.117 304.973 314.117C304.172 314.117 303.52 313.9 303.016 313.467C302.516 313.033 302.266 312.461 302.266 311.75H303.355C303.355 312.199 303.502 312.559 303.795 312.828C304.088 313.098 304.48 313.232 304.973 313.232C305.496 313.232 305.896 313.096 306.174 312.822C306.451 312.549 306.59 312.156 306.59 311.645C306.59 311.148 306.438 310.768 306.133 310.502C305.828 310.236 305.389 310.1 304.814 310.092H304V309.207ZM309.297 313.432C309.297 313.244 309.352 313.088 309.461 312.963C309.574 312.838 309.742 312.775 309.965 312.775C310.188 312.775 310.355 312.838 310.469 312.963C310.586 313.088 310.645 313.244 310.645 313.432C310.645 313.611 310.586 313.762 310.469 313.883C310.355 314.004 310.188 314.064 309.965 314.064C309.742 314.064 309.574 314.004 309.461 313.883C309.352 313.762 309.297 313.611 309.297 313.432ZM317.676 310.361C317.676 311.631 317.459 312.574 317.025 313.191C316.592 313.809 315.914 314.117 314.992 314.117C314.082 314.117 313.408 313.816 312.971 313.215C312.533 312.609 312.307 311.707 312.291 310.508V309.061C312.291 307.807 312.508 306.875 312.941 306.266C313.375 305.656 314.055 305.352 314.98 305.352C315.898 305.352 316.574 305.646 317.008 306.236C317.441 306.822 317.664 307.729 317.676 308.955V310.361ZM316.592 308.879C316.592 307.961 316.463 307.293 316.205 306.875C315.947 306.453 315.539 306.242 314.98 306.242C314.426 306.242 314.021 306.451 313.768 306.869C313.514 307.287 313.383 307.93 313.375 308.797V310.531C313.375 311.453 313.508 312.135 313.773 312.576C314.043 313.014 314.449 313.232 314.992 313.232C315.527 313.232 315.924 313.025 316.182 312.611C316.443 312.197 316.58 311.545 316.592 310.654V308.879ZM319.562 309.723L319.996 305.469H324.367V306.471H320.916L320.658 308.797C321.076 308.551 321.551 308.428 322.082 308.428C322.859 308.428 323.477 308.686 323.934 309.201C324.391 309.713 324.619 310.406 324.619 311.281C324.619 312.16 324.381 312.854 323.904 313.361C323.432 313.865 322.77 314.117 321.918 314.117C321.164 314.117 320.549 313.908 320.072 313.49C319.596 313.072 319.324 312.494 319.258 311.756H320.283C320.35 312.244 320.523 312.613 320.805 312.863C321.086 313.109 321.457 313.232 321.918 313.232C322.422 313.232 322.816 313.061 323.102 312.717C323.391 312.373 323.535 311.898 323.535 311.293C323.535 310.723 323.379 310.266 323.066 309.922C322.758 309.574 322.346 309.4 321.83 309.4C321.357 309.4 320.986 309.504 320.717 309.711L320.43 309.945L319.562 309.723Z" fill="#606060"/>
</svg>
