<?xml version="1.0" encoding="UTF-8" standalone="no"?>
<!DOCTYPE svg PUBLIC "-//W3C//DTD SVG 1.1//EN" "http://www.w3.org/Graphics/SVG/1.1/DTD/svg11.dtd">
<svg width="100%" height="100%" viewBox="0 0 928 495" version="1.1" xmlns="http://www.w3.org/2000/svg" xmlns:xlink="http://www.w3.org/1999/xlink" xml:space="preserve" xmlns:serif="http://www.serif.com/" style="fill-rule:evenodd;clip-rule:evenodd;stroke-linejoin:round;stroke-miterlimit:1.5;">
    <g id="Artboard1" transform="matrix(0.906167,0,0,0.643301,0,0)">
        <rect x="0" y="0" width="1024" height="768" style="fill:none;"/>
        <g transform="matrix(1.10355,0,0,1.55448,-46.6106,-226.865)">
            <g>
                <g transform="matrix(1.15665,-0.00105125,0.00105125,1.15665,-45.5013,-67.0379)">
                    <circle cx="287.801" cy="397.97" r="180.586" style="fill:none;stroke:rgb(226,226,226);stroke-width:1.73px;stroke-dasharray:5.19,1.73,0,0;"/>
                </g>
                <g transform="matrix(1.32458,-0.00120389,0.00120389,1.32458,-93.8944,-133.828)">
                    <circle cx="287.801" cy="397.97" r="180.586" style="fill:none;stroke:rgb(226,226,226);stroke-width:1.51px;stroke-dasharray:4.53,1.51,0,0;"/>
                </g>
                <g transform="matrix(1,0,0,1,-1.56319e-13,-5)">
                    <circle cx="287.801" cy="397.97" r="180.586" style="fill:rgb(244,245,246);"/>
                </g>
            </g>
            <g transform="matrix(1,0,0,1,436.786,0)">
                <g transform="matrix(1.15665,-0.00105125,0.00105125,1.15665,-45.5013,-67.0379)">
                    <circle cx="287.801" cy="397.97" r="180.586" style="fill:none;stroke:rgb(226,226,226);stroke-width:1.73px;stroke-dasharray:5.19,1.73,0,0;"/>
                </g>
                <g transform="matrix(1.32458,-0.00120389,0.00120389,1.32458,-93.8944,-133.828)">
                    <circle cx="287.801" cy="397.97" r="180.586" style="fill:none;stroke:rgb(226,226,226);stroke-width:1.51px;stroke-dasharray:4.53,1.51,0,0;"/>
                </g>
                <g transform="matrix(1,0,0,1,-1.56319e-13,-5)">
                    <circle cx="287.801" cy="397.97" r="180.586" style="fill:rgb(244,245,246);"/>
                </g>
            </g>
            <g transform="matrix(1,0,0,1,1.00894,-69.6667)">
                <g transform="matrix(1,0,0,1,0,69.6667)">
                    <circle cx="505.185" cy="392.97" r="33.142" style="fill:rgb(9,204,122);"/>
                </g>
                <g>
                    <g transform="matrix(1,0,0,1,-1.3,70.9511)">
                        <rect x="505.185" y="382.085" width="2.6" height="19.2" style="fill:white;"/>
                    </g>
                    <g transform="matrix(6.12323e-17,1,-1,6.12323e-17,896.871,-43.8489)">
                        <rect x="505.185" y="382.085" width="2.6" height="19.2" style="fill:white;"/>
                    </g>
                </g>
            </g>
        </g>
    </g>
</svg>
