<svg width="168" height="47" viewBox="0 0 168 47" fill="none" xmlns="http://www.w3.org/2000/svg">
<path d="M41.7894 10.3693C41.6586 9.12895 41.3127 7.91716 40.7851 6.78547C39.7299 4.52095 37.9516 2.57911 35.7347 1.38563C34.0663 0.487377 32.1711 0.0239456 30.2747 0.00106003C29.3202 -0.011527 28.3657 0.088025 27.4354 0.297428C26.563 0.495387 25.5622 0.762004 24.8148 1.25748C24.3635 1.55613 23.8429 1.78041 23.3627 2.03444C22.8641 2.29877 22.3654 2.56424 21.8667 2.83085C20.8705 3.36523 19.8778 3.90419 18.8874 4.44772C16.9054 5.53478 14.9362 6.64244 12.9773 7.76841L12.6511 7.95721C12.6268 7.97094 12.6036 7.98467 12.5793 7.99841C11.9881 8.33826 11.3969 8.68154 10.8079 9.02711C9.95406 9.52601 9.02382 10.1359 8.82249 11.096C8.67093 11.8226 9.00068 12.5824 9.50513 13.1328C10.0096 13.682 10.6726 14.0596 11.324 14.4281C12.0089 14.816 12.695 15.2051 13.38 15.593C13.5165 15.649 13.6519 15.7143 13.7861 15.7864C15.8977 16.9055 17.9479 18.1298 20.3244 19.4812C20.3556 19.4995 20.3869 19.5167 20.4181 19.535C20.4042 19.543 20.3915 19.5499 20.3788 19.5567C20.3788 19.5567 20.3799 19.5567 20.3799 19.5579C20.7953 19.7925 21.2095 20.0282 21.6249 20.2628C23.3708 21.2514 25.1411 22.2492 27.0837 22.7664C27.7767 22.9507 28.4848 23.0662 29.1987 23.1166C29.223 23.1189 29.2462 23.12 29.2705 23.1212C32.3018 23.3214 35.4177 22.3465 37.734 20.3932C38.0441 20.1323 38.3392 19.8531 38.618 19.5602C38.6342 19.543 38.6516 19.5258 38.6666 19.5075C40.9459 17.0828 42.1365 13.6683 41.7894 10.3693ZM21.4664 11.5159C21.4895 11.5045 21.5115 11.4919 21.5312 11.4816C21.5416 11.4713 21.552 11.4667 21.5624 11.461C23.6393 10.2961 25.4164 9.25482 27.1994 8.30393C27.2202 8.29363 27.241 8.28333 27.2607 8.27303C27.5245 8.13572 27.7883 7.99726 28.0521 7.85995C30.0306 6.83697 32.185 7.31756 33.4346 8.92756C34.6853 10.5318 34.6899 12.6774 33.4554 14.2416C32.6432 15.2657 31.4433 15.8287 30.1799 15.8287C29.8038 15.8287 29.422 15.7783 29.0437 15.6765C28.8528 15.6262 28.663 15.5632 28.4744 15.4843C28.3356 15.4282 28.1979 15.363 28.0625 15.2886C27.9769 15.2428 27.8913 15.197 27.8057 15.1513C25.9058 14.1352 24.0442 13.0332 21.9338 11.8272C21.9153 11.8157 21.8956 11.8054 21.8771 11.794C21.729 11.7093 21.5798 11.6235 21.4282 11.5377C21.4409 11.5308 21.4536 11.5239 21.4664 11.5159Z" fill="#1F155B"/>
<path d="M32.3433 17.9879C31.8389 17.4387 31.1759 17.0599 30.5245 16.6914C30.1207 16.4626 29.7157 16.2337 29.3119 16.0049C29.2333 15.9602 29.1557 15.9168 29.0771 15.8721C28.8757 15.7589 28.6744 15.6444 28.4743 15.53C28.2509 15.4041 28.0288 15.2783 27.8055 15.1512C25.8478 14.0436 23.8913 12.9348 21.9336 11.8271C21.9151 11.8157 21.8955 11.8054 21.8769 11.7939C21.7404 11.7161 21.6027 11.6395 21.4662 11.5616C21.052 11.3271 20.6366 11.0925 20.2224 10.8579C18.4776 9.86926 16.7062 8.87031 14.7636 8.35424C14.0717 8.17001 13.3648 8.0533 12.6509 8.00295C12.6266 8.00066 12.6035 7.99952 12.5792 7.99837C9.54662 7.79698 6.43077 8.77305 4.11442 10.7275C1.23345 13.1556 -0.33315 17.0279 0.0590788 20.7513C0.188665 21.9917 0.53577 23.2035 1.06221 24.3341C1.59328 25.4749 2.30832 26.5334 3.17261 27.4545C3.19691 27.482 3.22236 27.5094 3.24897 27.5369C4.08087 28.4111 5.04582 29.1606 6.11375 29.735C7.77522 30.6287 9.66 31.091 11.5483 31.1196H11.5737C11.716 31.1208 11.8572 31.1208 11.9995 31.1173C12.1707 31.1139 12.3431 31.1059 12.5144 31.0956C12.593 31.091 12.6706 31.0853 12.7492 31.0773C13.3081 31.0315 13.8646 30.9457 14.4119 30.8221C15.2843 30.6253 16.2851 30.3587 17.0337 29.8632C17.4849 29.5645 18.0056 29.3391 18.4846 29.0862C18.9844 28.8208 19.4831 28.5553 19.9806 28.2887C20.4561 28.0335 20.9317 27.7772 21.4072 27.5197C21.4512 27.4968 21.4963 27.4728 21.5403 27.4476V27.4419C21.5946 27.411 21.649 27.3813 21.7034 27.3504C21.656 27.3252 21.6085 27.3012 21.5611 27.2794C23.6287 26.1191 25.4001 25.0801 27.1772 24.1338C27.1981 24.1235 27.2177 24.1132 27.2386 24.1029C27.4595 23.9873 27.6794 23.8718 27.8992 23.7562C27.9432 23.7345 27.986 23.7116 28.0288 23.6887C28.3134 23.5411 28.6027 23.4255 28.8919 23.3397C28.9938 23.2813 29.0967 23.2218 29.1985 23.1623C29.2228 23.1486 29.246 23.1349 29.2703 23.1211C29.8615 22.7813 30.4516 22.438 31.0405 22.0936C31.8932 21.5947 32.8246 20.9848 33.0248 20.0247C33.1775 19.297 32.8478 18.5372 32.3433 17.9879ZM8.39191 16.8791C9.44596 15.5506 11.1514 14.9991 12.8048 15.443C12.9968 15.4934 13.1889 15.5586 13.3798 15.6387C13.5163 15.6948 13.6517 15.76 13.7859 15.8321C15.8848 16.9443 17.9234 18.1607 20.2826 19.5041C20.3277 19.5292 20.3728 19.5556 20.4179 19.5807C20.4179 19.5819 20.4191 19.5819 20.4191 19.5819C20.4064 19.5899 20.3925 19.5968 20.3798 19.6036C20.3578 19.6174 20.3358 19.6288 20.3161 19.6379C20.3057 19.6482 20.2953 19.654 20.2849 19.6585C18.208 20.8234 16.4309 21.8659 14.6491 22.8167C14.6282 22.8259 14.6074 22.8362 14.5866 22.8465C14.3748 22.9575 14.1643 23.0673 13.9537 23.1783C13.9016 23.2058 13.8484 23.2333 13.7963 23.2607C13.5129 23.4072 13.2259 23.5228 12.9378 23.6086C12.5653 23.7196 12.1916 23.7814 11.8248 23.794C11.716 23.7985 11.6073 23.7985 11.5008 23.794C10.2964 23.747 9.18331 23.1841 8.41274 22.1931C7.16316 20.5888 7.15738 18.4422 8.39191 16.8791Z" fill="#047F74"/>
<path d="M41.7672 26.1984C41.6365 24.9591 41.2906 23.7474 40.7629 22.6157C40.2342 21.4805 39.5226 20.4267 38.6664 19.5078C38.6502 19.4895 38.634 19.4723 38.6178 19.4552C37.7767 18.5626 36.7967 17.7994 35.7114 17.2147C34.0442 16.3164 32.149 15.8541 30.2514 15.8301C30.2272 15.8301 30.204 15.8301 30.1797 15.829C29.8905 15.8278 29.6 15.8358 29.312 15.8541C29.2333 15.8587 29.1558 15.8644 29.0771 15.8724C28.5182 15.9182 27.9617 16.004 27.4133 16.1276C26.5409 16.3256 25.5401 16.5922 24.7915 17.0877C24.3403 17.3852 23.8208 17.6106 23.3406 17.8646C22.8419 18.129 22.3432 18.3944 21.8446 18.661C21.3679 18.9162 20.8923 19.1725 20.418 19.43C20.4041 19.438 20.3914 19.4449 20.3786 19.4517C20.3601 19.462 20.3428 19.4712 20.3242 19.4815C20.3104 19.4884 20.2965 19.4964 20.2826 19.5044C19.8094 19.7607 19.3362 20.0182 18.8652 20.2779C17.22 21.1807 15.5828 22.0962 13.9537 23.0276C13.6205 23.2164 13.2873 23.4075 12.9552 23.5986C12.9494 23.602 12.9436 23.6055 12.9379 23.6089C12.8302 23.6707 12.7238 23.7325 12.6174 23.7943C12.6012 23.8034 12.585 23.8126 12.5688 23.8217C11.9729 24.1639 11.3782 24.5094 10.7858 24.8562C9.93192 25.3562 9.00052 25.965 8.80036 26.9262C8.64879 27.6528 8.97738 28.4126 9.483 28.9618C9.98746 29.5122 10.6504 29.8898 11.3018 30.2583C11.7056 30.4871 12.1106 30.716 12.5144 30.9448C12.5931 30.9895 12.6706 31.0341 12.7493 31.0776C12.9182 31.1737 13.0859 31.2687 13.2549 31.3648C13.3012 31.3911 13.3463 31.4163 13.3926 31.4426C13.5673 31.5101 13.7397 31.5902 13.9097 31.6806C16.0421 32.8112 18.112 34.0481 20.5186 35.4167C20.5267 35.4213 20.5348 35.4258 20.5429 35.4304C20.5244 35.4407 20.5071 35.451 20.4885 35.4613C20.8599 35.6707 21.2313 35.8813 21.6028 36.0918C23.3487 37.0805 25.1189 38.0794 27.0616 38.5966C27.8182 38.7969 28.5958 38.9182 29.3767 38.9582C29.3929 38.9605 29.4091 38.9605 29.4253 38.9616C32.4012 39.1127 35.4395 38.1378 37.7119 36.2223C40.5917 33.7941 42.1583 29.9219 41.7672 26.1984ZM33.4332 30.0706C32.4047 31.3671 30.7571 31.9244 29.1419 31.5364C29.1014 31.5273 29.062 31.517 29.0215 31.5067C28.6906 31.4197 28.3597 31.2916 28.0392 31.1188C25.9404 30.0043 23.9017 28.7879 21.5403 27.4445C21.4963 27.4193 21.4512 27.3942 21.4072 27.369C21.4072 27.3678 21.4061 27.3678 21.4061 27.3678C21.4419 27.3472 21.4789 27.3266 21.509 27.3118C21.5194 27.3015 21.5299 27.2969 21.5403 27.2912C21.5472 27.2877 21.5542 27.2832 21.5611 27.2797C23.6287 26.1194 25.4001 25.0804 27.1773 24.1341C27.1981 24.1238 27.2178 24.1135 27.2386 24.1032C27.4596 23.9877 27.6794 23.8721 27.8992 23.7565C27.9432 23.7348 27.986 23.7119 28.0288 23.689C28.3134 23.5414 28.6027 23.4258 28.892 23.34C30.6101 22.8285 32.3422 23.3789 33.4124 24.7566C34.6632 26.362 34.6678 28.5075 33.4332 30.0706Z" fill="#EC4467"/>
<path d="M31.8424 33.2219C31.1655 32.7413 30.4736 32.2916 29.7863 31.8316C29.5688 31.7377 29.3548 31.6393 29.1419 31.5364C29.1014 31.518 29.0621 31.4986 29.0216 31.4791C26.5004 30.3085 24.1181 28.8839 21.7728 27.3861C21.7497 27.3746 21.7266 27.362 21.7034 27.3506C21.656 27.3254 21.6086 27.3014 21.5611 27.2797C21.5542 27.2762 21.5472 27.2728 21.5403 27.2694V27.2636C20.0836 26.513 18.6211 25.7612 17.1645 25.006C15.7413 24.2588 14.2453 23.7816 12.6174 23.7942H12.5514C12.5456 23.7942 12.5456 23.7942 12.541 23.7942H10.9293C7.89559 23.9578 5.46238 25.3882 3.27215 27.33C3.26405 27.3392 3.25711 27.3495 3.24901 27.3586C3.22355 27.3906 3.1981 27.4227 3.17264 27.4547C0.108864 31.3041 -0.889642 35.515 1.22076 40.1402C3.98024 46.1785 10.9594 48.7291 16.9527 45.7597C21.1423 43.6851 25.1722 41.2787 29.2692 39.0211C29.305 38.9982 29.3409 38.981 29.3768 38.9581C29.3825 38.9558 29.3872 38.9524 29.393 38.949C29.393 38.949 29.393 38.949 29.3987 38.949C29.408 38.9444 29.4161 38.9387 29.4254 38.9341C30.2075 38.4901 31.0128 38.0805 31.7591 37.585C33.6033 36.3641 33.6242 34.4886 31.8424 33.2219ZM13.9202 39.0817C11.9417 40.1035 9.78731 39.6184 8.53658 38.0141C7.287 36.4098 7.28121 34.2586 8.51575 32.7001C9.27475 31.7435 10.3751 31.1874 11.5483 31.1198C11.6975 31.1095 11.848 31.1095 11.9995 31.1176C12.3027 31.1313 12.6093 31.1782 12.9124 31.2594C13.027 31.2892 13.1415 31.3235 13.2549 31.3647C13.3012 31.3807 13.3463 31.3979 13.3926 31.4151C13.5673 31.4826 13.7397 31.5627 13.9098 31.6531C16.0491 32.787 18.1259 34.0286 20.5429 35.4029C20.5348 35.4074 20.5267 35.412 20.5186 35.4166C20.5082 35.4223 20.499 35.428 20.4886 35.4338C20.4608 35.4486 20.4342 35.4647 20.4087 35.4795C17.9963 36.8286 15.9912 38.0141 13.9202 39.0817Z" fill="#FE9B03"/>
<path d="M68.2978 13.9158H63.5991L59.2996 24.9764L55.0001 13.9158H50.3003L48.5625 33.0847H52.9788L53.8952 21.722H54.0132L57.9841 32.9691H60.6152L64.586 21.722H64.7029L65.6193 33.0847H70.0368L68.2978 13.9158Z" fill="#1F155B"/>
<path d="M80.724 13.5667C75.3913 13.5667 70.9507 17.8886 70.9507 23.4887C70.9507 29.0888 74.9921 33.4336 80.724 33.4336C86.2927 33.4336 90.4753 29.0888 90.4753 23.4887C90.4753 17.8886 86.1053 13.5667 80.724 13.5667ZM80.724 29.2043C77.106 29.2043 75.7199 26.3459 75.7199 23.4887C75.7199 20.6303 77.3178 17.7719 80.724 17.7719C84.1546 17.7719 85.705 20.6303 85.705 23.4887C85.705 26.3459 84.2483 29.2043 80.724 29.2043Z" fill="#1F155B"/>
<path d="M108.706 13.9158H92.7515V17.7491H100.975L91.3896 33.0847H108.071V29.2514H99.0954L108.706 13.9158Z" fill="#1F155B"/>
<path d="M119.77 25.1617C122.142 24.4179 123.739 22.4898 123.739 19.6086C123.739 15.8439 121.015 13.9158 117.42 13.9158H110.488V33.0847H114.906V25.5107L120.827 33.0847H126.442L119.77 25.1617ZM115.423 22.42H114.906V17.4001H115.423C117.091 17.4001 119.087 17.5168 119.087 19.9106C119.087 22.3033 117.091 22.42 115.423 22.42Z" fill="#1F155B"/>
<path d="M138.399 17.7491V13.9158H127.309V33.0847H138.399V29.2514H131.727V25.394H138.117V21.5607H131.727V17.7491H138.399Z" fill="#1F155B"/>
<path d="M150.122 22.024C147.913 21.0948 146.081 20.3282 146.081 19.2594C146.081 18.2136 146.879 17.5396 148.383 17.5396C150.38 17.5396 152.306 18.8647 152.306 18.8647L154.092 15.3792C154.092 15.3792 151.602 13.5667 148.078 13.5667C144.952 13.5667 141.757 15.8438 141.757 19.4219C141.757 21.4198 143.12 23.2095 145.445 24.348C147.748 25.4866 149.817 26.1148 149.817 27.5085C149.817 29.297 147.984 29.3909 147.02 29.3909C144.859 29.3909 142.274 27.2293 142.274 27.2293L140.065 30.9013C140.065 30.9013 142.814 33.4336 147.349 33.4336C151.132 33.4336 154.655 31.8304 154.655 27.2522C154.655 24.7428 152.283 22.9303 150.122 22.024Z" fill="#1F155B"/>
<path d="M154.373 13.9158V17.7491H158.978V33.0847H163.394V17.7491H168V13.9158H154.373Z" fill="#1F155B"/>
</svg>
