<?xml version="1.0" encoding="UTF-8" standalone="no"?>
<!DOCTYPE svg PUBLIC "-//W3C//DTD SVG 1.1//EN" "http://www.w3.org/Graphics/SVG/1.1/DTD/svg11.dtd">
<svg width="100%" height="100%" viewBox="0 0 200 200" version="1.1" xmlns="http://www.w3.org/2000/svg" xmlns:xlink="http://www.w3.org/1999/xlink" xml:space="preserve" xmlns:serif="http://www.serif.com/" style="fill-rule:evenodd;clip-rule:evenodd;stroke-linejoin:round;stroke-miterlimit:2;">
    <g id="Artboard1" transform="matrix(0.195312,0,0,0.260417,0,0)">
        <g transform="matrix(20.8953,0,0,15.6715,74.7776,15.7158)">
            <path d="M41.789,10.369C41.659,9.129 41.313,7.917 40.785,6.785C39.73,4.521 37.952,2.579 35.735,1.386C34.066,0.487 32.171,0.024 30.275,0.001C29.32,-0.012 28.366,0.088 27.435,0.297C26.563,0.495 25.562,0.762 24.815,1.257C24.363,1.556 23.843,1.78 23.363,2.034C22.864,2.299 22.365,2.564 21.867,2.831C20.871,3.365 19.878,3.904 18.887,4.448C16.905,5.535 14.936,6.642 12.977,7.768L12.651,7.957C12.627,7.971 12.604,7.985 12.579,7.998C11.988,8.338 11.397,8.682 10.808,9.027C9.954,9.526 9.024,10.136 8.822,11.096C8.671,11.823 9.001,12.582 9.505,13.133C10.01,13.682 10.673,14.06 11.324,14.428C12.009,14.816 12.695,15.205 13.38,15.593C13.517,15.649 13.652,15.714 13.786,15.786C15.898,16.906 17.948,18.13 20.324,19.481C20.356,19.5 20.387,19.517 20.418,19.535C20.404,19.543 20.392,19.55 20.379,19.557C20.379,19.557 20.38,19.557 20.38,19.558C20.795,19.793 21.209,20.028 21.625,20.263C23.371,21.251 25.141,22.249 27.084,22.766C27.777,22.951 28.485,23.066 29.199,23.117C29.223,23.119 29.246,23.12 29.27,23.121C32.302,23.321 35.418,22.347 37.734,20.393C38.044,20.132 38.339,19.853 38.618,19.56C38.634,19.543 38.652,19.526 38.667,19.508C40.946,17.083 42.137,13.668 41.789,10.369ZM21.466,11.516C21.49,11.505 21.512,11.492 21.531,11.482C21.542,11.471 21.552,11.467 21.562,11.461C23.639,10.296 25.416,9.255 27.199,8.304C27.22,8.294 27.241,8.283 27.261,8.273C27.525,8.136 27.788,7.997 28.052,7.86C30.031,6.837 32.185,7.318 33.435,8.928C34.685,10.532 34.69,12.677 33.455,14.242C32.643,15.266 31.443,15.829 30.18,15.829C29.804,15.829 29.422,15.778 29.044,15.677C28.853,15.626 28.663,15.563 28.474,15.484C28.336,15.428 28.198,15.363 28.063,15.289C27.977,15.243 27.891,15.197 27.806,15.151C25.906,14.135 24.044,13.033 21.934,11.827C21.915,11.816 21.896,11.805 21.877,11.794C21.729,11.709 21.58,11.624 21.428,11.538C21.441,11.531 21.454,11.524 21.466,11.516Z" style="fill:rgb(31,21,91);fill-rule:nonzero;"/>
            <g transform="matrix(1,0,0,1,0.00048833,0)">
                <path d="M32.343,17.988C31.839,17.439 31.176,17.06 30.525,16.691C30.121,16.463 29.716,16.234 29.312,16.005C29.233,15.96 29.156,15.917 29.077,15.872C28.876,15.759 28.674,15.644 28.474,15.53C28.251,15.404 28.029,15.278 27.805,15.151C25.848,14.044 23.891,12.935 21.934,11.827C21.915,11.816 21.895,11.805 21.877,11.794C21.74,11.716 21.603,11.64 21.466,11.562C21.052,11.327 20.637,11.093 20.222,10.858C18.478,9.869 16.706,8.87 14.764,8.354C14.072,8.17 13.365,8.053 12.651,8.003C12.627,8.001 12.604,8 12.579,7.998C9.547,7.797 6.431,8.773 4.114,10.727C1.233,13.156 -0.333,17.028 0.059,20.751C0.189,21.992 0.536,23.203 1.062,24.334C1.593,25.475 2.308,26.533 3.173,27.455C3.197,27.482 3.222,27.509 3.249,27.537C4.081,28.411 5.046,29.161 6.114,29.735C7.775,30.629 9.66,31.091 11.548,31.12L11.574,31.12C11.716,31.121 11.857,31.121 12,31.117C12.171,31.114 12.343,31.106 12.514,31.096C12.593,31.091 12.671,31.085 12.749,31.077C13.308,31.032 13.865,30.946 14.412,30.822C15.284,30.625 16.285,30.359 17.034,29.863C17.485,29.565 18.006,29.339 18.485,29.086C18.984,28.821 19.483,28.555 19.981,28.289C20.456,28.034 20.932,27.777 21.407,27.52C21.451,27.497 21.496,27.473 21.54,27.448L21.54,27.442C21.595,27.411 21.649,27.381 21.703,27.35C21.656,27.325 21.609,27.301 21.561,27.279C23.629,26.119 25.4,25.08 27.177,24.134C27.198,24.124 27.218,24.113 27.239,24.103C27.459,23.987 27.679,23.872 27.899,23.756C27.943,23.735 27.986,23.712 28.029,23.689C28.313,23.541 28.603,23.426 28.892,23.34C28.994,23.281 29.097,23.222 29.199,23.162C29.223,23.149 29.246,23.135 29.27,23.121C29.862,22.781 30.452,22.438 31.041,22.094C31.893,21.595 32.825,20.985 33.025,20.025C33.178,19.297 32.848,18.537 32.343,17.988ZM8.392,16.879C9.446,15.551 11.151,14.999 12.805,15.443C12.997,15.493 13.189,15.559 13.38,15.639C13.516,15.695 13.652,15.76 13.786,15.832C15.885,16.944 17.923,18.161 20.283,19.504C20.328,19.529 20.373,19.556 20.418,19.581C20.418,19.582 20.419,19.582 20.419,19.582C20.406,19.59 20.392,19.597 20.38,19.604C20.358,19.617 20.336,19.629 20.316,19.638C20.306,19.648 20.295,19.654 20.285,19.659C18.208,20.823 16.431,21.866 14.649,22.817C14.628,22.826 14.607,22.836 14.587,22.847C14.375,22.958 14.164,23.067 13.954,23.178C13.902,23.206 13.848,23.233 13.796,23.261C13.513,23.407 13.226,23.523 12.938,23.609C12.565,23.72 12.192,23.781 11.825,23.794C11.716,23.799 11.607,23.799 11.501,23.794C10.296,23.747 9.183,23.184 8.413,22.193C7.163,20.589 7.157,18.442 8.392,16.879Z" style="fill:rgb(4,127,116);fill-rule:nonzero;"/>
            </g>
            <path d="M41.767,26.198C41.637,24.959 41.291,23.747 40.763,22.616C40.234,21.481 39.523,20.427 38.666,19.508C38.65,19.49 38.634,19.472 38.618,19.455C37.777,18.563 36.797,17.799 35.711,17.215C34.044,16.316 32.149,15.854 30.251,15.83C30.227,15.83 30.204,15.83 30.18,15.829C29.891,15.828 29.6,15.836 29.312,15.854C29.233,15.859 29.156,15.864 29.077,15.872C28.518,15.918 27.962,16.004 27.413,16.128C26.541,16.326 25.54,16.592 24.792,17.088C24.34,17.385 23.821,17.611 23.341,17.865C22.842,18.129 22.343,18.394 21.845,18.661C21.368,18.916 20.892,19.173 20.418,19.43C20.404,19.438 20.391,19.445 20.379,19.452C20.36,19.462 20.343,19.471 20.324,19.482C20.31,19.488 20.297,19.496 20.283,19.504C19.809,19.761 19.336,20.018 18.865,20.278C17.22,21.181 15.583,22.096 13.954,23.028C13.621,23.216 13.287,23.408 12.955,23.599C12.949,23.602 12.944,23.606 12.938,23.609C12.83,23.671 12.724,23.733 12.617,23.794C12.601,23.803 12.585,23.813 12.569,23.822C11.973,24.164 11.378,24.509 10.786,24.856C9.932,25.356 9.001,25.965 8.8,26.926C8.649,27.653 8.977,28.413 9.483,28.962C9.987,29.512 10.65,29.89 11.302,30.258C11.706,30.487 12.111,30.716 12.514,30.945C12.593,30.99 12.671,31.034 12.749,31.078C12.918,31.174 13.086,31.269 13.255,31.365C13.301,31.391 13.346,31.416 13.393,31.443C13.567,31.51 13.74,31.59 13.91,31.681C16.042,32.811 18.112,34.048 20.519,35.417C20.527,35.421 20.535,35.426 20.543,35.43C20.524,35.441 20.507,35.451 20.488,35.461C20.86,35.671 21.231,35.881 21.603,36.092C23.349,37.081 25.119,38.079 27.062,38.597C27.818,38.797 28.596,38.918 29.377,38.958C29.393,38.961 29.409,38.961 29.425,38.962C32.401,39.113 35.44,38.138 37.712,36.222C40.592,33.794 42.158,29.922 41.767,26.198ZM33.433,30.071C32.405,31.367 30.757,31.924 29.142,31.536C29.101,31.527 29.062,31.517 29.022,31.507C28.691,31.42 28.36,31.292 28.039,31.119C25.94,30.004 23.902,28.788 21.54,27.445C21.496,27.419 21.451,27.394 21.407,27.369C21.407,27.368 21.406,27.368 21.406,27.368C21.442,27.347 21.479,27.327 21.509,27.312C21.519,27.302 21.53,27.297 21.54,27.291C21.547,27.288 21.554,27.283 21.561,27.28C23.629,26.119 25.4,25.08 27.177,24.134C27.198,24.124 27.218,24.113 27.239,24.103C27.46,23.988 27.679,23.872 27.899,23.757C27.943,23.735 27.986,23.712 28.029,23.689C28.313,23.541 28.603,23.426 28.892,23.34C30.61,22.828 32.342,23.379 33.412,24.757C34.663,26.362 34.668,28.508 33.433,30.071Z" style="fill:rgb(236,68,103);fill-rule:nonzero;"/>
            <path d="M31.842,33.222C31.166,32.741 30.474,32.292 29.786,31.832C29.569,31.738 29.355,31.639 29.142,31.536C29.101,31.518 29.062,31.499 29.022,31.479C26.5,30.308 24.118,28.884 21.773,27.386C21.75,27.375 21.727,27.362 21.703,27.351C21.656,27.325 21.609,27.301 21.561,27.28C21.554,27.276 21.547,27.273 21.54,27.269L21.54,27.264C20.084,26.513 18.621,25.761 17.165,25.006C15.741,24.259 14.245,23.782 12.617,23.794L10.929,23.794C7.896,23.958 5.462,25.388 3.272,27.33C3.264,27.339 3.257,27.35 3.249,27.359C3.224,27.391 3.198,27.423 3.173,27.455C0.109,31.304 -0.89,35.515 1.221,40.14C3.98,46.179 10.959,48.729 16.953,45.76C21.142,43.685 25.172,41.279 29.269,39.021C29.305,38.998 29.341,38.981 29.377,38.958C29.383,38.956 29.387,38.952 29.393,38.949L29.399,38.949C29.408,38.944 29.416,38.939 29.425,38.934C30.208,38.49 31.013,38.081 31.759,37.585C33.603,36.364 33.624,34.489 31.842,33.222ZM13.92,39.082C11.942,40.103 9.787,39.618 8.537,38.014C7.287,36.41 7.281,34.259 8.516,32.7C9.275,31.744 10.375,31.187 11.548,31.12C11.698,31.11 11.848,31.11 12,31.118C12.303,31.131 12.609,31.178 12.912,31.259C13.027,31.289 13.142,31.324 13.255,31.365C13.301,31.381 13.346,31.398 13.393,31.415C13.567,31.483 13.74,31.563 13.91,31.653C16.049,32.787 18.126,34.029 20.543,35.403C20.535,35.407 20.527,35.412 20.519,35.417C20.508,35.422 20.499,35.428 20.489,35.434C20.461,35.449 20.434,35.465 20.409,35.48C17.996,36.829 15.991,38.014 13.92,39.082Z" style="fill:rgb(254,155,3);fill-rule:nonzero;"/>
        </g>
    </g>
</svg>
