<svg width="466" height="548" viewBox="0 0 466 548" fill="none" xmlns="http://www.w3.org/2000/svg">
<rect width="345" height="413" rx="20" fill="white"/>
<path d="M142.018 166.628C144.889 166.628 147.199 167.284 148.949 168.597C150.713 169.896 151.595 171.652 151.595 173.867C151.595 175.398 151.171 176.766 150.323 177.969C149.476 179.158 148.108 180.225 146.222 181.168C148.464 182.371 150.07 183.629 151.041 184.941C152.025 186.24 152.518 187.669 152.518 189.228C152.518 191.688 151.554 193.671 149.626 195.175C147.698 196.665 145.162 197.41 142.018 197.41C138.736 197.41 136.159 196.713 134.286 195.318C132.413 193.924 131.477 191.948 131.477 189.392C131.477 187.683 131.928 186.165 132.83 184.839C133.746 183.513 135.209 182.344 137.219 181.332C135.51 180.252 134.279 179.097 133.527 177.866C132.775 176.636 132.399 175.289 132.399 173.826C132.399 171.68 133.288 169.943 135.065 168.617C136.843 167.291 139.16 166.628 142.018 166.628ZM137.342 189.022C137.342 190.198 137.752 191.114 138.572 191.771C139.393 192.427 140.514 192.755 141.936 192.755C143.508 192.755 144.684 192.42 145.463 191.75C146.242 191.066 146.632 190.171 146.632 189.063C146.632 188.147 146.242 187.293 145.463 186.5C144.697 185.693 143.446 184.839 141.71 183.937C138.798 185.276 137.342 186.972 137.342 189.022ZM141.977 171.263C140.896 171.263 140.021 171.543 139.352 172.104C138.695 172.65 138.367 173.389 138.367 174.318C138.367 175.139 138.627 175.877 139.146 176.533C139.68 177.176 140.637 177.839 142.018 178.522C143.357 177.894 144.294 177.251 144.827 176.595C145.36 175.938 145.627 175.18 145.627 174.318C145.627 173.375 145.285 172.63 144.602 172.083C143.918 171.536 143.043 171.263 141.977 171.263ZM158.649 197L169.908 172.391H155.122V167.059H176.635V171.037L165.294 197H158.649ZM184.448 176C184.448 177.736 184.599 179.035 184.899 179.896C185.214 180.744 185.713 181.168 186.396 181.168C187.709 181.168 188.365 179.445 188.365 176C188.365 172.582 187.709 170.873 186.396 170.873C185.713 170.873 185.214 171.297 184.899 172.145C184.599 172.979 184.448 174.264 184.448 176ZM193.533 175.959C193.533 179.104 192.925 181.469 191.708 183.055C190.491 184.627 188.707 185.413 186.355 185.413C184.1 185.413 182.356 184.606 181.126 182.993C179.896 181.366 179.28 179.021 179.28 175.959C179.28 169.711 181.639 166.587 186.355 166.587C188.666 166.587 190.437 167.4 191.667 169.027C192.911 170.641 193.533 172.951 193.533 175.959ZM207.643 167.018L191.011 197H186.089L202.721 167.018H207.643ZM205.448 187.977C205.448 189.713 205.599 191.012 205.899 191.873C206.214 192.721 206.713 193.145 207.396 193.145C208.709 193.145 209.365 191.422 209.365 187.977C209.365 184.559 208.709 182.85 207.396 182.85C206.713 182.85 206.214 183.273 205.899 184.121C205.599 184.955 205.448 186.24 205.448 187.977ZM214.533 187.936C214.533 191.066 213.925 193.425 212.708 195.011C211.491 196.583 209.707 197.369 207.355 197.369C205.1 197.369 203.356 196.562 202.126 194.949C200.896 193.322 200.28 190.984 200.28 187.936C200.28 181.688 202.639 178.563 207.355 178.563C209.666 178.563 211.437 179.377 212.667 181.004C213.911 182.617 214.533 184.928 214.533 187.936Z" fill="black"/>
<path d="M172.5 280C227.452 280 272 235.452 272 180.5C272 125.548 227.452 81 172.5 81C117.548 81 73 125.548 73 180.5C73 235.452 117.548 280 172.5 280Z" stroke="#E0E4EA" stroke-width="17" stroke-miterlimit="10"/>
<path d="M243.778 111C261.241 128.934 272 153.441 272 180.455C272 235.429 227.455 280 172.496 280C117.537 280 73 235.429 73 180.455" stroke="#EC4467" stroke-width="17" stroke-miterlimit="10" stroke-linecap="round"/>
<path d="M173 280C117.767 280 73 235.225 73 180" stroke="#FE9B02" stroke-width="17" stroke-miterlimit="10" stroke-linecap="round"/>
<rect x="29" y="324" width="126" height="18" rx="9" fill="#E0E4EA"/>
<rect x="190" y="324" width="126" height="18" rx="9" fill="#E0E4EA"/>
<rect x="29" y="355" width="77" height="18" rx="9" fill="#E0E4EA"/>
<rect x="190" y="355" width="77" height="18" rx="9" fill="#E0E4EA"/>
<g filter="url(#filter0_d)">
<rect x="200" y="373" width="246" height="151" rx="10" fill="white"/>
</g>
<rect x="216.581" y="484.918" width="74.6118" height="10.6588" rx="5.32941" fill="#E0E4EA"/>
<rect x="216.58" y="503.275" width="45.5961" height="10.6588" rx="5.32941" fill="#E0E4EA"/>
<rect x="354.553" y="484.918" width="74.6118" height="10.6588" rx="5.32941" fill="#E0E4EA"/>
<rect x="354.553" y="503.275" width="45.5961" height="10.6588" rx="5.32941" fill="#E0E4EA"/>
<path d="M216.58 450.735C221.696 435.315 235.922 407.731 251.906 420.752C271.885 437.029 276.518 454.804 297.076 441.312C317.634 427.82 325.452 409.83 341.667 420.752C357.882 431.675 354.697 450.521 374.097 436.815C393.497 423.108 401.605 388.2 426.796 404.476" stroke="#EC4467" stroke-width="2"/>
<path d="M251.906 420.752C235.922 407.731 221.696 435.315 216.58 450.735V472.668H426.796V404.476C401.605 388.2 393.497 423.108 374.097 436.815C354.697 450.521 357.882 431.675 341.667 420.752C325.452 409.83 317.634 427.82 297.076 441.312C276.518 454.804 271.885 437.029 251.906 420.752Z" fill="url(#paint0_linear)"/>
<defs>
<filter id="filter0_d" x="180" y="357" width="286" height="191" filterUnits="userSpaceOnUse" color-interpolation-filters="sRGB">
<feFlood flood-opacity="0" result="BackgroundImageFix"/>
<feColorMatrix in="SourceAlpha" type="matrix" values="0 0 0 0 0 0 0 0 0 0 0 0 0 0 0 0 0 0 127 0"/>
<feOffset dy="4"/>
<feGaussianBlur stdDeviation="10"/>
<feColorMatrix type="matrix" values="0 0 0 0 0 0 0 0 0 0 0 0 0 0 0 0 0 0 0.06 0"/>
<feBlend mode="normal" in2="BackgroundImageFix" result="effect1_dropShadow"/>
<feBlend mode="normal" in="SourceGraphic" in2="effect1_dropShadow" result="shape"/>
</filter>
<linearGradient id="paint0_linear" x1="321.998" y1="323.22" x2="321.788" y2="472.668" gradientUnits="userSpaceOnUse">
<stop stop-color="#EC4467"/>
<stop offset="1" stop-color="#EC4467" stop-opacity="0"/>
</linearGradient>
</defs>
</svg>
